<svg class="animated" id="freepik_stories-authentication" xmlns="http://www.w3.org/2000/svg" viewBox="0 0 500 500" version="1.1" xmlns:xlink="http://www.w3.org/1999/xlink" xmlns:svgjs="http://svgjs.com/svgjs"><style>svg#freepik_stories-authentication:not(.animated) .animable {opacity: 0;}svg#freepik_stories-authentication.animated #freepik--Floor--inject-4 {animation: 1.5s Infinite  linear shake;animation-delay: 0s;}svg#freepik_stories-authentication.animated #freepik--Device--inject-4 {animation: 1s 1 forwards cubic-bezier(.36,-0.01,.5,1.38) zoomIn;animation-delay: 0s;}svg#freepik_stories-authentication.animated #freepik--Window--inject-4 {animation: 1s 1 forwards cubic-bezier(.36,-0.01,.5,1.38) slideRight,1.5s Infinite  linear floating;animation-delay: 0s,1s;}svg#freepik_stories-authentication.animated #freepik--Code--inject-4 {animation: 1s 1 forwards cubic-bezier(.36,-0.01,.5,1.38) slideLeft,1.5s Infinite  linear shake;animation-delay: 0s,1s;}svg#freepik_stories-authentication.animated #freepik--Character--inject-4 {animation: 1s 1 forwards cubic-bezier(.36,-0.01,.5,1.38) slideDown,1.5s Infinite  linear shake;animation-delay: 0s,1s;}svg#freepik_stories-authentication.animated #freepik--speech-bubbles--inject-4 {animation: 1s 1 forwards cubic-bezier(.36,-0.01,.5,1.38) slideUp,1.5s Infinite  linear shake;animation-delay: 0s,1s;}            @keyframes shake {                10%, 90% {                    transform: translate3d(-1px, 0, 0);                  }                  20%, 80% {                    transform: translate3d(2px, 0, 0);                  }                  30%, 50%, 70% {                    transform: translate3d(-4px, 0, 0);                  }                  40%, 60% {                    transform: translate3d(4px, 0, 0);                  }            }                    @keyframes zoomIn {                0% {                    opacity: 0;                    transform: scale(0.5);                }                100% {                    opacity: 1;                    transform: scale(1);                }            }                    @keyframes slideRight {                0% {                    opacity: 0;                    transform: translateX(30px);                }                100% {                    opacity: 1;                    transform: translateX(0);                }            }                    @keyframes floating {                0% {                    opacity: 1;                    transform: translateY(0px);                }                50% {                    transform: translateY(-10px);                }                100% {                    opacity: 1;                    transform: translateY(0px);                }            }                    @keyframes slideLeft {                0% {                    opacity: 0;                    transform: translateX(-30px);                }                100% {                    opacity: 1;                    transform: translateX(0);                }            }                    @keyframes slideDown {                0% {                    opacity: 0;                    transform: translateY(-30px);                }                100% {                    opacity: 1;                    transform: translateY(0);                }            }                    @keyframes slideUp {                0% {                    opacity: 0;                    transform: translateY(30px);                }                100% {                    opacity: 1;                    transform: inherit;                }            }        </style><g id="freepik--Floor--inject-4" class="animable" style="transform-origin: 252.61px 347.39px;"><ellipse id="freepik--floor--inject-4" cx="252.61" cy="347.39" rx="236.94" ry="140.58" style="fill: rgb(245, 245, 245); transform-origin: 252.61px 347.39px;" class="animable"></ellipse></g><g id="freepik--Shadows--inject-4" class="animable" style="transform-origin: 261.283px 335.721px;"><ellipse id="freepik--Shadow--inject-4" cx="435.94" cy="370.25" rx="41.53" ry="23.98" style="fill: rgb(224, 224, 224); transform-origin: 435.94px 370.25px;" class="animable"></ellipse><path id="freepik--shadow--inject-4" d="M200.57,451.64,49.4,364.36c-5.74-3.32-5.74-8.74,0-12.06L278.92,219.81a9.51,9.51,0,0,1,8.6,0L447.9,312.4c.68.4.68,1,0,1.42L209.17,451.64A9.57,9.57,0,0,1,200.57,451.64Z" style="fill: rgb(224, 224, 224); transform-origin: 246.752px 335.721px;" class="animable"></path></g><g id="freepik--Clouds--inject-4" class="animable" style="transform-origin: 105.705px 70.5972px;"><g id="freepik--clouds--inject-4" class="animable" style="transform-origin: 105.705px 70.5972px;"><path d="M103.23,53.2l-9.41,5.43c0-.42.08-.84.08-1.25V54.66c0-4.86-3.41-6.82-7.61-4.4a14.77,14.77,0,0,0-4.54,4.36c-.69-6.1-5.48-8.37-11.29-5-6.29,3.63-11.39,12.46-11.39,19.72v4.08a10.65,10.65,0,0,0,1,4.72l-7.82,4.52A9.32,9.32,0,0,0,48,90c0,2.69,1.89,3.78,4.22,2.44l51-29.46a9.32,9.32,0,0,0,4.22-7.31C107.45,52.94,105.56,51.85,103.23,53.2Z" style="fill: rgb(235, 235, 235); transform-origin: 77.72px 70.5353px;" id="el3cz2pynw24t" class="animable"></path><path d="M160.23,63.12l-7.11,4.1a7.42,7.42,0,0,0,.06-.94v-2c0-3.67-2.57-5.15-5.74-3.32A11.14,11.14,0,0,0,144,64.2c-.52-4.6-4.13-6.32-8.52-3.79-4.74,2.74-8.59,9.41-8.59,14.89v3.08a8,8,0,0,0,.73,3.56l-5.9,3.41a7.06,7.06,0,0,0-3.19,5.52c0,2,1.43,2.85,3.19,1.84l38.5-22.23A7.07,7.07,0,0,0,163.41,65C163.41,62.93,162,62.11,160.23,63.12Z" style="fill: rgb(235, 235, 235); transform-origin: 140.97px 76.1891px;" id="elhldtio46r7q" class="animable"></path></g></g><g id="freepik--Plants--inject-4" class="animable" style="transform-origin: 47.4245px 313.303px;"><g id="freepik--plants--inject-4" class="animable" style="transform-origin: 47.4245px 313.303px;"><path d="M66.33,325.21s.74-17.56-5.74-32.3-17-24.94-27.83-27.53-21.34,6.13-10.66,14.93,30.49,19.17,36,46.68Z" style="fill: #407BFF; transform-origin: 42.0001px 295.953px;" id="el42q7kh4gylx" class="animable"></path><g id="els0flzie11h"><path d="M66.33,325.21s.74-17.56-5.74-32.3-17-24.94-27.83-27.53-21.34,6.13-10.66,14.93,30.49,19.17,36,46.68Z" style="opacity: 0.15; transform-origin: 42.0001px 295.953px;" class="animable" id="elrogctzvelhg"></path></g><path d="M63.81,320.22h.12a.6.6,0,0,0,.44-.72C57.24,289.08,37,273.67,27.3,269.78a.58.58,0,0,0-.77.33.6.6,0,0,0,.33.77c9.51,3.82,29.34,18.95,36.35,48.88A.6.6,0,0,0,63.81,320.22Z" style="fill: rgb(255, 255, 255); transform-origin: 45.4379px 294.977px;" id="elm9ywwzrmkw" class="animable"></path><path d="M46,352.16c1.65,5.32,5.67,8.22,11.12,9.28,3.47.67,9,0,12-2.17,4.08-3,5.46-5.2,6.31-8.15a49.38,49.38,0,0,0,1.77-12.06c.1-3-1.52-5.62-2.74-7.35a22.6,22.6,0,0,0-2.12-2.35c-.83-.89-1.76-1.66-2.64-2.49a9.56,9.56,0,0,1-2.8-4c-.68-2.21,0-4.59,0-6.9A10.56,10.56,0,0,0,58.77,306a48.74,48.74,0,0,0-6.91-1.22c-3.47-.32-7.21.69-10.59-.37s-6.31-2.78-9.77-3.44c-3.62-.69-7.64-.14-10.47,2.37a6.52,6.52,0,0,0-2.41,5.63c.38,2.32,2.36,4,4.24,5.4s3.93,2.92,4.55,5.18c1.24,4.56-4,9.14-2.55,13.64a7.38,7.38,0,0,0,4.1,4.09,47.72,47.72,0,0,0,4.65,1.68,18.69,18.69,0,0,0,2.31.42c2.27.26,4.66.78,6.37,2.43C45,344.36,44.89,348.59,46,352.16Z" style="fill: #407BFF; transform-origin: 47.9006px 331.192px;" id="el8y444gsacid" class="animable"></path><path d="M57.31,325a.68.68,0,0,0-.17-.21c-10.25-12.92-25.5-18.47-30.59-19.31a.54.54,0,0,0-.61.44.54.54,0,0,0,.44.61c4.82.79,19,5.91,29,17.71a29,29,0,0,0-23,3.35.52.52,0,0,0-.12.73.53.53,0,0,0,.44.22.57.57,0,0,0,.3-.1,28.12,28.12,0,0,1,23.58-2.77c.41.13,1.05,1.4,1.3,1.75.48.68.94,1.37,1.38,2.06a44.7,44.7,0,0,1,2.4,4.34,43.78,43.78,0,0,1,1.95,4.77c.22.63,1,4.51,1.48,4.55a.63.63,0,0,0,.59-.51c.32-1.36-.77-3.53-1.22-4.8a44.12,44.12,0,0,0-2-4.77A46.14,46.14,0,0,0,60,328.85c-.42-.67-.86-1.32-1.32-2A13.72,13.72,0,0,1,57.31,325Z" style="fill: rgb(255, 255, 255); transform-origin: 45.8361px 324.307px;" id="elqu03ghccv6a" class="animable"></path></g></g><g id="freepik--Device--inject-4" class="animable" style="transform-origin: 245.479px 232.618px;"><g id="freepik--Laptop--inject-4" class="animable" style="transform-origin: 245.479px 232.618px;"><path d="M62.88,357.26c0,3.49,2.6,7.82,5.82,9.68l126.85,73.25a12.88,12.88,0,0,0,11.66,0l223.37-129c3.22-1.85,5.83-6.19,5.83-9.67s-2.61-7.82-5.83-9.68L303.73,218.62a12.86,12.86,0,0,0-11.65,0L68.7,347.58C65.48,349.44,62.87,353.77,62.88,357.26Z" style="fill: rgb(55, 71, 79); transform-origin: 249.645px 329.405px;" id="el2k13fsgf962" class="animable"></path><path d="M68.7,354.31l126.85,73.26a12.94,12.94,0,0,0,11.66,0l223.37-129c3.22-1.86,3.22-4.87,0-6.73L303.73,218.62a12.86,12.86,0,0,0-11.65,0L68.7,347.58C65.48,349.44,65.48,352.45,68.7,354.31Z" style="fill: rgb(69, 90, 100); transform-origin: 249.64px 323.091px;" id="el7ie55sjwws" class="animable"></path><path d="M201.38,429v12.61a11.84,11.84,0,0,1-5.82-1.39L68.7,366.94c-3.22-1.86-5.83-6.19-5.83-9.68,0-3.27,2.3-7.28,5.24-9.3-2.61,1.87-2.41,4.62.59,6.35l126.86,73.26A11.85,11.85,0,0,0,201.38,429Z" style="fill: rgb(38, 50, 56); transform-origin: 132.125px 394.786px;" id="el39h7rbrhk79" class="animable"></path><path d="M57.41,347.79c-3-1.74-2.85-4.68-2.85-8.4V164.18a12.89,12.89,0,0,1,5.83-10.1l223.37-129c3.22-1.86,8.28-1.95,11.3-.21s2.85,4.69,2.85,8.4V208.53a12.9,12.9,0,0,1-5.82,10.09L68.7,347.58C65.48,349.44,60.43,349.54,57.41,347.79Z" style="fill: rgb(55, 71, 79); transform-origin: 176.235px 186.332px;" id="elrr12ovacyt8" class="animable"></path><path d="M297.9,33.31c0-3.71-2.61-5.21-5.82-3.37L68.7,158.92a11.85,11.85,0,0,0-4.12,4.35l-8.31-4.83h0a11.88,11.88,0,0,1,4.12-4.36l223.37-129C287,23.26,292,23.17,295,24.91S297.9,29.6,297.9,33.31Z" style="fill: rgb(69, 90, 100); transform-origin: 177.085px 93.4641px;" id="el3ntl1lbym1u" class="animable"></path><path d="M68,347.94c-3.21,1.5-7.79,1.48-10.6-.15-3-1.74-2.85-4.68-2.85-8.4V164.17a11.68,11.68,0,0,1,1.71-5.73l8.31,4.81v0A11.92,11.92,0,0,0,62.87,169V344.22C62.87,347.67,65.12,349.21,68,347.94Z" style="fill: rgb(38, 50, 56); transform-origin: 61.2744px 253.74px;" id="eln85zxzmy2ub" class="animable"></path><path d="M71.84,165.63,287.2,41.33c1.93-1.12,3.49-.21,3.49,2v158a7.71,7.71,0,0,1-3.49,6L71.84,331.66c-1.94,1.11-3.5.21-3.5-2V171.69A7.72,7.72,0,0,1,71.84,165.63Z" style="fill: #407BFF; transform-origin: 179.515px 186.493px;" id="ela34ll6joaq" class="animable"></path><g id="elzxjgmlk9ol"><path d="M71.84,165.63,287.2,41.33c1.93-1.12,3.49-.21,3.49,2v158a7.71,7.71,0,0,1-3.49,6L71.84,331.66c-1.94,1.11-3.5.21-3.5-2V171.69A7.72,7.72,0,0,1,71.84,165.63Z" style="opacity: 0.3; transform-origin: 179.515px 186.493px;" class="animable" id="elizu9qrlr5yn"></path></g><path d="M84.82,347.93,292.16,228.22a6.44,6.44,0,0,1,5.83,0l3.45,1.9c1.61.93,1.61,2.43,0,3.36L94.07,353.17a6.42,6.42,0,0,1-5.82,0l-3.42-1.88C83.22,350.36,83.22,348.86,84.82,347.93Z" style="fill: rgb(38, 50, 56); transform-origin: 193.134px 290.695px;" id="elrd91gr4nhbi" class="animable"></path><path d="M101.09,357.6,308.42,237.89a6,6,0,0,1,5.33-.29l54,31.16c1.33.77,1.1,2.15-.51,3.07L160.12,391.38a6,6,0,0,1-5.33.3l-54.2-31C99.26,359.9,99.48,358.53,101.09,357.6Z" style="fill: rgb(38, 50, 56); transform-origin: 234.168px 314.638px;" id="eltthd4drafts" class="animable"></path><path d="M280.75,288.17l6.49-3.75c.28-.16.3-.4.06-.54l-6.22-3.59a1.07,1.07,0,0,0-.94,0l-6.49,3.75c-.28.16-.3.41-.06.55l6.21,3.58A1.06,1.06,0,0,0,280.75,288.17Zm-9.48-13L264.78,279c-.28.16-.3.4-.06.54l6.21,3.59a1.06,1.06,0,0,0,.95,0l6.49-3.75c.27-.16.3-.4.05-.54l-6.21-3.59A1,1,0,0,0,271.27,275.2Zm-21,12.11-11,6.34c-.28.16-.3.41-.06.55l6.22,3.58a1,1,0,0,0,.94,0l11-6.34c.28-.16.3-.4.06-.55l-6.21-3.58A1,1,0,0,0,250.3,287.31Zm11.48-6.63-6.49,3.75c-.28.16-.3.4-.06.54l6.21,3.59a1.06,1.06,0,0,0,.95,0l6.49-3.75c.28-.16.3-.4.06-.55l-6.22-3.58A1,1,0,0,0,261.78,280.68Zm-25.47,14.7-6.49,3.75c-.27.16-.3.4,0,.55l6.21,3.58a1,1,0,0,0,.94,0l6.49-3.75c.28-.16.3-.4.06-.54l-6.21-3.59A1.06,1.06,0,0,0,236.31,295.38Zm-9.48,5.48-6.5,3.75c-.27.16-.3.4-.05.54l6.21,3.59a1,1,0,0,0,.94,0l6.49-3.75c.28-.16.3-.4.06-.54l-6.21-3.59A1,1,0,0,0,226.83,300.86Zm24.34,14.63,6.49-3.75c.28-.15.3-.4.06-.54l-6.21-3.59a1.06,1.06,0,0,0-.95,0l-6.49,3.74c-.27.16-.3.41,0,.55l6.21,3.59A1,1,0,0,0,251.17,315.49ZM241.68,321l6.49-3.75c.28-.16.3-.4.06-.54L242,313.09a1.07,1.07,0,0,0-.94,0l-6.5,3.75c-.27.16-.3.41-.05.55l6.21,3.58A1,1,0,0,0,241.68,321Zm-9.49,5.48,6.49-3.75c.28-.16.31-.4.06-.54l-6.21-3.59a1,1,0,0,0-.94,0l-6.49,3.75c-.28.16-.31.4-.06.55l6.21,3.58A1,1,0,0,0,232.19,326.45Zm-9.48,5.48,6.49-3.75c.27-.16.3-.4.05-.55L223,324.05a1,1,0,0,0-.94,0l-6.49,3.75c-.28.16-.3.4-.06.54l6.21,3.59A1.06,1.06,0,0,0,222.71,331.93Zm48.55-38.28,6.49-3.75c.28-.16.3-.4.06-.54l-6.21-3.59a1.06,1.06,0,0,0-1,0l-6.49,3.75c-.27.16-.3.4-.05.55l6.21,3.58A1,1,0,0,0,271.26,293.65ZM260.66,310l14.48-8.37c.27-.16.3-.4.05-.54l-15.08-8.71a1,1,0,0,0-.94,0l-7.49,4.33c-.28.16-.3.4-.06.54l8,4.61c.24.14.22.39-.06.55l-6,3.46c-.28.16-.3.4-.06.54l6.21,3.59A1.1,1.1,0,0,0,260.66,310Zm-43.32-3.68-6.49,3.75c-.28.16-.3.4-.06.54l6.21,3.59a1.07,1.07,0,0,0,.94,0l6.5-3.75c.27-.16.3-.41.05-.55l-6.21-3.58A1,1,0,0,0,217.34,306.34Zm-9.49,5.48-6.49,3.75c-.28.15-.3.4-.06.54l6.21,3.59a1.06,1.06,0,0,0,1,0l6.49-3.74c.27-.16.3-.41.05-.55l-6.21-3.58A1,1,0,0,0,207.85,311.82Zm-52.5,58.48a1,1,0,0,0,.94,0l6.49-3.75c.28-.16.3-.4.06-.54l-6.21-3.59a1.06,1.06,0,0,0-.95,0l-6.49,3.74c-.27.16-.3.41-.05.55ZM132,355.64l-6.5,3.75c-.27.16-.3.4,0,.54l6.21,3.59a1,1,0,0,0,.94,0l6.49-3.75c.28-.16.3-.4.06-.55l-6.21-3.58A1,1,0,0,0,132,355.64Zm12,11a1,1,0,0,0,.94,0l6.49-3.75c.28-.16.3-.4.06-.54l-6.21-3.59a1.1,1.1,0,0,0-.95,0l-6.49,3.75c-.27.16-.3.41,0,.55Zm26.18,5.89,6.49-3.75c.27-.16.3-.4,0-.54l-6.21-3.59a1,1,0,0,0-.94,0l-6.49,3.74c-.28.16-.3.41-.06.55l6.21,3.58A1.06,1.06,0,0,0,170.16,372.51ZM159.72,378a1.06,1.06,0,0,0,.95,0l6.49-3.75c.27-.16.3-.4.06-.54L161,370.11a1,1,0,0,0-.94,0l-6.49,3.75c-.28.16-.3.4-.06.55Zm-18.29-27.86-6.49,3.75c-.27.16-.3.4-.05.55L141.1,358a1,1,0,0,0,.94,0l6.49-3.75c.28-.16.3-.4.06-.54l-6.21-3.59A1.06,1.06,0,0,0,141.43,350.16Zm47.44-27.39-6.49,3.75c-.27.16-.3.4,0,.55l6.21,3.58a1,1,0,0,0,.94,0l6.49-3.75c.28-.16.3-.4.06-.54l-6.21-3.59A1.06,1.06,0,0,0,188.87,322.77Zm-38,21.92-6.49,3.74c-.28.16-.3.41-.06.55l6.22,3.58a1,1,0,0,0,.94,0l6.49-3.75c.28-.16.3-.4.06-.54l-6.21-3.59A1.06,1.06,0,0,0,150.92,344.69Zm47.44-27.39L191.87,321c-.28.16-.3.41-.06.55l6.21,3.58a1,1,0,0,0,.95,0l6.49-3.75c.28-.16.3-.4.06-.54l-6.21-3.59A1.06,1.06,0,0,0,198.36,317.3Zm-19,10.95-6.5,3.75c-.27.16-.3.4,0,.54l6.21,3.59a1,1,0,0,0,.94,0l6.49-3.75c.28-.16.31-.4.06-.55l-6.21-3.58A1,1,0,0,0,179.39,328.25Zm-9.49,5.48-6.49,3.75c-.28.16-.3.4-.06.54l6.21,3.59a1,1,0,0,0,.94,0l6.5-3.74c.27-.16.3-.41.05-.55l-6.21-3.58A1,1,0,0,0,169.9,333.73Zm-9.49,5.48L153.92,343c-.28.16-.3.41-.06.55l6.21,3.59a1.06,1.06,0,0,0,1,0l6.49-3.75c.27-.15.3-.4.05-.54l-6.21-3.59A1,1,0,0,0,160.41,339.21Zm43.32,3.67,6.49-3.75c.28-.15.3-.4.06-.54L204.07,335a1.06,1.06,0,0,0-.95,0l-6.49,3.74c-.27.16-.3.41,0,.55l6.21,3.58A1,1,0,0,0,203.73,342.88Zm88.51-79.79-6.49,3.75c-.27.16-.3.4-.05.55l6.21,3.58a1,1,0,0,0,.94,0l6.49-3.75c.28-.16.3-.4.06-.54l-6.21-3.59A1.06,1.06,0,0,0,292.24,263.09Zm-11.48,6.63-6.49,3.75c-.28.16-.3.41-.06.55l6.21,3.58a1,1,0,0,0,.94,0l6.5-3.75c.27-.16.3-.4.05-.54l-6.21-3.59A1.07,1.07,0,0,0,280.76,269.72Zm21-12.1-6.49,3.74c-.28.16-.3.41-.06.55l6.21,3.58a1.06,1.06,0,0,0,.95,0l6.49-3.75c.27-.16.3-.4.05-.54l-6.21-3.59A1,1,0,0,0,301.73,257.62Zm-52.44,48.71,6.49-3.74c.28-.16.3-.41.06-.55l-6.21-3.58a1,1,0,0,0-.95,0l-6.49,3.75c-.28.16-.3.4-.06.54l6.21,3.59A1.06,1.06,0,0,0,249.29,306.33Zm62.87-54.22a1,1,0,0,0-.94,0l-6.49,3.75c-.28.15-.3.4-.06.54l6.21,3.59a1,1,0,0,0,.94,0l6.5-3.74c.27-.16.3-.41.05-.55ZM213.22,337.4l6.49-3.74c.27-.16.3-.41,0-.55l-6.21-3.58a1,1,0,0,0-.94,0l-6.49,3.75c-.28.16-.3.4-.06.54l6.21,3.59A1.06,1.06,0,0,0,213.22,337.4Zm116.35-67.17,6.49-3.75c.28-.16.3-.4.06-.54l-6.21-3.59a1.06,1.06,0,0,0-1,0l-6.49,3.75c-.27.16-.3.4-.05.55l6.21,3.58A1,1,0,0,0,329.57,270.23Zm-18.36.35,6.49-3.74c.28-.16.3-.41.06-.55l-6.21-3.58a1,1,0,0,0-.95,0l-6.49,3.75c-.27.16-.3.4-.05.54l6.21,3.59A1,1,0,0,0,311.21,270.58ZM321,257.23a1,1,0,0,0-.94,0L313.6,261c-.28.16-.3.4-.06.54l6.21,3.59a1.1,1.1,0,0,0,.95,0l6.49-3.75c.27-.16.3-.41.05-.55Zm2-1.16,15.08,8.71a1.06,1.06,0,0,0,.95,0l6.49-3.75c.28-.16.3-.4.06-.54l-15.09-8.71a1,1,0,0,0-.94,0l-6.49,3.75C322.81,255.69,322.79,255.93,323,256.07Zm-21.91,12.15-6.5,3.74c-.27.16-.3.41-.05.55l6.21,3.58a1,1,0,0,0,.94,0l6.49-3.75c.28-.16.3-.4.06-.54l-6.21-3.59A1,1,0,0,0,301.12,268.22Zm-71.41,41.22-6.5,3.75c-.27.16-.3.41-.05.55l6.21,3.58a1,1,0,0,0,.94,0l6.49-3.75c.28-.16.3-.4.06-.54l-6.21-3.59A1,1,0,0,0,229.71,309.44Zm89.43-33.7a1,1,0,0,0,.94,0l6.49-3.75c.28-.16.3-.4.06-.55l-6.21-3.58a1,1,0,0,0-.94,0l-6.5,3.75c-.27.16-.3.4-.05.54ZM239.19,304l-6.49,3.74c-.27.16-.3.41,0,.55l6.21,3.58a1,1,0,0,0,.94,0l6.49-3.75c.28-.16.3-.4.06-.54l-6.21-3.59A1.06,1.06,0,0,0,239.19,304Zm-74.36,60.86a1.06,1.06,0,0,0,.95,0l6.49-3.74c.27-.16.3-.41,0-.55l-6.21-3.58a1,1,0,0,0-.94,0l-6.49,3.75c-.28.16-.3.4-.06.54Zm-11-11.56L147.31,357c-.28.15-.3.4-.06.54l6.22,3.59a1,1,0,0,0,.94,0l6.49-3.74c.28-.16.3-.41.06-.55l-6.21-3.59A1.06,1.06,0,0,0,153.8,353.27Zm21.47,6.05,6.49-3.75c.27-.16.3-.41.05-.55l-6.21-3.58a1,1,0,0,0-.94,0l-6.49,3.75c-.28.16-.3.4-.06.54l6.21,3.59A1.06,1.06,0,0,0,175.27,359.32Zm9.48-5.48,6.49-3.75c.28-.16.31-.4.06-.54L185.09,346a1,1,0,0,0-.94,0l-6.49,3.75c-.28.16-.31.4-.06.54l6.21,3.59A1,1,0,0,0,184.75,353.84Zm9.49-5.48,6.49-3.75c.28-.16.3-.4.06-.54l-6.21-3.59a1.06,1.06,0,0,0-1,0l-6.49,3.75c-.27.16-.3.41,0,.55l6.21,3.58A1,1,0,0,0,194.24,348.36Zm-31-.57-6.49,3.75c-.28.16-.3.4-.06.54l6.21,3.59a1.06,1.06,0,0,0,1,0l6.49-3.74c.27-.16.3-.41.05-.55l-6.21-3.58A1,1,0,0,0,163.29,347.79Zm9.49-5.48-6.49,3.75c-.28.16-.3.4-.06.54l6.21,3.59a1,1,0,0,0,.94,0l6.5-3.75c.27-.16.3-.4.05-.55l-6.21-3.58A1,1,0,0,0,172.78,342.31Zm37.95-21.91-6.49,3.75c-.28.16-.3.4-.06.54l6.21,3.59a1.1,1.1,0,0,0,1,0l6.49-3.75c.27-.16.3-.41,0-.55l-6.21-3.58A1,1,0,0,0,210.73,320.4Zm-9.49,5.48-6.49,3.75c-.28.15-.3.4-.06.54l6.21,3.59a1.06,1.06,0,0,0,.95,0l6.49-3.74c.28-.16.3-.41.06-.55l-6.22-3.58A1,1,0,0,0,201.24,325.88Zm19-11-6.49,3.75c-.28.16-.3.4-.06.54l6.21,3.59a1,1,0,0,0,.94,0l6.5-3.75c.27-.16.3-.4.05-.54l-6.21-3.59A1,1,0,0,0,220.22,314.92Zm-37.95,21.91-6.5,3.75c-.27.16-.3.4-.05.55l6.21,3.58a1,1,0,0,0,.94,0l6.49-3.75c.28-.16.3-.4.06-.54l-6.21-3.59A1,1,0,0,0,182.27,336.83Zm9.48-5.47-6.49,3.74c-.27.16-.3.41,0,.55l6.21,3.58a1,1,0,0,0,.94,0l6.49-3.75c.28-.16.3-.4.06-.54l-6.21-3.59A1.06,1.06,0,0,0,191.75,331.36ZM179.64,367l6.5-3.74c.27-.16.3-.41.05-.55L180,359.16a1,1,0,0,0-.94,0l-6.49,3.75c-.28.15-.31.4-.06.54l6.21,3.59A1,1,0,0,0,179.64,367Zm-50-2.36-6.21-3.58a1,1,0,0,0-.94,0L116,364.87c-.28.16-.3.4-.06.54l6.21,3.59a1,1,0,0,0,.94,0l6.5-3.74C129.83,365.06,129.86,364.81,129.61,364.67ZM142,367.78l-6.21-3.59a1,1,0,0,0-.94,0l-10,5.77c-.28.16-.3.4-.06.54l6.21,3.59a1.06,1.06,0,0,0,.95,0l10-5.77C142.2,368.16,142.22,367.92,142,367.78Zm-21.64-10.19L114.13,354a1,1,0,0,0-.94,0l-8,4.61c-.28.16-.3.4-.06.54l6.21,3.59a1.06,1.06,0,0,0,1,0l8-4.62C120.56,358,120.59,357.73,120.34,357.59Zm6.13-3.54a1,1,0,0,0,.94,0l6.49-3.75c.28-.16.3-.4.06-.54l-6.21-3.59a1.06,1.06,0,0,0-1,0l-6.49,3.74c-.27.16-.3.41,0,.55Zm26.88,17.41-6.21-3.59a1,1,0,0,0-.94,0l-12.49,7.21c-.27.16-.3.4-.05.55l6.21,3.58a1,1,0,0,0,.94,0L153.29,372C153.57,371.84,153.59,371.6,153.35,371.46Zm4.38,7.71-6.21-3.58a1.06,1.06,0,0,0-1,0l-8,4.61c-.27.16-.3.41-.05.55l6.21,3.58a1,1,0,0,0,.94,0l8-4.61C158,379.56,158,379.32,157.73,379.17ZM197,313.33a1,1,0,0,0,.94,0l6.5-3.75c.27-.15.3-.4.05-.54l-6.21-3.59a1,1,0,0,0-.94,0l-6.49,3.74c-.28.16-.3.41-.06.55Zm-19,10.95a1,1,0,0,0,.94,0l6.49-3.75c.28-.16.3-.4.06-.54l-6.21-3.59a1.06,1.06,0,0,0-.95,0l-6.49,3.75c-.28.16-.3.4-.06.55ZM136,348.58a1.06,1.06,0,0,0,1,0l6.49-3.74c.28-.16.3-.41.06-.55l-6.21-3.58a1,1,0,0,0-1,0l-6.49,3.75c-.28.15-.3.4-.06.54Zm51.57-29.78a1.06,1.06,0,0,0,.95,0L195,315c.27-.16.3-.4,0-.54l-6.21-3.59a1.07,1.07,0,0,0-.94,0l-6.49,3.75c-.28.16-.3.41-.06.55Zm-19,11a1,1,0,0,0,.94,0L176,326c.28-.16.3-.4.06-.55l-6.21-3.58a1.06,1.06,0,0,0-1,0l-6.49,3.75c-.27.16-.3.4,0,.54Zm-6.16,49.8a1.06,1.06,0,0,0-.95,0l-10,5.77c-.28.16-.3.4-.06.54l6.21,3.59a1,1,0,0,0,.94,0l10-5.76c.28-.16.3-.41.06-.55Zm-7.46-41.94a1,1,0,0,0,.94,0l6.5-3.75c.27-.16.3-.4,0-.54l-6.21-3.59a1,1,0,0,0-.94,0l-6.49,3.75c-.28.16-.3.4-.06.54Zm-9.49,5.48a1.06,1.06,0,0,0,.95,0l6.49-3.75c.27-.16.3-.41.05-.55l-6.21-3.58a1,1,0,0,0-.94,0L139.29,339c-.28.16-.3.4-.06.54Zm192.72-65a1,1,0,0,0-.94,0l-16,9.22c-.28.16-.3.4-.06.55l6.22,3.58a1,1,0,0,0,.94,0l16-9.23c.27-.16.3-.4.05-.54Zm-21,12.11a1,1,0,0,0-.94,0L309.76,294c-.28.16-.31.41-.06.55l6.21,3.58a1,1,0,0,0,.94,0l6.49-3.75c.28-.16.31-.4.06-.54ZM189.13,361.56l6.49-3.75c.28-.16.3-.41.06-.55l-6.21-3.58a1,1,0,0,0-.94,0l-6.5,3.75c-.27.16-.3.4-.05.54l6.21,3.59A1.07,1.07,0,0,0,189.13,361.56Zm109.08-60.42a1,1,0,0,0-.94,0l-6.49,3.75c-.28.16-.3.4-.06.54l6.21,3.59a1.06,1.06,0,0,0,.95,0l6.49-3.75c.27-.16.3-.41.05-.55Zm49.44-28.54a1,1,0,0,0-.94,0l-6.49,3.75c-.28.15-.3.4-.06.54l6.21,3.59a1,1,0,0,0,.94,0l6.5-3.74c.27-.16.3-.41.05-.55Zm15.7-1.9L348.27,262a1.06,1.06,0,0,0-.95,0l-6.49,3.75c-.27.15-.3.4-.05.54L355.86,275a1.07,1.07,0,0,0,.94,0l6.49-3.75C363.57,271.09,363.59,270.84,363.35,270.7ZM262.76,321.61a1,1,0,0,0-.94,0l-8,4.61c-.28.16-.3.41-.06.55l6.21,3.58a1,1,0,0,0,.94,0l8-4.61c.28-.16.3-.41.06-.55Zm24-13.84a1,1,0,0,0-.94,0l-10,5.77c-.28.16-.3.4-.06.54L282,317.7a1.1,1.1,0,0,0,.95,0l10-5.77c.28-.16.3-.4.06-.55Zm-45.94,26.52a1.06,1.06,0,0,0-.95,0l-53.43,30.84c-.27.16-.3.41,0,.55l6.21,3.58a1,1,0,0,0,.94,0l53.43-30.85c.28-.16.3-.4.06-.54Zm-56.43,32.58a1.07,1.07,0,0,0-.94,0l-8,4.62c-.28.16-.31.4-.06.54l6.21,3.59a1.07,1.07,0,0,0,.94,0l8-4.62c.28-.16.3-.4.06-.54ZM251.77,328a1,1,0,0,0-.94,0l-8,4.62c-.28.16-.3.4-.06.54l6.21,3.59a1.06,1.06,0,0,0,.95,0l8-4.61c.27-.16.3-.4.05-.54Zm-78.4,45.26a1,1,0,0,0-.94,0l-8,4.61c-.28.16-.3.4-.06.54l6.21,3.59a1.06,1.06,0,0,0,.95,0l8-4.61c.27-.16.3-.41.05-.55Zm100.37-57.94a1,1,0,0,0-.94,0l-8,4.61c-.27.16-.3.4-.05.54L271,324a1,1,0,0,0,.94,0l8-4.61c.28-.16.3-.41.06-.55Zm34-19.61a1,1,0,0,0-.94,0l-6.49,3.75c-.28.16-.3.4-.06.54l6.21,3.59a1,1,0,0,0,.94,0l6.5-3.75c.27-.16.3-.4.05-.54ZM329,280.83l6.5-3.75c.27-.16.3-.4.05-.54L329.29,273a1,1,0,0,0-.94,0l-6.49,3.75c-.28.16-.3.4-.06.55l6.21,3.58A1,1,0,0,0,329,280.83Zm-38.71,1.86,6.49-3.75c.27-.15.3-.4,0-.54l-6.21-3.59a1,1,0,0,0-.94,0l-6.49,3.74c-.28.16-.3.41-.06.55l6.21,3.58A1,1,0,0,0,290.24,282.69Zm-25.21,35,19-11c.28-.16.3-.41.06-.55l-6.21-3.58a1.06,1.06,0,0,0-.95,0l-19,10.95c-.28.16-.3.41-.06.55l6.21,3.58A1,1,0,0,0,265,317.73Zm53.49-31.39a1.06,1.06,0,0,0,1,0l6.49-3.75c.27-.16.3-.4.05-.55l-6.21-3.58a1,1,0,0,0-.94,0l-6.49,3.75c-.28.16-.3.4-.06.54Zm-7.93-5.16,6.5-3.74c.27-.16.3-.41.05-.55l-6.21-3.58a1,1,0,0,0-.94,0l-6.49,3.75c-.28.16-.31.4-.06.54l6.21,3.59A1,1,0,0,0,310.59,281.18Zm-55,42,6.49-3.75c.27-.16.3-.4,0-.54l-6.21-3.59a1,1,0,0,0-.94,0l-6.49,3.75c-.28.16-.3.41-.06.55l6.21,3.58A1.06,1.06,0,0,0,255.55,323.21Zm42-24.76a1.07,1.07,0,0,0,.94,0l6.49-3.75c.28-.16.3-.41.06-.55l-6.21-3.58a1,1,0,0,0-.94,0l-6.5,3.75c-.27.16-.3.4-.05.54ZM208.11,350.6l6.49-3.75c.27-.16.3-.4.05-.54l-6.21-3.59a1,1,0,0,0-.94,0L201,346.5c-.28.16-.3.4-.06.55l6.21,3.58A1.06,1.06,0,0,0,208.11,350.6Zm9.49-5.48,6.49-3.75c.27-.16.3-.4,0-.54l-6.21-3.59a1,1,0,0,0-.94,0L210.5,341c-.28.16-.3.41-.06.55l6.21,3.58A1,1,0,0,0,217.6,345.12Zm-19,11,6.49-3.75c.28-.16.3-.4.06-.55L199,348.2a1.06,1.06,0,0,0-1,0L191.52,352c-.27.16-.3.4-.05.54l6.21,3.59A1,1,0,0,0,198.62,356.08Zm37.95-21.91,6.49-3.75c.28-.16.3-.41.06-.55l-6.21-3.58a1.06,1.06,0,0,0-.95,0l-6.49,3.75c-.27.16-.3.4-.05.54l6.21,3.59A1.07,1.07,0,0,0,236.57,334.17Zm-9.49,5.47,6.49-3.74c.28-.16.31-.41.06-.55l-6.21-3.58a1,1,0,0,0-.94,0L220,335.55c-.28.16-.31.4-.06.54l6.21,3.59A1,1,0,0,0,227.08,339.64Zm19-10.95,6.49-3.75c.28-.16.3-.4.06-.54l-6.21-3.59a1.06,1.06,0,0,0-1,0L239,324.59c-.27.16-.3.4-.05.54l6.21,3.59A1,1,0,0,0,246.06,328.69Zm51.77-76.21a1.06,1.06,0,0,0,.95,0l6.49-3.75c.28-.16.3-.4.06-.54l-1.66-1a1,1,0,0,0-.94,0L296.24,251c-.28.16-.3.41-.06.55Zm-47.15,29.86a1,1,0,0,0,.94,0l6.49-3.75c.28-.16.3-.4.06-.54L252,274.43a1.06,1.06,0,0,0-1,0l-6.49,3.75c-.27.16-.3.4-.05.55Zm19-10.95a1.06,1.06,0,0,0,1,0l6.49-3.74c.27-.16.3-.41.05-.55l-6.21-3.59a1,1,0,0,0-.94,0l-6.49,3.75c-.28.15-.3.4-.06.54ZM239.09,289a1,1,0,0,0,.94,0l6.5-3.75c.27-.16.3-.4.05-.54l-6.21-3.59a1,1,0,0,0-.94,0l-6.49,3.75c-.28.16-.3.4-.06.54Zm21.07-12.17a1,1,0,0,0,.95,0l6.49-3.75c.27-.16.3-.4,0-.54L261.44,269a1,1,0,0,0-.94,0L254,272.73c-.28.16-.3.41-.06.55ZM220.11,300a1.06,1.06,0,0,0,.95,0l6.49-3.74c.28-.16.3-.41.06-.55l-6.21-3.58a1,1,0,0,0-1,0L214,295.86c-.28.16-.3.4-.06.54Zm9.49-5.48a1.1,1.1,0,0,0,1,0l6.49-3.75c.27-.16.3-.4.05-.55l-6.21-3.58a1,1,0,0,0-.94,0l-6.49,3.75c-.28.16-.3.4-.06.54Zm49.26-31.07a1,1,0,0,0,.94,0l6.49-3.75c.28-.16.3-.4.06-.55l-1.65-.95a1.06,1.06,0,0,0-.95,0l-6.49,3.75c-.27.16-.3.4-.05.54ZM307.32,247a1.06,1.06,0,0,0,.95,0l6.49-3.74c.27-.16.3-.41.05-.55l-1.65-1a1,1,0,0,0-.94,0l-6.49,3.75c-.28.16-.31.4-.06.54Zm13.05,7.53a1.07,1.07,0,0,0,.94,0l6.49-3.75c.28-.16.31-.41.06-.55l-6.21-3.58a1,1,0,0,0-.94,0l-6.5,3.75c-.27.16-.3.4,0,.54Zm18.07,20.81,6.49-3.75c.28-.16.31-.4.06-.54l-6.21-3.59a1.07,1.07,0,0,0-.94,0l-6.5,3.75c-.27.16-.3.41,0,.55l6.21,3.58A1,1,0,0,0,338.44,275.35ZM288.35,258a1,1,0,0,0,.94,0l6.49-3.75c.28-.16.3-.4.06-.54l-1.66-1a1,1,0,0,0-.94,0l-6.49,3.75c-.28.16-.3.41-.06.55Zm-77.72,47.5a1,1,0,0,0,.94,0l6.49-3.75c.28-.16.3-.4.06-.54l-6.21-3.59a1.06,1.06,0,0,0-.95,0l-6.49,3.74c-.27.16-.3.41-.05.55Z" style="fill: rgb(69, 90, 100); transform-origin: 234.24px 315.605px;" id="elk3mn9nlpsq" class="animable"></path><polygon points="238.71 354.4 240.04 355.17 275.39 375.57 338.26 339.27 339.57 338.53 302.89 317.35 238.71 354.4" style="fill: rgb(55, 71, 79); transform-origin: 289.14px 346.46px;" id="el0v8ucfc6e8kp" class="animable"></polygon><polygon points="240.04 355.17 275.39 375.57 338.26 339.27 302.89 318.86 240.04 355.17" style="fill: rgb(38, 50, 56); transform-origin: 289.15px 347.215px;" id="elz1js4qp285" class="animable"></polygon></g></g><g id="freepik--Window--inject-4" class="animable" style="transform-origin: 196.42px 195.667px;"><g id="freepik--window--inject-4" class="animable" style="transform-origin: 196.42px 195.667px;"><g id="freepik--window--inject-4" class="animable" style="transform-origin: 196.42px 195.667px;"><path d="M90.55,340.63a4.12,4.12,0,0,1-1.83.56,4.63,4.63,0,0,1-2.68-.47,5,5,0,0,1-2.19-4V207.37l4.38,2.53V339.28c0,1.06.53,1.67,1.29,1.67A2.25,2.25,0,0,0,90.55,340.63Z" style="fill: rgb(240, 240, 240); transform-origin: 87.2px 274.298px;" id="elup960ekd0xg" class="animable"></path><path d="M309,211.68a5.16,5.16,0,0,1-2.32,4L90.55,340.63c-1.28.74-2.33.14-2.33-1.35V194.74l6.42-3.7c1.28-.74,3.37-12,4.66-12.79l55.59-32.1c1.3-.74,4.33,7.6,5.61,6.86L309,67.13V211.68Z" style="fill: rgb(250, 250, 250); transform-origin: 198.61px 204.038px;" id="elmp8u3buf2bj" class="animable"></path><path d="M307.9,69V211.68a4.1,4.1,0,0,1-1.79,3.1L90,339.7a1,1,0,0,1-.5.17c-.21,0-.21-.56-.21-.59V195.36L95.18,192c.93-.54,1.51-2.35,2.81-7a34.61,34.61,0,0,1,1.93-5.82L155,147.32a25.13,25.13,0,0,1,1.75,2.8c1.5,2.64,2.34,4,3.56,4a1.38,1.38,0,0,0,.71-.19L307.9,69M155.43,147.08h0M100,179.1h0m209-112L160.5,153a.34.34,0,0,1-.17.05c-1.31,0-4-7-5.26-7a.41.41,0,0,0-.18.05L99.3,178.25C98,179,95.92,190.3,94.64,191l-6.42,3.7V339.28c0,1.06.53,1.67,1.29,1.67a2.1,2.1,0,0,0,1-.32l216.1-124.91a5.16,5.16,0,0,0,2.32-4V67.13Z" style="fill: rgb(224, 224, 224); transform-origin: 198.61px 204.025px;" id="elx09ctrprfy" class="animable"></path><path d="M86,201.91A5,5,0,0,1,83.85,198V179.77a5.15,5.15,0,0,1,2.34-4L302.27,50.81a4.38,4.38,0,0,1,6.7,3.87v18.2a5.13,5.13,0,0,1-2.32,4L90.55,201.83A5,5,0,0,1,86,201.91Z" style="fill: #407BFF; transform-origin: 196.411px 126.281px;" id="elkynqa3w4yd" class="animable"></path><g id="ele58m6vcidxv"><path d="M309,54.3c-.16-1.2-1.14-1.64-2.3-1L90.55,178.25A4.89,4.89,0,0,0,88.9,180l-4.37-2.53a4.78,4.78,0,0,1,1.65-1.74L302.28,50.82A4.34,4.34,0,0,1,309,54.3Z" style="fill: rgb(255, 255, 255); opacity: 0.4; transform-origin: 196.765px 115.054px;" class="animable" id="elu7gch8psskj"></path></g><g id="el9nrc9rtitxm"><path d="M88.9,180a4.73,4.73,0,0,0-.68,2.29V209.9l-4.38-2.53v-27.6c0-.1,0-.19,0-.28a4.71,4.71,0,0,1,.09-.58,5.15,5.15,0,0,1,.59-1.44Z" style="opacity: 0.1; transform-origin: 86.37px 193.685px;" class="animable" id="el5vwiu7crpt"></path></g><path d="M309,54.68V67.13L160.5,153c-1.28.74-2.32.14-2.32-1.35V147c0-1.49-1.05-2.09-2.34-1.35L99.3,178.25a5.15,5.15,0,0,0-2.34,4V187a5.15,5.15,0,0,1-2.32,4l-6.42,3.7V182.29a5.17,5.17,0,0,1,2.33-4L306.65,53.33C307.93,52.59,309,53.19,309,54.68Z" style="fill: #407BFF; transform-origin: 198.61px 123.857px;" id="eljnm3h1lc1nd" class="animable"></path><path d="M298.05,62.49c1.62-.94,2.93-.18,2.93,1.69a6.47,6.47,0,0,1-2.93,5.08c-1.62.94-2.94.18-2.94-1.69A6.48,6.48,0,0,1,298.05,62.49Z" style="fill: rgb(255, 255, 255); transform-origin: 298.045px 65.875px;" id="el4xtdi4cfon7" class="animable"></path><path d="M287.49,68.58c1.62-.94,2.93-.18,2.93,1.69a6.49,6.49,0,0,1-2.93,5.08c-1.62.93-2.93.18-2.93-1.69A6.47,6.47,0,0,1,287.49,68.58Z" style="fill: rgb(255, 255, 255); transform-origin: 287.49px 71.9628px;" id="elxy7umcqmu79" class="animable"></path><path d="M276.93,74.66c1.62-.93,2.93-.17,2.93,1.7a6.49,6.49,0,0,1-2.93,5.08c-1.62.93-2.93.17-2.93-1.7A6.49,6.49,0,0,1,276.93,74.66Z" style="fill: rgb(255, 255, 255); transform-origin: 276.93px 78.05px;" id="el60asd5zn4si" class="animable"></path><path d="M309,67.13V82.29L88.22,209.9V194.74L93,192c1.28-.75,1.71-1.88,2.33-4L97,182.29c.51-2,1.05-3.3,2.34-4l55.59-32.1c1.3-.74,2.3-.82,3.29.8l2,3.62c.73,1.26,1.1,2,2.38,1.26Z" style="fill: rgb(230, 230, 230); transform-origin: 198.61px 138.515px;" id="el7tlbsnygcf9" class="animable"></path><polygon points="88.22 194.74 88.22 209.9 83.84 207.37 83.84 192.22 88.22 194.74" style="fill: rgb(224, 224, 224); transform-origin: 86.03px 201.06px;" id="elb9cmz1mohgc" class="animable"></polygon><g id="elpi3ozbuloab"><path d="M98.91,195.83,95.25,198l1.4-2.69a.65.65,0,0,0,0-.65c-.1-.13-.29,0-.41.2l-2,3.81v0a.58.58,0,0,0,0,.14.08.08,0,0,0,0,0,.75.75,0,0,0,0,.2.43.43,0,0,0,0,.17l0,0a.22.22,0,0,0,0,.08h0l2,1.52a.17.17,0,0,0,.19,0,.53.53,0,0,0,.22-.28c.11-.25.1-.53,0-.62l-1.4-1.08,3.66-2.11a.78.78,0,0,0,.3-.62C99.21,195.87,99.07,195.74,98.91,195.83Z" style="opacity: 0.2; transform-origin: 96.7208px 197.708px;" class="animable" id="el6od03svskgl"></path></g><g id="el19n73r5pb61"><path d="M102,194.07l3.66-2.11-1.4-1.07a.61.61,0,0,1,0-.63c.11-.25.3-.37.42-.28l2,1.53h0a.22.22,0,0,1,0,.08l0,0a.79.79,0,0,1,0,.17,1.5,1.5,0,0,1,0,.2s0,0,0,0a.58.58,0,0,1,0,.14v0l-2,3.82a.62.62,0,0,1-.2.22.16.16,0,0,1-.22,0,.69.69,0,0,1,0-.65l1.4-2.69L102,195c-.17.09-.3,0-.3-.29A.75.75,0,0,1,102,194.07Z" style="opacity: 0.2; transform-origin: 104.192px 193.067px;" class="animable" id="el6u3okrwthm"></path></g><g id="el0rkrurukdgt"><path d="M114,183.53c0-.22-.22-.19-.31.05l-.51,1.23c-.85-.1-1.89.74-2.58,2.22-.91,1.92-.91,4.19,0,5.06a1.3,1.3,0,0,0,1.64.1,4.54,4.54,0,0,0,1.64-2,.6.6,0,0,0,0-.64c-.11-.11-.3,0-.41.24-.68,1.43-1.78,2.07-2.46,1.42s-.67-2.35,0-3.78c.48-1,1.18-1.62,1.78-1.66l-.38.92c-.1.24,0,.47.15.37l1.49-1a.52.52,0,0,0,.17-.41Z" style="opacity: 0.2; transform-origin: 112.069px 187.908px;" class="animable" id="elpxegidnw3jg"></path></g><g id="elstjt60kuiw"><path d="M153.29,153.07l1.33-2.82a.85.85,0,0,0,0-.88c-.15-.16-.41,0-.57.33l-1.33,2.82-1.33-1.28c-.16-.16-.42,0-.58.33a.88.88,0,0,0,0,.87l1.34,1.29-1.34,2.82a.9.9,0,0,0,0,.88.23.23,0,0,0,.29,0,.81.81,0,0,0,.29-.35l1.33-2.82,1.33,1.28a.22.22,0,0,0,.29,0,.8.8,0,0,0,.28-.35.85.85,0,0,0,0-.88Z" style="opacity: 0.2; transform-origin: 152.719px 153.394px;" class="animable" id="elatyqdkyurqr"></path></g><path d="M118.82,187v-4.72a5.18,5.18,0,0,1,2.33-4L293.53,78.63c1.29-.74,2.33-.14,2.33,1.35v4.71a5.14,5.14,0,0,1-2.33,4L121.15,188.35C119.87,189.09,118.82,188.49,118.82,187Z" style="fill: rgb(250, 250, 250); transform-origin: 207.34px 133.49px;" id="el01nxe2o7h69t" class="animable"></path><path d="M290.36,89.09a.46.46,0,0,1-.21,0,.62.62,0,0,1-.35-.7l.23-1.92-.9-.64a.69.69,0,0,1-.25-.52,1.06,1.06,0,0,1,.39-.82l1.37-1a.32.32,0,0,0,.06-.11l.61-2a.86.86,0,0,1,.69-.65.56.56,0,0,1,.54.32h0l.51,1.1,1.16-.45a.54.54,0,0,1,.61.14.84.84,0,0,1,0,1l-1,1.86a.36.36,0,0,0,0,.11l.23,1.68a1,1,0,0,1-.29.84.64.64,0,0,1-.54.21l-1.12-.14-1.21,1.54A.69.69,0,0,1,290.36,89.09Zm-.66-3.89.89.65a.63.63,0,0,1,.24.64l-.15,1.27.81-1a.7.7,0,0,1,.62-.29l1.11.14a.27.27,0,0,0,0-.13L293,84.77a1,1,0,0,1,.12-.6l.87-1.63-.89.34a.55.55,0,0,1-.71-.28l-.41-.86-.54,1.78a1,1,0,0,1-.34.51l-1.37,1.06A.29.29,0,0,0,289.7,85.2Zm2.31,2Zm-1.89-.74Zm1.69-5.2Z" style="fill: rgb(224, 224, 224); transform-origin: 291.933px 84.9156px;" id="elaxbathd6igd" class="animable"></path><g id="elvmclhrw9f6"><g style="opacity: 0.5; transform-origin: 301.879px 79.1449px;" class="animable" id="elpenff7h2m6g"><g id="el4me6bzuf2up"><path d="M298.61,78.06a.81.81,0,0,1-.7-.41.8.8,0,0,1,.29-1.1l6.56-3.78a.8.8,0,1,1,.81,1.39L299,78A.86.86,0,0,1,298.61,78.06Z" style="opacity: 0.2; transform-origin: 301.885px 75.361px;" class="animable" id="elx8fk9y0pek"></path></g><g id="el3l5eyatdl5t"><path d="M298.61,81.85a.81.81,0,0,1-.7-.41.8.8,0,0,1,.29-1.1l6.56-3.79a.81.81,0,0,1,.81,1.4L299,81.74A.86.86,0,0,1,298.61,81.85Z" style="opacity: 0.2; transform-origin: 301.867px 79.1564px;" class="animable" id="el2bers2r2yey"></path></g><g id="elyqpxz3pxd6"><path d="M298.61,85.63a.8.8,0,0,1-.41-1.5l6.56-3.79a.81.81,0,0,1,.81,1.4L299,85.53A.85.85,0,0,1,298.61,85.63Z" style="opacity: 0.2; transform-origin: 301.861px 82.9416px;" class="animable" id="el9zuexwgswu5"></path></g></g></g></g><g id="freepik--Shield--inject-4" class="animable" style="transform-origin: 195.268px 179.256px;"><g id="freepik--shield--inject-4" class="animable" style="transform-origin: 195.268px 179.256px;"><path d="M208.38,156.24c-4.59,4.12-8.55,3.9-11,2-2.48,4.76-6.44,9.55-11,10.73L183.72,176s1.4,1.62,1.4,5.48a19.26,19.26,0,0,1-.64,4.8,25.41,25.41,0,0,0-1.1,7.18,12.54,12.54,0,0,0,1.43,6.39,7.74,7.74,0,0,0,2.87,2.87l-4-2.29a8,8,0,0,1-3-3,12.54,12.54,0,0,1-1.43-6.39,25.35,25.35,0,0,1,1.1-7.18,19.32,19.32,0,0,0,.65-4.8c0-3.87-1.41-5.49-1.41-5.49l2.62-7.07c4.58-1.17,8.54-6,11-10.73,2.47,1.91,6.43,2.13,11-2Z" style="fill: #407BFF; transform-origin: 193.809px 178.245px;" id="elxgjqxbesqg" class="animable"></path><g id="elv9obhtdup4m"><path d="M194.68,156.69l-1.45-.84A6.31,6.31,0,0,0,194.68,156.69Z" style="fill: rgb(255, 255, 255); opacity: 0.8; transform-origin: 193.955px 156.27px;" class="animable" id="el78yoqink48w"></path></g><g id="elqeccv66iqj"><path d="M204.25,153.86c-3.77,3.39-7.12,3.84-9.57,2.83l2.68,1.55c2.47,1.9,6.43,2.12,11-2Z" style="fill: rgb(255, 255, 255); opacity: 0.85; transform-origin: 201.52px 156.704px;" class="animable" id="elseur30tamyr"></path></g><g id="eljw7pw4wxvp"><path d="M193.23,155.85c-2.48,4.77-6.44,9.56-11,10.73l4.13,2.39c4.58-1.18,8.54-6,11-10.73Z" style="fill: rgb(255, 255, 255); opacity: 0.65; transform-origin: 189.795px 162.41px;" class="animable" id="elm394iu1djh8"></path></g><g id="eljgxwj7ybgud"><polygon points="182.21 166.58 179.59 173.65 183.72 176.04 186.34 168.97 182.21 166.58" style="fill: rgb(255, 255, 255); opacity: 0.55; transform-origin: 182.965px 171.31px;" class="animable" id="eln7ml8zg2usi"></polygon></g><g id="elacbvwne87cf"><path d="M184.81,199.89a12.54,12.54,0,0,1-1.43-6.39,25.41,25.41,0,0,1,1.1-7.18,19.26,19.26,0,0,0,.64-4.8c0-3.86-1.4-5.48-1.4-5.48l-4.13-2.39s1.41,1.62,1.41,5.49a19.32,19.32,0,0,1-.65,4.8,25.35,25.35,0,0,0-1.1,7.18,12.54,12.54,0,0,0,1.43,6.39,8,8,0,0,0,3,3l4,2.29A7.74,7.74,0,0,1,184.81,199.89Z" style="fill: rgb(255, 255, 255); opacity: 0.4; transform-origin: 183.459px 188.225px;" class="animable" id="elanikopxi5xc"></path></g><g id="el0mmffa9kq1a"><path d="M184.81,199.89a12.54,12.54,0,0,1-1.43-6.39,25.41,25.41,0,0,1,1.1-7.18,19.26,19.26,0,0,0,.64-4.8c0-3.86-1.4-5.48-1.4-5.48l-4.13-2.39s1.41,1.62,1.41,5.49a19.32,19.32,0,0,1-.65,4.8,25.35,25.35,0,0,0-1.1,7.18,12.54,12.54,0,0,0,1.43,6.39,8,8,0,0,0,3,3l4,2.29A7.74,7.74,0,0,1,184.81,199.89Z" style="opacity: 0.05; transform-origin: 183.459px 188.225px;" class="animable" id="elm0576trpbg"></path></g><path d="M197.36,204.74c-6.85.07-10.77-1.74-12.55-4.85a12.54,12.54,0,0,1-1.43-6.39,25.41,25.41,0,0,1,1.1-7.18,19.24,19.24,0,0,0,.65-4.79c0-3.87-1.41-5.49-1.41-5.49l2.62-7.07c4.58-1.18,8.54-6,11-10.73,2.47,1.91,6.43,2.12,11-2l2.62,4a19.87,19.87,0,0,0-1.41,7.11,11.69,11.69,0,0,0,.65,4,14,14,0,0,1,1.09,5.92,23.71,23.71,0,0,1-1.42,8C208.13,190.57,204.21,196.9,197.36,204.74Z" style="fill: #407BFF; transform-origin: 197.333px 180.491px;" id="elwzce3su66xq" class="animable"></path><g id="el4n9pgqz6xa4"><path d="M197.36,204.74c-6.85.07-10.77-1.74-12.55-4.85a12.54,12.54,0,0,1-1.43-6.39,25.41,25.41,0,0,1,1.1-7.18,19.24,19.24,0,0,0,.65-4.79c0-3.87-1.41-5.49-1.41-5.49l2.62-7.07c4.58-1.18,8.54-6,11-10.73,2.47,1.91,6.43,2.12,11-2l2.62,4a19.87,19.87,0,0,0-1.41,7.11,11.69,11.69,0,0,0,.65,4,14,14,0,0,1,1.09,5.92,23.71,23.71,0,0,1-1.42,8C208.13,190.57,204.21,196.9,197.36,204.74Z" style="fill: rgb(255, 255, 255); opacity: 0.75; transform-origin: 197.333px 180.491px;" class="animable" id="elxdnaxepn9o"></path></g><path d="M196.55,203c-5.31-.07-8.74-1.39-10.2-4a10.7,10.7,0,0,1-1.19-5.51,21.92,21.92,0,0,1,.88-6.1c.05-.22.11-.43.16-.65a20.6,20.6,0,0,0,.7-5.22,12.12,12.12,0,0,0-1.21-5.69l2-5.43c4.91-1.7,8.46-6.55,10.34-9.73a8,8,0,0,0,3.2.65,11.47,11.47,0,0,0,6.72-2.46l1,1.64a22,22,0,0,0-1.2,6.89,13.41,13.41,0,0,0,.75,4.64c.06.15.12.31.17.47a11.72,11.72,0,0,1,.82,4.86,22,22,0,0,1-1.32,7.45C206.48,189.91,202.55,196,196.55,203Z" style="fill: #407BFF; transform-origin: 197.323px 180.93px;" id="elkstpujqrrm" class="animable"></path><g id="elonoekf4awbe"><path d="M196.55,203c-5.31-.07-8.74-1.39-10.2-4a10.7,10.7,0,0,1-1.19-5.51,21.92,21.92,0,0,1,.88-6.1c.05-.22.11-.43.16-.65a20.6,20.6,0,0,0,.7-5.22,12.12,12.12,0,0,0-1.21-5.69l2-5.43c4.91-1.7,8.46-6.55,10.34-9.73a8,8,0,0,0,3.2.65,11.47,11.47,0,0,0,6.72-2.46l1,1.64a22,22,0,0,0-1.2,6.89,13.41,13.41,0,0,0,.75,4.64c.06.15.12.31.17.47a11.72,11.72,0,0,1,.82,4.86,22,22,0,0,1-1.32,7.45C206.48,189.91,202.55,196,196.55,203Z" style="fill: rgb(255, 255, 255); opacity: 0.4; transform-origin: 197.323px 180.93px;" class="animable" id="el9q5w31x3ls"></path></g><g id="elorr40dssl5m"><path d="M196.55,203c-5.31-.07-8.74-1.39-10.2-4a10.7,10.7,0,0,1-1.19-5.51,21.92,21.92,0,0,1,.88-6.1c.05-.22.11-.43.16-.65a20.6,20.6,0,0,0,.7-5.22,12.12,12.12,0,0,0-1.21-5.69l2-5.43c4.91-1.7,8.46-6.55,10.34-9.73a8,8,0,0,0,3.2.65,11.47,11.47,0,0,0,6.72-2.46l1,1.64a22,22,0,0,0-1.2,6.89,13.41,13.41,0,0,0,.75,4.64c.06.15.12.31.17.47a11.72,11.72,0,0,1,.82,4.86,22,22,0,0,1-1.32,7.45C206.48,189.91,202.55,196,196.55,203Z" style="opacity: 0.15; transform-origin: 197.323px 180.93px;" class="animable" id="el2g2oa9q6lzv"></path></g><g id="elxejxlhbnck"><path d="M187.57,200.48c1.81,1.59,4.81,2.43,9,2.48l-2.66-1.52A19.35,19.35,0,0,1,187.57,200.48Z" style="fill: rgb(255, 255, 255); opacity: 0.8; transform-origin: 192.07px 201.72px;" class="animable" id="eltayxdskxoxr"></path></g><g id="elxo53k7psonr"><polygon points="207.63 159.71 209.01 160.5 207.96 158.87 207.36 159.29 207.63 159.71" style="opacity: 0.15; transform-origin: 208.185px 159.685px;" class="animable" id="elne5c2m831m"></polygon></g><path d="M207.18,171.24a13.41,13.41,0,0,1-.75-4.64,21.74,21.74,0,0,1,1.2-6.89l-.27-.42a11.12,11.12,0,0,1-6.12,2,8,8,0,0,1-3.2-.65c-1.88,3.18-5.43,8-10.34,9.73l-2,5.43a12.12,12.12,0,0,1,1.21,5.69,20.6,20.6,0,0,1-.7,5.22c0,.22-.11.43-.16.65a21.92,21.92,0,0,0-.88,6.1,10.7,10.7,0,0,0,1.19,5.51,6.05,6.05,0,0,0,1.73,1.88,17.87,17.87,0,0,0,7.08,1.27c6-6.95,9.93-13,11.68-18.14a22,22,0,0,0,1.33-7.45,11.89,11.89,0,0,0-.82-4.86C207.29,171.55,207.23,171.39,207.18,171.24Z" style="fill: rgb(69, 90, 100); transform-origin: 196.672px 180.708px;" id="elj61zdqcc7a" class="animable"></path><path d="M187.7,170.41l-2,5.43a12.12,12.12,0,0,1,1.21,5.69,20.6,20.6,0,0,1-.7,5.22c0,.22-.11.43-.16.65a21.92,21.92,0,0,0-.88,6.1,10.7,10.7,0,0,0,1.19,5.51,6.05,6.05,0,0,0,1.73,1.88,17.87,17.87,0,0,0,7.08,1.27v-20l2.88-.87V160.68a32.06,32.06,0,0,1-2.88,4.11A17.6,17.6,0,0,1,187.7,170.41Z" style="fill: rgb(55, 71, 79); transform-origin: 191.602px 181.423px;" id="el58yl277x4jw" class="animable"></path></g><path id="freepik--shadow--inject-4" d="M202.1,174.77a.91.91,0,0,0-.11-.16l0,0a1.18,1.18,0,0,0-.29-.23l-1-.56a2.25,2.25,0,0,0-.55-.21l-.35-.05v-2.85a3.4,3.4,0,0,0-1.48-3.1,3,3,0,0,0-3.13.2,8.22,8.22,0,0,0-3.66,6.59v3.36l-1.92,1.1-.16.11-.05,0h0a.71.71,0,0,0-.27.53v11.52a.77.77,0,0,0,0,.15.89.89,0,0,0,.37.47l.1.07.47.27.5.28a1.78,1.78,0,0,0,.61.22,2.59,2.59,0,0,0,1.75-.22l8.73-5a.84.84,0,0,0,.49-.68V175A.68.68,0,0,0,202.1,174.77Zm-8.68-.39a6.37,6.37,0,0,1,2.72-5,1.33,1.33,0,0,1,1.24-.2,1.67,1.67,0,0,1,.54,1.47v3.36l-2.48,1.43-2,1.17Z" style="fill: rgb(38, 50, 56); transform-origin: 195.638px 179.903px;" class="animable"></path><g id="freepik--Padlock--inject-4" class="animable" style="transform-origin: 196.653px 180.416px;"><path d="M203.18,175.55a.82.82,0,0,0-.49-.68l-1-.56a2.65,2.65,0,0,0-2.36,0l-8.73,5a.83.83,0,0,0-.49.68h0v11.53h0a.82.82,0,0,0,.49.68l1,.56a2.61,2.61,0,0,0,2.37,0l8.72-5a.82.82,0,0,0,.49-.68h0V175.55Z" style="fill: #407BFF; transform-origin: 196.645px 183.539px;" id="eln7vi88fwdyo" class="animable"></path><g id="elxkr4k06nxba"><path d="M191.6,181.27l-1-.55a.73.73,0,0,1,0-1.37l8.73-5a2.65,2.65,0,0,1,2.36,0l1,.56a.71.71,0,0,1,0,1.36l-8.72,5A2.61,2.61,0,0,1,191.6,181.27Z" style="fill: rgb(255, 255, 255); opacity: 0.4; transform-origin: 196.659px 177.814px;" class="animable" id="elyunm9n7x7cr"></path></g><g id="el7wzi297857g"><path d="M192.79,181.55v11.53a2.43,2.43,0,0,1-1.19-.28l-1-.56a.81.81,0,0,1-.49-.68V180a.83.83,0,0,0,.49.69l1,.55A2.43,2.43,0,0,0,192.79,181.55Z" style="opacity: 0.1; transform-origin: 191.45px 186.54px;" class="animable" id="elv00pffc4pc"></path></g><path d="M199.14,187.26l-2.09,1.2.32-3.77a1,1,0,0,1-.4-.92,2.71,2.71,0,0,1,1.12-2.16c.63-.35,1.13,0,1.13.86a2.83,2.83,0,0,1-.41,1.39Z" style="fill: rgb(69, 90, 100); transform-origin: 198.092px 184.968px;" id="elolcm1aepnol" class="animable"></path><polygon points="199.14 187.26 197.25 186.17 197.05 188.46 199.14 187.26" style="fill: rgb(55, 71, 79); transform-origin: 198.095px 187.315px;" id="elwmrmhmp7cbh" class="animable"></polygon><path d="M198.09,181.61a2.52,2.52,0,0,0-1,1.28l1.68,1h0a2.83,2.83,0,0,0,.41-1.39C199.22,181.64,198.72,181.26,198.09,181.61Z" style="fill: rgb(55, 71, 79); transform-origin: 198.136px 182.685px;" id="elolszdyjemye" class="animable"></path><path d="M200.82,175.81h0V171.2a3.38,3.38,0,0,0-1.48-3.1,3,3,0,0,0-3.12.19,8.22,8.22,0,0,0-3.67,6.59v4.64h0a.47.47,0,0,0,.28.38,1.48,1.48,0,0,0,1.33,0,.45.45,0,0,0,.28-.38h0v-4.64a6.37,6.37,0,0,1,2.72-4.95,1.33,1.33,0,0,1,1.24-.2,1.66,1.66,0,0,1,.54,1.47v4.61h0a.45.45,0,0,0,.28.38,1.48,1.48,0,0,0,1.33,0,.45.45,0,0,0,.27-.38Z" style="fill: rgb(224, 224, 224); transform-origin: 196.691px 173.904px;" id="elp4ey006qmfb" class="animable"></path></g></g><path d="M129.34,253c.13-.07.23-.08.3,0a.69.69,0,0,1,.14.25l2.12,8.23a.58.58,0,0,1,0,.2.66.66,0,0,1-.06.27.35.35,0,0,1-.15.18l-1.23.71c-.13.08-.22.09-.28,0a.32.32,0,0,1-.1-.18l-.27-1.09L127.26,263l-.28,1.41a.81.81,0,0,1-.1.3.6.6,0,0,1-.28.29l-1.22.71a.13.13,0,0,1-.16,0,.28.28,0,0,1-.06-.2,1,1,0,0,1,0-.24l2.12-10.68a2.07,2.07,0,0,1,.15-.41.69.69,0,0,1,.29-.34Zm-1.58,7.47,1.58-.91-.79-3.15Z" style="fill: rgb(69, 90, 100); transform-origin: 128.531px 259.341px;" id="el18qjt5xemhl" class="animable"></path><path d="M133,254a.8.8,0,0,1,.08-.33.5.5,0,0,1,.19-.23l1.23-.71a.14.14,0,0,1,.18,0,.33.33,0,0,1,.08.24v3.79a1.81,1.81,0,0,0,.18.93c.13.19.33.2.62,0a1.37,1.37,0,0,0,.61-.74,3.33,3.33,0,0,0,.18-1.14V252a.78.78,0,0,1,.07-.33.57.57,0,0,1,.19-.23l1.23-.71a.14.14,0,0,1,.18,0,.33.33,0,0,1,.08.24v7a.8.8,0,0,1-.08.33.46.46,0,0,1-.18.22l-1.13.65a.14.14,0,0,1-.19,0,.33.33,0,0,1-.08-.24v-.34a3.15,3.15,0,0,1-.19.43,2.27,2.27,0,0,1-.27.44,3.16,3.16,0,0,1-.39.44,2.69,2.69,0,0,1-.52.38c-.63.36-1.13.38-1.5,0a3.12,3.12,0,0,1-.57-2.27Z" style="fill: rgb(69, 90, 100); transform-origin: 135.535px 255.627px;" id="ely3ws4mxd3z" class="animable"></path><path d="M142,253.1a.85.85,0,0,0,.09.47c.07.09.18.09.33,0l.77-.45a.14.14,0,0,1,.19,0,.33.33,0,0,1,.08.24v1.51a.8.8,0,0,1-.08.33.45.45,0,0,1-.19.23l-.92.53a1.81,1.81,0,0,1-.83.28.89.89,0,0,1-.64-.21,1.53,1.53,0,0,1-.41-.7,3.73,3.73,0,0,1-.15-1.15v-2.52l-.72.42a.14.14,0,0,1-.18,0,.29.29,0,0,1-.08-.24v-1.51a.67.67,0,0,1,.08-.33.49.49,0,0,1,.18-.23l.72-.41v-2.45a.8.8,0,0,1,.08-.33.45.45,0,0,1,.19-.23l1.22-.71a.15.15,0,0,1,.19,0,.33.33,0,0,1,.08.24v2.44l1.1-.63a.14.14,0,0,1,.18,0,.33.33,0,0,1,.08.24v1.51a.73.73,0,0,1-.08.33.44.44,0,0,1-.18.23l-1.1.64Z" style="fill: rgb(69, 90, 100); transform-origin: 141.359px 250.924px;" id="elzgi4i8ctw0n" class="animable"></path><path d="M150,251.14a.8.8,0,0,1-.08.33.47.47,0,0,1-.19.22l-1.22.71c-.08,0-.14,0-.19,0a.33.33,0,0,1-.08-.24v-3.8a1.59,1.59,0,0,0-.2-.91c-.14-.18-.35-.19-.65,0a1.44,1.44,0,0,0-.63.76,3,3,0,0,0-.2,1.15v3.79a.8.8,0,0,1-.08.33.5.5,0,0,1-.19.23l-1.22.71a.16.16,0,0,1-.19,0,.36.36,0,0,1-.08-.24V244.3a.76.76,0,0,1,.08-.33.41.41,0,0,1,.19-.23l1.22-.71a.15.15,0,0,1,.19,0,.33.33,0,0,1,.08.24v3.2a4.51,4.51,0,0,1,.51-.91,2.76,2.76,0,0,1,.81-.76,1.91,1.91,0,0,1,.86-.29.87.87,0,0,1,.67.24,1.71,1.71,0,0,1,.43.81A5.62,5.62,0,0,1,150,247Z" style="fill: rgb(69, 90, 100); transform-origin: 147.4px 248.724px;" id="eldds2w869zkn" class="animable"></path><path d="M153.07,246.71a1.23,1.23,0,0,0,.09.53.43.43,0,0,0,.21.23.38.38,0,0,0,.28,0,1.88,1.88,0,0,0,.3-.12,2,2,0,0,0,.46-.36,2,2,0,0,0,.29-.42,1.37,1.37,0,0,1,.16-.26.46.46,0,0,1,.16-.14l1.27-.73q.21-.12.21.21a2.26,2.26,0,0,1-.14.63,5.76,5.76,0,0,1-.46,1,6.85,6.85,0,0,1-.79,1.13,4.5,4.5,0,0,1-1.16,1,2.26,2.26,0,0,1-1.12.37,1.09,1.09,0,0,1-.83-.32,2,2,0,0,1-.51-1,6.65,6.65,0,0,1-.17-1.6,8.85,8.85,0,0,1,.17-1.71,6.57,6.57,0,0,1,.51-1.57,5.63,5.63,0,0,1,.83-1.33,4.26,4.26,0,0,1,1.12-1,2,2,0,0,1,1.21-.33,1.23,1.23,0,0,1,.82.48,2.54,2.54,0,0,1,.46,1.05,6.6,6.6,0,0,1,.14,1.36v.42a.67.67,0,0,1-.08.33.49.49,0,0,1-.18.23Zm.88-3.38a1.46,1.46,0,0,0-.62.73,3,3,0,0,0-.26,1l1.76-1a1.2,1.2,0,0,0-.26-.7C154.43,243.18,154.22,243.17,154,243.33Z" style="fill: rgb(69, 90, 100); transform-origin: 153.95px 245.349px;" id="el5aodmfzd7wv" class="animable"></path><path d="M163.15,243.54a.8.8,0,0,1-.08.33.42.42,0,0,1-.19.22l-1.22.71a.15.15,0,0,1-.19,0,.33.33,0,0,1-.08-.24v-3.8a1.51,1.51,0,0,0-.2-.91c-.14-.18-.35-.19-.64,0a1.42,1.42,0,0,0-.64.76,3,3,0,0,0-.2,1.15v3.79a.8.8,0,0,1-.08.33.49.49,0,0,1-.18.23l-1.23.71a.15.15,0,0,1-.19,0,.35.35,0,0,1-.08-.24v-7a.8.8,0,0,1,.08-.33.57.57,0,0,1,.19-.23l1.18-.68a.14.14,0,0,1,.18,0,.33.33,0,0,1,.08.24v.35c.05-.13.12-.28.19-.43a3.21,3.21,0,0,1,.29-.46,4.88,4.88,0,0,1,.38-.43,3.38,3.38,0,0,1,.51-.38,2,2,0,0,1,.86-.29.87.87,0,0,1,.67.24,1.71,1.71,0,0,1,.43.81,5.2,5.2,0,0,1,.16,1.44Z" style="fill: rgb(69, 90, 100); transform-origin: 160.551px 241.896px;" id="el0x5e5i76moe" class="animable"></path><path d="M167,238.67a.92.92,0,0,0,.09.48q.1.12.33,0l.77-.45c.08,0,.14,0,.19,0a.33.33,0,0,1,.08.24v1.52a.8.8,0,0,1-.08.33.42.42,0,0,1-.19.22l-.92.54a1.94,1.94,0,0,1-.83.28.94.94,0,0,1-.64-.22,1.49,1.49,0,0,1-.41-.69,3.84,3.84,0,0,1-.15-1.16v-2.52l-.72.42a.14.14,0,0,1-.18,0,.29.29,0,0,1-.08-.24V235.9a.67.67,0,0,1,.08-.33.54.54,0,0,1,.18-.23l.72-.41v-2.45a.8.8,0,0,1,.08-.33.42.42,0,0,1,.19-.22l1.22-.71a.15.15,0,0,1,.19,0,.33.33,0,0,1,.08.24v2.45l1.1-.64a.14.14,0,0,1,.18,0,.33.33,0,0,1,.08.24v1.52a.8.8,0,0,1-.08.33.46.46,0,0,1-.18.22l-1.1.64Z" style="fill: rgb(69, 90, 100); transform-origin: 166.359px 236.508px;" id="ely0fgciughyl" class="animable"></path><path d="M171.54,230.07a.8.8,0,0,1-.08.33.5.5,0,0,1-.19.23l-1.22.71a.15.15,0,0,1-.19,0,.33.33,0,0,1-.08-.24v-1.51a.8.8,0,0,1,.08-.33.45.45,0,0,1,.19-.23l1.22-.71a.15.15,0,0,1,.19,0,.33.33,0,0,1,.08.24Zm0,8.62a.8.8,0,0,1-.08.33.45.45,0,0,1-.19.23l-1.22.71c-.08,0-.14,0-.19,0a.33.33,0,0,1-.08-.24v-7a.8.8,0,0,1,.08-.33.45.45,0,0,1,.19-.23l1.22-.71a.14.14,0,0,1,.19,0,.3.3,0,0,1,.08.24Z" style="fill: rgb(69, 90, 100); transform-origin: 170.661px 234.123px;" id="elcve2oq1kypr" class="animable"></path><path d="M174.7,232.85c0,.15,0,.33,0,.53s0,.37,0,.52a.94.94,0,0,0,.27.71c.15.13.36.12.62,0a1.47,1.47,0,0,0,.49-.42,2.26,2.26,0,0,0,.28-.56,1.69,1.69,0,0,1,.11-.27.4.4,0,0,1,.17-.19l1.28-.74a.15.15,0,0,1,.19,0,.29.29,0,0,1,.07.24,5.12,5.12,0,0,1-.13.78,4.92,4.92,0,0,1-.41,1.16,5.85,5.85,0,0,1-.78,1.25,4.6,4.6,0,0,1-1.27,1.07,2.39,2.39,0,0,1-1,.35,1.31,1.31,0,0,1-.83-.21,1.72,1.72,0,0,1-.56-.77A3.61,3.61,0,0,1,173,235c0-.14,0-.34,0-.59s0-.45,0-.61a6.26,6.26,0,0,1,.23-1.56,6.8,6.8,0,0,1,.56-1.41,6,6,0,0,1,.83-1.17,4.38,4.38,0,0,1,1-.83,2.15,2.15,0,0,1,1.27-.39,1.18,1.18,0,0,1,.78.34,1.45,1.45,0,0,1,.41.68,3,3,0,0,1,.13.63.66.66,0,0,1-.07.33.57.57,0,0,1-.19.23l-1.28.74a.15.15,0,0,1-.17,0,.58.58,0,0,1-.11-.15.46.46,0,0,0-.28-.24.7.7,0,0,0-.49.15,1.48,1.48,0,0,0-.62.68A2.49,2.49,0,0,0,174.7,232.85Z" style="fill: rgb(69, 90, 100); transform-origin: 175.605px 232.862px;" id="el4of53dkyo7p" class="animable"></path><path d="M179.17,232.47a4,4,0,0,1,.5-1.92,6.47,6.47,0,0,1,1.6-1.87l1.14-1a.81.81,0,0,0-.13-.52c-.08-.1-.23-.1-.44,0a1.12,1.12,0,0,0-.34.3,2.1,2.1,0,0,0-.18.28,1.07,1.07,0,0,1-.17.24.86.86,0,0,1-.18.14l-1.24.71c-.07,0-.12,0-.16,0a.25.25,0,0,1,0-.21,2.75,2.75,0,0,1,.19-.84,6.14,6.14,0,0,1,.48-1,6.5,6.5,0,0,1,.73-.95,4.21,4.21,0,0,1,.92-.74,2.47,2.47,0,0,1,1-.37,1,1,0,0,1,.72.2,1.36,1.36,0,0,1,.43.7,4.13,4.13,0,0,1,.13,1.13v4.54a.78.78,0,0,1-.07.33.57.57,0,0,1-.19.23l-1.23.71a.14.14,0,0,1-.18,0,.29.29,0,0,1-.08-.24V232a4.52,4.52,0,0,1-.58,1,2.81,2.81,0,0,1-.91.79,1.58,1.58,0,0,1-.75.25.73.73,0,0,1-.54-.18,1.15,1.15,0,0,1-.34-.55A2.88,2.88,0,0,1,179.17,232.47Zm2.23-.94a1.54,1.54,0,0,0,.4-.34,2.76,2.76,0,0,0,.32-.49,3,3,0,0,0,.21-.59,2.47,2.47,0,0,0,.08-.6l-.9.72a2.43,2.43,0,0,0-.42.5,1.09,1.09,0,0,0-.16.56q0,.28.12.33A.44.44,0,0,0,181.4,231.53Z" style="fill: rgb(69, 90, 100); transform-origin: 181.671px 229.378px;" id="elmu1bkai9w4m" class="animable"></path><path d="M188.06,226.51a.8.8,0,0,0,.1.48c.06.09.17.09.32,0l.78-.45a.14.14,0,0,1,.18,0,.29.29,0,0,1,.08.24v1.51a.67.67,0,0,1-.08.33.49.49,0,0,1-.18.23l-.93.53a1.78,1.78,0,0,1-.83.28.9.9,0,0,1-.64-.21,1.62,1.62,0,0,1-.41-.7,3.8,3.8,0,0,1-.14-1.15V225.1l-.73.41a.14.14,0,0,1-.18,0,.33.33,0,0,1-.08-.24v-1.51a.8.8,0,0,1,.08-.33.44.44,0,0,1,.18-.23l.73-.42v-2.44a.78.78,0,0,1,.07-.33.57.57,0,0,1,.19-.23l1.23-.71a.14.14,0,0,1,.18,0,.35.35,0,0,1,.08.24v2.45l1.1-.64a.15.15,0,0,1,.19,0,.33.33,0,0,1,.07.24v1.51a.78.78,0,0,1-.07.33.57.57,0,0,1-.19.23l-1.1.64Z" style="fill: rgb(69, 90, 100); transform-origin: 187.421px 224.35px;" id="el6f6ngrkn658" class="animable"></path><path d="M192.36,224a1.25,1.25,0,0,0,.08.53.5.5,0,0,0,.21.24.44.44,0,0,0,.28,0,1.34,1.34,0,0,0,.3-.12,1.82,1.82,0,0,0,.47-.36,1.92,1.92,0,0,0,.28-.42,2.24,2.24,0,0,1,.16-.26.57.57,0,0,1,.16-.14l1.27-.73c.15-.08.22,0,.22.21a2.39,2.39,0,0,1-.15.63,6.46,6.46,0,0,1-.45,1,6.94,6.94,0,0,1-.8,1.13,4.5,4.5,0,0,1-1.16.95,2.23,2.23,0,0,1-1.12.37,1.09,1.09,0,0,1-.83-.32,2.21,2.21,0,0,1-.51-1,6.65,6.65,0,0,1-.17-1.6,8.85,8.85,0,0,1,.17-1.71,7.6,7.6,0,0,1,.51-1.57,5.63,5.63,0,0,1,.83-1.33,4.43,4.43,0,0,1,1.12-1,2,2,0,0,1,1.22-.33,1.23,1.23,0,0,1,.81.48,2.42,2.42,0,0,1,.46,1,6,6,0,0,1,.14,1.36v.42a.78.78,0,0,1-.07.33.57.57,0,0,1-.19.23Zm.87-3.38a1.46,1.46,0,0,0-.62.73,3.07,3.07,0,0,0-.25,1l1.75-1a1.27,1.27,0,0,0-.25-.7C193.71,220.5,193.51,220.49,193.23,220.65Z" style="fill: rgb(69, 90, 100); transform-origin: 193.23px 222.599px;" id="elbahpyete1y" class="animable"></path><path d="M202.18,223.9a2.63,2.63,0,0,1-.1.3.46.46,0,0,1-.19.22l-1.27.74a.13.13,0,0,1-.17,0,.32.32,0,0,1-.07-.22s0-.07,0-.11l.74-3.11-2-5.9a.28.28,0,0,1,0-.1.59.59,0,0,1,.07-.29.42.42,0,0,1,.16-.2l1.28-.74c.08,0,.14,0,.18,0a.5.5,0,0,1,.1.19L202,218l1.07-4.52a1.25,1.25,0,0,1,.1-.29.54.54,0,0,1,.18-.23l1.29-.74a.13.13,0,0,1,.17,0,.29.29,0,0,1,.07.21.36.36,0,0,1,0,.11Z" style="fill: rgb(69, 90, 100); transform-origin: 202px 218.69px;" id="eliz1i7u89efa" class="animable"></path><path d="M211,211.86c0,.15,0,.34,0,.57s0,.43,0,.58a6.37,6.37,0,0,1-.21,1.48,7.08,7.08,0,0,1-.54,1.41,5.67,5.67,0,0,1-.82,1.22,4.35,4.35,0,0,1-1.08.89,2.17,2.17,0,0,1-1.07.35,1.16,1.16,0,0,1-.82-.27,1.74,1.74,0,0,1-.54-.79,3.67,3.67,0,0,1-.21-1.23c0-.14,0-.33,0-.57s0-.43,0-.58a5.84,5.84,0,0,1,.2-1.47,6.85,6.85,0,0,1,.54-1.41,6.17,6.17,0,0,1,.83-1.23,4.31,4.31,0,0,1,1.07-.9,2.34,2.34,0,0,1,1.08-.35,1.32,1.32,0,0,1,.83.28,1.65,1.65,0,0,1,.53.79A3.76,3.76,0,0,1,211,211.86ZM207.43,215a.94.94,0,0,0,.27.73c.15.13.36.11.62,0A1.55,1.55,0,0,0,209,215a2.55,2.55,0,0,0,.27-1.05c0-.15,0-.33,0-.52s0-.36,0-.5a1,1,0,0,0-.27-.74.55.55,0,0,0-.63,0,1.61,1.61,0,0,0-.62.69,2.55,2.55,0,0,0-.27,1.05c0,.16,0,.33,0,.52S207.42,214.84,207.43,215Z" style="fill: rgb(69, 90, 100); transform-origin: 208.355px 213.961px;" id="el5rhea6l9puk" class="animable"></path><path d="M212.33,208.15a.67.67,0,0,1,.08-.33.46.46,0,0,1,.18-.22l1.23-.71a.14.14,0,0,1,.18,0,.29.29,0,0,1,.08.24v3.8a1.66,1.66,0,0,0,.19.92c.12.19.33.2.61,0a1.36,1.36,0,0,0,.61-.74,3.33,3.33,0,0,0,.18-1.14v-3.8a.8.8,0,0,1,.08-.33.46.46,0,0,1,.18-.22l1.23-.71a.15.15,0,0,1,.19,0,.33.33,0,0,1,.07.24v7a.78.78,0,0,1-.07.33.57.57,0,0,1-.19.23l-1.13.65a.14.14,0,0,1-.18,0,.29.29,0,0,1-.08-.24v-.35a4,4,0,0,1-.19.43,3.68,3.68,0,0,1-.28.45,3.78,3.78,0,0,1-.38.43,2.8,2.8,0,0,1-.53.39c-.63.36-1.13.37-1.5,0a3.13,3.13,0,0,1-.56-2.27Z" style="fill: rgb(69, 90, 100); transform-origin: 214.86px 209.81px;" id="elh1h0hy1gdzf" class="animable"></path><path d="M222.58,201.83a.14.14,0,0,1,.18,0,.29.29,0,0,1,.08.24v1.52a.67.67,0,0,1-.08.33.54.54,0,0,1-.18.23l-.89.51a2,2,0,0,0-.89,1.89v3.69a.8.8,0,0,1-.08.33.5.5,0,0,1-.19.23l-1.23.71a.14.14,0,0,1-.18,0,.33.33,0,0,1-.08-.24v-7a.8.8,0,0,1,.08-.33.49.49,0,0,1,.18-.23l1.14-.65a.14.14,0,0,1,.18,0,.33.33,0,0,1,.08.24v.35a4.78,4.78,0,0,1,.54-.86,2.71,2.71,0,0,1,.75-.64Z" style="fill: rgb(69, 90, 100); transform-origin: 220.941px 206.67px;" id="eln4rx30an3y" class="animable"></path><path d="M226,205.42a4,4,0,0,1,.49-1.92,6.63,6.63,0,0,1,1.6-1.87l1.14-1a.81.81,0,0,0-.13-.52c-.08-.1-.23-.1-.43,0a1.17,1.17,0,0,0-.35.3,2.1,2.1,0,0,0-.18.28.83.83,0,0,1-.17.24.86.86,0,0,1-.18.14l-1.24.71a.14.14,0,0,1-.16,0,.25.25,0,0,1,0-.21,3.09,3.09,0,0,1,.19-.84,5.13,5.13,0,0,1,.49-1,5.35,5.35,0,0,1,.73-1,3.79,3.79,0,0,1,.92-.74,2.44,2.44,0,0,1,1-.37,1,1,0,0,1,.72.2,1.29,1.29,0,0,1,.43.7,4.1,4.1,0,0,1,.14,1.13v4.54a.8.8,0,0,1-.08.33.57.57,0,0,1-.19.23l-1.23.71a.14.14,0,0,1-.18,0,.33.33,0,0,1-.08-.24V205a4.18,4.18,0,0,1-.58,1,2.94,2.94,0,0,1-.91.79,1.58,1.58,0,0,1-.74.25.75.75,0,0,1-.55-.18,1.15,1.15,0,0,1-.34-.55A3.25,3.25,0,0,1,226,205.42Zm2.22-.94a1.54,1.54,0,0,0,.4-.34,2.76,2.76,0,0,0,.32-.49,3,3,0,0,0,.21-.59,2.06,2.06,0,0,0,.08-.6l-.9.72a2.43,2.43,0,0,0-.42.5,1.09,1.09,0,0,0-.16.56q0,.28.12.33A.44.44,0,0,0,228.25,204.48Z" style="fill: rgb(69, 90, 100); transform-origin: 228.505px 202.328px;" id="elk65fp6xigc" class="animable"></path><path d="M234.13,198.53c0,.16,0,.34,0,.54s0,.37,0,.51a1,1,0,0,0,.27.72c.15.13.36.12.62,0a1.47,1.47,0,0,0,.49-.42,2.26,2.26,0,0,0,.28-.56,2.33,2.33,0,0,1,.11-.28.42.42,0,0,1,.17-.18l1.28-.74a.15.15,0,0,1,.19,0,.29.29,0,0,1,.07.24,6.05,6.05,0,0,1-.53,1.94,6.64,6.64,0,0,1-.79,1.25A4.78,4.78,0,0,1,235,202.6a2.48,2.48,0,0,1-1,.35,1.26,1.26,0,0,1-.83-.22,1.63,1.63,0,0,1-.56-.76,3.65,3.65,0,0,1-.23-1.3c0-.14,0-.34,0-.59s0-.45,0-.61a6.19,6.19,0,0,1,.23-1.56,7.12,7.12,0,0,1,.56-1.42,6.22,6.22,0,0,1,.83-1.16,4.33,4.33,0,0,1,1-.83,2.24,2.24,0,0,1,1.27-.4,1.34,1.34,0,0,1,.79.34,1.55,1.55,0,0,1,.4.69,2.93,2.93,0,0,1,.13.63.66.66,0,0,1-.07.33.57.57,0,0,1-.19.23l-1.28.73c-.07,0-.13,0-.17,0a.4.4,0,0,1-.11-.14.46.46,0,0,0-.28-.24.73.73,0,0,0-.49.14,1.55,1.55,0,0,0-.62.69A2.49,2.49,0,0,0,234.13,198.53Z" style="fill: rgb(69, 90, 100); transform-origin: 234.997px 198.527px;" id="elqx9b3wvyedk" class="animable"></path><path d="M240.47,194.87c0,.15,0,.33,0,.53s0,.37,0,.52a1,1,0,0,0,.27.72c.15.12.36.11.62,0a1.37,1.37,0,0,0,.49-.42,2,2,0,0,0,.28-.56,1.69,1.69,0,0,1,.11-.27.46.46,0,0,1,.17-.19l1.28-.74a.15.15,0,0,1,.19,0,.29.29,0,0,1,.07.24,4.81,4.81,0,0,1-.12.78,6,6,0,0,1-.41,1.16,6.34,6.34,0,0,1-.79,1.25,4.46,4.46,0,0,1-1.27,1.07,2.35,2.35,0,0,1-1,.35,1.31,1.31,0,0,1-.83-.21,1.74,1.74,0,0,1-.56-.76,3.71,3.71,0,0,1-.23-1.31c0-.14,0-.34,0-.59s0-.45,0-.61a6.26,6.26,0,0,1,.23-1.56,6.8,6.8,0,0,1,.56-1.41,6,6,0,0,1,.83-1.17,4.59,4.59,0,0,1,1-.83,2.16,2.16,0,0,1,1.27-.39,1.22,1.22,0,0,1,.79.34,1.64,1.64,0,0,1,.41.68,2.9,2.9,0,0,1,.12.63.66.66,0,0,1-.07.33.57.57,0,0,1-.19.23l-1.28.74a.15.15,0,0,1-.17,0,.58.58,0,0,1-.11-.15.44.44,0,0,0-.28-.24.75.75,0,0,0-.49.14,1.67,1.67,0,0,0-.62.69A2.49,2.49,0,0,0,240.47,194.87Z" style="fill: rgb(69, 90, 100); transform-origin: 241.347px 194.892px;" id="el0l4vqgxxaita" class="animable"></path><path d="M250.36,189.11c0,.15,0,.34,0,.57s0,.43,0,.59a6.28,6.28,0,0,1-.21,1.47,6.64,6.64,0,0,1-.54,1.41,5.43,5.43,0,0,1-.82,1.22,4.14,4.14,0,0,1-1.08.89,2.17,2.17,0,0,1-1.07.35,1.23,1.23,0,0,1-.83-.26,1.9,1.9,0,0,1-.53-.8,3.91,3.91,0,0,1-.22-1.22c0-.15,0-.34,0-.57s0-.43,0-.59a6.36,6.36,0,0,1,.21-1.47,7.08,7.08,0,0,1,.54-1.41,5.77,5.77,0,0,1,.83-1.23,4.31,4.31,0,0,1,1.07-.9,2.2,2.2,0,0,1,1.08-.34,1.31,1.31,0,0,1,.83.27,1.7,1.7,0,0,1,.53.79A3.76,3.76,0,0,1,250.36,189.11Zm-3.54,3.13a1,1,0,0,0,.27.74c.15.12.36.11.62,0a1.63,1.63,0,0,0,.63-.69,2.5,2.5,0,0,0,.27-1c0-.16,0-.34,0-.53s0-.35,0-.5a1,1,0,0,0-.27-.73c-.16-.13-.37-.11-.63,0a1.58,1.58,0,0,0-.62.68,2.55,2.55,0,0,0-.27,1.05,4.27,4.27,0,0,0,0,.52A3.78,3.78,0,0,0,246.82,192.24Z" style="fill: rgb(69, 90, 100); transform-origin: 247.71px 191.216px;" id="elwivysik73fj" class="animable"></path><path d="M251.72,185.41a.67.67,0,0,1,.08-.33.49.49,0,0,1,.18-.23l1.23-.71a.14.14,0,0,1,.18,0,.33.33,0,0,1,.08.24v3.8a1.7,1.7,0,0,0,.19.93c.12.19.32.2.61,0a1.33,1.33,0,0,0,.61-.74,3.33,3.33,0,0,0,.18-1.14v-3.79a.67.67,0,0,1,.08-.33.49.49,0,0,1,.18-.23l1.23-.71a.14.14,0,0,1,.18,0,.29.29,0,0,1,.08.24v7a.67.67,0,0,1-.08.33.49.49,0,0,1-.18.23l-1.13.65a.15.15,0,0,1-.19,0,.33.33,0,0,1-.07-.24v-.34l-.19.43a3.59,3.59,0,0,1-.28.44,3.1,3.1,0,0,1-.39.43,2.71,2.71,0,0,1-.52.39c-.63.36-1.13.38-1.5,0a3.13,3.13,0,0,1-.56-2.27Z" style="fill: rgb(69, 90, 100); transform-origin: 254.251px 187.072px;" id="eldnzhg8t58gp" class="animable"></path><path d="M263.62,185.52a.78.78,0,0,1-.07.33.57.57,0,0,1-.19.23l-1.23.71a.14.14,0,0,1-.18,0,.29.29,0,0,1-.08-.24v-3.79a1.63,1.63,0,0,0-.2-.92c-.14-.18-.36-.18-.65,0a1.55,1.55,0,0,0-.64.76,3.19,3.19,0,0,0-.2,1.15v3.8a.78.78,0,0,1-.07.33.53.53,0,0,1-.19.22l-1.23.71a.14.14,0,0,1-.18,0,.33.33,0,0,1-.08-.24v-7a.8.8,0,0,1,.08-.33.49.49,0,0,1,.18-.23l1.18-.68a.15.15,0,0,1,.19,0,.33.33,0,0,1,.07.24v.34c.06-.13.12-.27.2-.43a3.68,3.68,0,0,1,.28-.45,3.16,3.16,0,0,1,.39-.44,2.58,2.58,0,0,1,.51-.37,2.07,2.07,0,0,1,.86-.3.87.87,0,0,1,.66.24,1.81,1.81,0,0,1,.44.82,5.67,5.67,0,0,1,.15,1.44Z" style="fill: rgb(69, 90, 100); transform-origin: 261.025px 183.88px;" id="eluyzqoqnz2k9" class="animable"></path><path d="M267.48,180.65a.8.8,0,0,0,.1.48c.06.09.17.09.32,0l.78-.45a.14.14,0,0,1,.18,0c.06,0,.08.12.08.24v1.51a.67.67,0,0,1-.08.33.49.49,0,0,1-.18.23l-.93.53a1.78,1.78,0,0,1-.83.28.87.87,0,0,1-.64-.22,1.53,1.53,0,0,1-.41-.69,4.15,4.15,0,0,1-.14-1.15v-2.52l-.72.41a.15.15,0,0,1-.19,0,.33.33,0,0,1-.08-.24v-1.51a.73.73,0,0,1,.08-.33.45.45,0,0,1,.19-.23l.72-.42v-2.44a.67.67,0,0,1,.08-.33.49.49,0,0,1,.18-.23l1.23-.71a.14.14,0,0,1,.18,0,.29.29,0,0,1,.08.24v2.45l1.1-.64a.15.15,0,0,1,.19,0,.33.33,0,0,1,.07.24V177a.78.78,0,0,1-.07.33.5.5,0,0,1-.19.23l-1.1.64Z" style="fill: rgb(69, 90, 100); transform-origin: 266.84px 178.48px;" id="elen2ce4o6l3i" class="animable"></path></g></g><g id="freepik--Code--inject-4" class="animable" style="transform-origin: 213.54px 254.744px;"><g id="freepik--Numbers--inject-4" class="animable" style="transform-origin: 213.54px 254.744px;"><g id="freepik--speach-bubble--inject-4" class="animable" style="transform-origin: 150.945px 290.895px;"><path d="M165.5,265.65a3.72,3.72,0,0,0-1.68-2.92l-1.37-.79a3.71,3.71,0,0,0-3.37,0l-21,12.15a3.75,3.75,0,0,0-1.68,2.92v39.13a3.75,3.75,0,0,0,1.68,2.92l1.37.79a3.71,3.71,0,0,0,3.37,0l21-12.15a3.72,3.72,0,0,0,1.68-2.92Z" style="fill: #407BFF; transform-origin: 150.95px 290.895px;" id="ely8vz04m6xbc" class="animable"></path><g id="el2vbzcupr6lg"><path d="M136.39,316.14a3.75,3.75,0,0,0,1.68,2.92l1.37.79a3.75,3.75,0,0,0,3.08.13c-.79.3-1.39-.14-1.39-1.1V279.74a3.49,3.49,0,0,1,.49-1.66l-4.73-2.73a3.36,3.36,0,0,0-.5,1.66Z" style="opacity: 0.2; transform-origin: 139.455px 297.8px;" class="animable" id="elykaksk89sqm"></path></g><g id="eldtfr0tqsrv7"><path d="M165.45,265.17c-.2-.72-.85-.94-1.63-.5l-21,12.16a3.34,3.34,0,0,0-1.19,1.25l-4.73-2.73a3.45,3.45,0,0,1,1.19-1.26l21-12.15a3.77,3.77,0,0,1,3.37,0l1.37.79A3.77,3.77,0,0,1,165.45,265.17Z" style="fill: rgb(255, 255, 255); opacity: 0.3; transform-origin: 151.175px 269.811px;" class="animable" id="elyik8266ck7g"></path></g></g><path d="M158.21,276.18a.38.38,0,0,1,.49,0,.86.86,0,0,1,.2.63v2.59a4,4,0,0,1-.1.86c-.07.31-.17.73-.31,1.25l-5.9,24.38a5.37,5.37,0,0,1-.27.8,1.17,1.17,0,0,1-.47.57l-2.12,1.22a.35.35,0,0,1-.48,0,.8.8,0,0,1-.2-.62,2.75,2.75,0,0,1,.07-.52l5.93-24.43-8,4.61a.36.36,0,0,1-.48,0,.83.83,0,0,1-.21-.63v-2.78a1.94,1.94,0,0,1,.21-.86,1.18,1.18,0,0,1,.48-.59Z" style="fill: rgb(250, 250, 250); transform-origin: 152.63px 292.333px;" id="elfffjwue8869" class="animable"></path><g id="freepik--speach-bubble--inject-4" class="animable" style="transform-origin: 185.095px 271.167px;"><path d="M199.66,245.92A3.74,3.74,0,0,0,198,243l-1.37-.79a3.71,3.71,0,0,0-3.37,0l-21,12.15a3.72,3.72,0,0,0-1.68,2.91v39.14a3.72,3.72,0,0,0,1.68,2.92l1.37.79a3.77,3.77,0,0,0,3.37,0L198,288a3.75,3.75,0,0,0,1.68-2.92Z" style="fill: #407BFF; transform-origin: 185.13px 271.161px;" id="elghqqzj3izmn" class="animable"></path><g id="elpb1q8kydse"><path d="M170.55,296.42a3.72,3.72,0,0,0,1.68,2.92l1.37.79a3.75,3.75,0,0,0,3.08.13c-.79.3-1.4-.14-1.4-1.1V260a3.4,3.4,0,0,1,.5-1.66L171,255.63a3.45,3.45,0,0,0-.49,1.65Z" style="opacity: 0.2; transform-origin: 173.595px 278.08px;" class="animable" id="elq79jjk7u11d"></path></g><g id="elz4ui424pitb"><path d="M199.6,245.45c-.19-.72-.85-.95-1.62-.5l-21,12.16a3.26,3.26,0,0,0-1.19,1.25l-4.73-2.73a3.42,3.42,0,0,1,1.18-1.26l21-12.15a3.75,3.75,0,0,1,3.36,0L198,243A3.72,3.72,0,0,1,199.6,245.45Z" style="fill: rgb(255, 255, 255); opacity: 0.3; transform-origin: 185.33px 250.091px;" class="animable" id="el3x3cwmsaojt"></path></g></g><path d="M181.52,263.78a2,2,0,0,1,.21-.87,1.27,1.27,0,0,1,.48-.59l9.57-5.52a.38.38,0,0,1,.49,0,.86.86,0,0,1,.2.63v2.78a2,2,0,0,1-.2.86,1.33,1.33,0,0,1-.49.6l-7.15,4.12-.28,5.18a7,7,0,0,1,1.36-1.29q.67-.46,1.11-.72a6.64,6.64,0,0,1,2.65-.94,3,3,0,0,1,2.11.52,4.24,4.24,0,0,1,1.4,2,10.57,10.57,0,0,1,.51,3.58,19.32,19.32,0,0,1-.52,4.6,16.41,16.41,0,0,1-1.43,3.76,12.28,12.28,0,0,1-2.13,2.91,11.93,11.93,0,0,1-2.59,2,7.54,7.54,0,0,1-3,1.12,3.09,3.09,0,0,1-2.09-.5,3.65,3.65,0,0,1-1.24-1.75,8.46,8.46,0,0,1-.47-2.65,1.6,1.6,0,0,1,.19-.88,1.38,1.38,0,0,1,.49-.58l2.06-1.19a.43.43,0,0,1,.46,0,.77.77,0,0,1,.28.53,2.49,2.49,0,0,0,.49,1.19,1.36,1.36,0,0,0,.76.46,1.88,1.88,0,0,0,1-.11,7,7,0,0,0,1.12-.53,6,6,0,0,0,2.34-2.57,8.29,8.29,0,0,0,.89-3.84,2.86,2.86,0,0,0-.89-2.43,2.08,2.08,0,0,0-2.34.14,5.75,5.75,0,0,0-1.94,1.7c-.18.27-.35.5-.51.71a1.69,1.69,0,0,1-.58.51l-2.34,1.36a.38.38,0,0,1-.49,0,.85.85,0,0,1-.2-.62Z" style="fill: rgb(250, 250, 250); transform-origin: 186.755px 272.621px;" id="el4kdc5bxgnd2" class="animable"></path><g id="freepik--speach-bubble--inject-4" class="animable" style="transform-origin: 116.735px 310.619px;"><path d="M131.29,285.37a3.73,3.73,0,0,0-1.68-2.92l-1.37-.79a3.77,3.77,0,0,0-3.37,0l-21,12.15a3.73,3.73,0,0,0-1.68,2.92v39.14a3.72,3.72,0,0,0,1.68,2.91l1.37.79a3.71,3.71,0,0,0,3.37,0l21-12.15a3.72,3.72,0,0,0,1.68-2.91Z" style="fill: #407BFF; transform-origin: 116.74px 310.619px;" id="eljzxx10pmp1a" class="animable"></path><g id="elckgcrat658j"><path d="M102.18,335.87a3.72,3.72,0,0,0,1.68,2.91l1.37.79a3.75,3.75,0,0,0,3.08.14c-.79.3-1.39-.15-1.39-1.11V299.46a3.41,3.41,0,0,1,.49-1.66l-4.74-2.73a3.49,3.49,0,0,0-.49,1.66Z" style="opacity: 0.2; transform-origin: 105.245px 317.523px;" class="animable" id="elhjg6s3ujwf7"></path></g><g id="elc4k8fpbutao"><path d="M131.23,284.89c-.19-.71-.84-.94-1.62-.49l-21,12.15a3.29,3.29,0,0,0-1.19,1.26l-4.73-2.74a3.4,3.4,0,0,1,1.18-1.25l21-12.16a3.77,3.77,0,0,1,3.37,0l1.37.8A3.67,3.67,0,0,1,131.23,284.89Z" style="fill: rgb(255, 255, 255); opacity: 0.3; transform-origin: 116.96px 289.536px;" class="animable" id="el2usiy03yij8"></path></g></g><path d="M124,295.9a.36.36,0,0,1,.48,0,.86.86,0,0,1,.21.63v2.59a4.64,4.64,0,0,1-.1.86c-.07.31-.17.73-.31,1.26l-5.91,24.38a4.67,4.67,0,0,1-.26.8,1.15,1.15,0,0,1-.47.56l-2.12,1.22a.36.36,0,0,1-.48,0,.83.83,0,0,1-.21-.63,3.07,3.07,0,0,1,.08-.51l5.93-24.44-8,4.62a.35.35,0,0,1-.48,0,.8.8,0,0,1-.21-.62v-2.79a2,2,0,0,1,.21-.86,1.22,1.22,0,0,1,.48-.59Z" style="fill: rgb(250, 250, 250); transform-origin: 118.419px 312.05px;" id="elh26cunsj8x8" class="animable"></path><g id="freepik--speach-bubble--inject-4" class="animable" style="transform-origin: 242.035px 238.309px;"><path d="M256.58,213.06a3.72,3.72,0,0,0-1.68-2.92l-1.37-.79a3.75,3.75,0,0,0-3.36,0l-21,12.15a3.72,3.72,0,0,0-1.68,2.92v39.14a3.72,3.72,0,0,0,1.68,2.91l1.37.79a3.69,3.69,0,0,0,3.36,0l21-12.15a3.73,3.73,0,0,0,1.69-2.91Z" style="fill: #407BFF; transform-origin: 242.04px 238.309px;" id="el1nq3bvqg7gh" class="animable"></path><g id="elyh0sjjyo4dh"><path d="M227.48,263.56a3.72,3.72,0,0,0,1.68,2.91l1.37.79a3.75,3.75,0,0,0,3.08.14c-.8.3-1.4-.15-1.4-1.11V227.15a3.52,3.52,0,0,1,.49-1.66L228,222.76a3.38,3.38,0,0,0-.49,1.66Z" style="opacity: 0.2; transform-origin: 230.545px 245.213px;" class="animable" id="el4lpdo75aqqa"></path></g><g id="el1bxonugxxbg"><path d="M256.53,212.58c-.2-.71-.85-.94-1.62-.49l-21,12.15a3.39,3.39,0,0,0-1.18,1.25L228,222.76a3.42,3.42,0,0,1,1.19-1.25l21-12.16a3.77,3.77,0,0,1,3.37,0l1.38.8A3.67,3.67,0,0,1,256.53,212.58Z" style="fill: rgb(255, 255, 255); opacity: 0.3; transform-origin: 242.265px 217.221px;" class="animable" id="elv3fbvnj8spi"></path></g></g><path d="M245.3,238a8.57,8.57,0,0,0,1-2.49,10.56,10.56,0,0,0,.22-1.93,3.61,3.61,0,0,0-.64-2.35c-.42-.5-1.13-.47-2.11.1a4.83,4.83,0,0,0-2.05,2.24,12,12,0,0,0-.93,3.24,2.42,2.42,0,0,1-.31.95,1.42,1.42,0,0,1-.46.52l-2,1.16a.42.42,0,0,1-.49,0c-.15-.11-.21-.33-.19-.66a16.56,16.56,0,0,1,.58-3.67,18.21,18.21,0,0,1,1.36-3.52,15.67,15.67,0,0,1,2-3,9.61,9.61,0,0,1,2.47-2.11,4.73,4.73,0,0,1,2.78-.8,3,3,0,0,1,1.93,1,5.15,5.15,0,0,1,1.13,2.17,10.52,10.52,0,0,1,.37,2.86c0,.65,0,1.29-.07,1.91a11,11,0,0,1-.36,2,20.31,20.31,0,0,1-.81,2.31,31.73,31.73,0,0,1-1.43,2.88L242.55,250l7.08-4.08a.36.36,0,0,1,.48,0,.83.83,0,0,1,.21.63v2.78a1.91,1.91,0,0,1-.21.86,1.38,1.38,0,0,1-.48.6l-11.89,6.86a.38.38,0,0,1-.49,0,.86.86,0,0,1-.2-.63v-2.39a3.52,3.52,0,0,1,.26-1.31,6.1,6.1,0,0,1,.43-.93Z" style="fill: rgb(250, 250, 250); transform-origin: 243.685px 241.709px;" id="elzzgkewdzqh" class="animable"></path><g id="freepik--speach-bubble--inject-4" class="animable" style="transform-origin: 276.185px 218.569px;"><path d="M290.74,193.34a3.72,3.72,0,0,0-1.68-2.92l-1.37-.79a3.77,3.77,0,0,0-3.37,0l-21,12.15a3.73,3.73,0,0,0-1.69,2.92v39.14a3.73,3.73,0,0,0,1.69,2.91l1.37.79a3.69,3.69,0,0,0,3.36,0l21-12.15a3.72,3.72,0,0,0,1.68-2.91Z" style="fill: #407BFF; transform-origin: 276.185px 218.589px;" id="elc5r0zxyqgrg" class="animable"></path><g id="elg3citk1uiwn"><path d="M261.63,243.84a3.73,3.73,0,0,0,1.69,2.91l1.37.79a3.73,3.73,0,0,0,3.07.14c-.79.3-1.39-.15-1.39-1.11V207.43a3.49,3.49,0,0,1,.49-1.66L262.13,203a3.4,3.4,0,0,0-.5,1.66Z" style="opacity: 0.2; transform-origin: 264.695px 225.472px;" class="animable" id="elvtg9d3y13ra"></path></g><g id="el0s7h9aszf3"><path d="M290.69,192.86c-.2-.71-.85-.94-1.63-.5l-21,12.16a3.42,3.42,0,0,0-1.19,1.25L262.13,203a3.34,3.34,0,0,1,1.19-1.25l21-12.16a3.77,3.77,0,0,1,3.37,0l1.37.8A3.72,3.72,0,0,1,290.69,192.86Z" style="fill: rgb(255, 255, 255); opacity: 0.3; transform-origin: 276.41px 197.481px;" class="animable" id="el396fije4et9"></path></g></g><path d="M284.7,213.38c0,.49,0,1,0,1.63v3.69c0,.6,0,1.15,0,1.66a32.22,32.22,0,0,1-.45,4.47,17.87,17.87,0,0,1-1.17,4,13.73,13.73,0,0,1-2.08,3.43,11.53,11.53,0,0,1-3.15,2.62,5.93,5.93,0,0,1-3.15,1,2.79,2.79,0,0,1-2.08-1,6.37,6.37,0,0,1-1.17-2.7,22.3,22.3,0,0,1-.45-4c0-1-.05-2.09-.05-3.36s0-2.4.05-3.42a33.28,33.28,0,0,1,.45-4.51,18.91,18.91,0,0,1,1.17-4.1,14.4,14.4,0,0,1,2.08-3.49,11.25,11.25,0,0,1,3.15-2.67,6.1,6.1,0,0,1,3.15-1,2.74,2.74,0,0,1,2.08,1,6.09,6.09,0,0,1,1.17,2.69A22.41,22.41,0,0,1,284.7,213.38Zm-10.26,12.7a8,8,0,0,0,.88,3.87c.5.74,1.34.77,2.53.08a5.72,5.72,0,0,0,2.54-3,15.67,15.67,0,0,0,.87-4.87c0-1,.05-2.12.05-3.33s0-2.29-.05-3.26a7.89,7.89,0,0,0-.87-3.86c-.51-.74-1.35-.77-2.54-.09a5.7,5.7,0,0,0-2.53,3,16,16,0,0,0-.88,4.88c0,1-.05,2.12-.05,3.32S274.41,225.11,274.44,226.08Z" style="fill: rgb(250, 250, 250); transform-origin: 277.825px 220.755px;" id="elwoe0ppdk6o" class="animable"></path><g id="freepik--speach-bubble--inject-4" class="animable" style="transform-origin: 310.345px 198.869px;"><path d="M324.9,173.62a3.75,3.75,0,0,0-1.68-2.92l-1.37-.79a3.77,3.77,0,0,0-3.37,0l-21,12.15a3.72,3.72,0,0,0-1.68,2.92v39.14a3.72,3.72,0,0,0,1.68,2.91l1.37.79a3.71,3.71,0,0,0,3.37,0l21-12.15a3.72,3.72,0,0,0,1.68-2.91Z" style="fill: #407BFF; transform-origin: 310.35px 198.869px;" id="elk33x2kaam8n" class="animable"></path><g id="elvch2o0czacd"><path d="M295.79,224.12a3.72,3.72,0,0,0,1.68,2.91l1.37.79a3.75,3.75,0,0,0,3.08.14c-.79.3-1.4-.15-1.4-1.11V187.71a3.4,3.4,0,0,1,.5-1.66l-4.74-2.73a3.49,3.49,0,0,0-.49,1.66Z" style="opacity: 0.2; transform-origin: 298.855px 205.773px;" class="animable" id="eluqk2xa2cgg"></path></g><g id="el8ocfne23z5v"><path d="M324.84,173.14c-.19-.71-.84-.94-1.62-.5l-21,12.16a3.34,3.34,0,0,0-1.19,1.25l-4.73-2.73a3.32,3.32,0,0,1,1.18-1.25l21-12.16a3.75,3.75,0,0,1,3.36,0l1.38.8A3.67,3.67,0,0,1,324.84,173.14Z" style="fill: rgb(255, 255, 255); opacity: 0.3; transform-origin: 310.57px 177.781px;" class="animable" id="el6fdlsbjzn7r"></path></g></g><path d="M206.5,256.14l10-5.79a2.35,2.35,0,0,1,2.16,0l1.9,1.1a2.37,2.37,0,0,1,1.08,1.87v2.19a2.4,2.4,0,0,1-1.08,1.88l-10,5.78a2.37,2.37,0,0,1-2.17,0l-1.89-1.09a2.41,2.41,0,0,1-1.09-1.88V258A2.38,2.38,0,0,1,206.5,256.14Z" style="fill: rgb(69, 90, 100); transform-origin: 213.525px 256.76px;" id="elos6mzvddg9l" class="animable"></path><path d="M210.23,263.3a2.31,2.31,0,0,1-1.83-.13l-1.9-1.09a2.4,2.4,0,0,1-1.08-1.88V258a2.27,2.27,0,0,1,.31-1.07l4.06,2.35a2.26,2.26,0,0,0-.31,1.06v2.2C209.48,263.11,209.79,263.39,210.23,263.3Z" style="fill: rgb(38, 50, 56); transform-origin: 207.825px 260.18px;" id="eludry2jl9c0k" class="animable"></path><path d="M209.48,262.55v-2.19a2.4,2.4,0,0,1,1.08-1.88l10-5.79c.6-.34,1.08-.06,1.08.63v2.19a2.4,2.4,0,0,1-1.08,1.88l-10,5.78C210,263.52,209.48,263.24,209.48,262.55Z" style="fill: rgb(55, 71, 79); transform-origin: 215.56px 257.933px;" id="elmrascn9ieji" class="animable"></path></g></g><g id="freepik--Character--inject-4" class="animable" style="transform-origin: 396.711px 277.022px;"><g id="freepik--character--inject-4" class="animable" style="transform-origin: 396.711px 277.022px;"><g id="freepik--shadow--inject-4"><path d="M435.9,298.69a12.82,12.82,0,0,0-5.32-6.82L400,274.21a31.09,31.09,0,0,0-5.7-.37c-6.73.21-13.15,2.82-19.18,5.81-13.69,6.81-27.68,11.65-40.29,20.42-1.6,1.12-6,3.79-3.48,6.53a8.12,8.12,0,0,0,5.43,2.06c4-.31,11.9-6.68,10.65-4.8a6.84,6.84,0,0,0-1.07,3.62,2.63,2.63,0,0,0,1.51,2.39c1.1.37,1.58-1.88,2.06-3.15a11.8,11.8,0,0,1,4.57-5.69,15.74,15.74,0,0,1,10.94-1.91,47.11,47.11,0,0,1,10.78,3.48c5.74,2.38,9.6,3.7,15.05,6.67,2.52,1.37,9.59,5.78,10,6.26.61.73.48,5.89.55,6.83l.36,5.27,28.42-16.41a12.62,12.62,0,0,0,4.85-5.62c0-.23.08-.47.11-.7A31.5,31.5,0,0,0,435.9,298.69Z" style="opacity: 0.15; transform-origin: 383.259px 300.729px;" class="animable" id="el1vwouwv38xq"></path></g><path d="M414.33,332.12c-.8.67-1.72,1.46-1.73,2.41a9.62,9.62,0,0,0,2,5.65c1.75,2.37,2.6,6.6,2.66,9.42s-.46,9.93,2.76,13.1,11.6,5.51,12.17.35-7.45-26.16-7.45-26.16Z" style="fill: rgb(38, 50, 56); transform-origin: 422.409px 349.098px;" id="elu8sbg34mzn8" class="animable"></path><path d="M418.7,336a77.21,77.21,0,0,1,2.23,11.48c.42,4.24,1.32,7.3,3.31,8.65s5.17,1.49,4.3-1.46-3.83-17.74-3.83-17.74Z" style="fill: rgb(154, 74, 77); transform-origin: 423.694px 346.526px;" id="elaar5siuktrs" class="animable"></path><path d="M399.14,262.38s15.95,9.54,23.64,14.82,15,10.43,16.22,14.14c1.3,3.93-.11,12.78-1.95,21.24s-5.39,23.64-5.39,23.64l-20-38.48-22.29-18.52Z" style="fill: rgb(177, 102, 104); transform-origin: 414.438px 299.3px;" id="ell5ltv971fn" class="animable"></path><path d="M409,294.89l-19.94-13.61,10.09-18.9s14.78,8.5,25.69,15.8c8.84,5.91,15.16,10.51,15.21,14.37s-1.42,17.12-3.63,22.62c0,0-8.72,2.86-16.36-.53Z" style="fill: #407BFF; transform-origin: 414.556px 289.339px;" id="el7hcswoq0tu4" class="animable"></path><g id="el28ga4tybxzy"><path d="M409,294.89l-19.94-13.61,10.09-18.9s14.78,8.5,25.69,15.8c8.84,5.91,15.16,10.51,15.21,14.37s-1.42,17.12-3.63,22.62c0,0-8.72,2.86-16.36-.53Z" style="fill: rgb(255, 255, 255); opacity: 0.6; transform-origin: 414.556px 289.339px;" class="animable" id="el81iaswgn4fk"></path></g><g id="eldakm7zbrbti"><path d="M426.47,302.8c-1.76-5.75-6.94-9.27-11.44-12.78-3.57-2.8-12.17-9.08-15.68-11.67a9.31,9.31,0,0,0,.61-5.58c-1.88,4.93-3.16,6.08-3.16,6.08l22.39,20.89,13.54,32.05S428.23,308.54,426.47,302.8Z" style="opacity: 0.15; transform-origin: 414.765px 302.28px;" class="animable" id="el1k868kniqlj"></path></g><path d="M430.75,363.28c-.74.38-.83,2.11-.9,3.37s-1.16,2.8.45,4.94,4.66,2.64,6.85,5.55,5.47,8.21,12.26,9.31,11.81-1.37,13-3.43-.06-3.91-4.48-6.15c-4.69-2.39-6-3.1-6-3.1Z" style="fill: rgb(38, 50, 56); transform-origin: 446.13px 375.001px;" id="eldnx7p0nwbpf" class="animable"></path><path d="M437.31,349.11s3.69,8.83,5.86,12.86a47.51,47.51,0,0,0,9.12,11.26c.79.76,2.56,2.14,3.21,2.75a1.29,1.29,0,0,1,.05,2c-1.32,1.53-7.47,2.45-11.18.18s-7.57-6.88-9.84-8.77l-3-2.53a2.81,2.81,0,0,1-.95-2.6c0-.27.1-.6.15-1,.29-2-3.12-10-3.12-10Z" style="fill: rgb(177, 102, 104); transform-origin: 441.805px 364.317px;" id="eleolb4jtil6" class="animable"></path><path d="M361.41,267c-.92,5.48-2.66,11.07.62,17.79,3.17,6.5,12.24,11.81,22.17,16.41,8.22,3.81,20.32,9.28,22.75,10.09s2.8,2.2,2.89,6.67,2.32,11.6,8.12,20.23a214.64,214.64,0,0,1,11.52,19.84s7,.77,10.14-3.58c0,0-14.36-47.87-16.89-53.49s-26.14-22.32-26.14-22.32a31.13,31.13,0,0,0,2.55-16.28Z" style="fill: rgb(177, 102, 104); transform-origin: 399.869px 310.221px;" id="elhovnfoczzcg" class="animable"></path><path d="M399.87,309.15s-18-7.58-28.74-14.28c-14.79-9.18-12-18-10.5-27.49l38.51-5c2.27,10.32-2.14,16.37-2.14,16.37l13.75,10.38c7.16,5.51,12,8.6,13.45,13.15s6.11,21.7,6.11,21.7a27.68,27.68,0,0,1-17,6.09s-3.35-5.43-3.89-9.38.33-7.07-1.29-7.93S404.37,311.11,399.87,309.15Z" style="fill: #407BFF; transform-origin: 394.849px 296.225px;" id="elszuhlbicdlq" class="animable"></path><g id="el1kdiy7rmvd2"><path d="M399.87,309.15s-18-7.58-28.74-14.28c-14.79-9.18-12-18-10.5-27.49l38.51-5c2.27,10.32-2.14,16.37-2.14,16.37l13.75,10.38c7.16,5.51,12,8.6,13.45,13.15s6.11,21.7,6.11,21.7a27.68,27.68,0,0,1-17,6.09s-3.35-5.43-3.89-9.38.33-7.07-1.29-7.93S404.37,311.11,399.87,309.15Z" style="fill: rgb(255, 255, 255); opacity: 0.6; transform-origin: 394.849px 296.225px;" class="animable" id="elcu5x8owuwvd"></path></g><path d="M385.49,212.51a43.09,43.09,0,0,1,8.49,0,15.37,15.37,0,0,1,5.81,2.36C404.5,218,415.5,227,422.34,232.15c0,0,5.76-2.89,9.66-5.27,3.49-2.13,5.33,12-1,15.94-6.92,4.31-7.83,4.3-12.83,1.75-5.26-2.68-15.76-9.38-20.09-12.1Z" style="fill: rgb(177, 102, 104); transform-origin: 410.34px 229.305px;" id="elwr1svxdpmgc" class="animable"></path><path d="M422.34,232.15c-2.33,1.41-3.69,5.58-3.69,5.58s-.41-4.42,2.82-6.24Z" style="fill: rgb(154, 74, 77); transform-origin: 420.487px 234.61px;" id="el9akf682ipb" class="animable"></path><path d="M444.84,216.55h0l-1-.7h0a1.07,1.07,0,0,0-1,0l-9.92,4a3.78,3.78,0,0,0-2.05,2.42L426,244.39a1,1,0,0,0,.26,1.07h0l1.07.73h0a1.08,1.08,0,0,0,1,0l9.92-4a3.81,3.81,0,0,0,2.05-2.42c1-4.35,3.94-17.78,4.91-22.13A1,1,0,0,0,444.84,216.55Z" style="fill: rgb(69, 90, 100); transform-origin: 435.596px 231.019px;" id="eljxxlnjsv62" class="animable"></path><path d="M432.91,221.27a3.68,3.68,0,0,0-1,1.7L427,245.09a1,1,0,0,0,.22,1.06l-1-.68h0a1,1,0,0,1-.26-1.07l4.9-22.13a3.72,3.72,0,0,1,.92-1.61Z" style="fill: rgb(38, 50, 56); transform-origin: 429.406px 233.405px;" id="elzp6cm8wq2wh" class="animable"></path><path d="M427,245.1,431.9,223a3.82,3.82,0,0,1,2.06-2.42l9.92-4c.92-.37,1.49.12,1.28,1.09-1,4.35-3.94,17.78-4.91,22.13a3.81,3.81,0,0,1-2.05,2.42l-9.92,4C427.36,246.55,426.79,246.06,427,245.1Z" style="fill: rgb(55, 71, 79); transform-origin: 436.08px 231.39px;" id="elluc5e8vapbm" class="animable"></path><path d="M444.05,222.64c2-.71,3.35,1.36,3.44,5.15s-1.68,10.93-7.62,9.55c-2.31-.53-4.18-4.2-1.92-6a39,39,0,0,0,5.24-4.8Z" style="fill: rgb(177, 102, 104); transform-origin: 442.211px 230.008px;" id="el6vdiv32ban" class="animable"></path><path d="M401.77,263.88,397.13,259l-1.95-5.19-1-9.61c5.36-3.47,7.32-10,5.2-15.07a33.52,33.52,0,0,0-6-9.41c-4.2-4.85-6.3-6.47-7.9-7.25-2.2-.18-3.84-.15-3.84-.15s-9.15.73-12.95,1.27a64.19,64.19,0,0,0-6.62,1.28c2.88,4.05,4.34,11.3,2.27,17.48a10.22,10.22,0,0,1-7.27,7.1s.59,9.22.93,13.84c.55,7.33.35,13.33,1.2,23.69,8.6,3.17,22.4.9,32.07-4.21C400.79,267.79,401.77,263.88,401.77,263.88Z" style="fill: rgb(55, 71, 79); transform-origin: 379.42px 245.378px;" id="el9yx4mnosd5t" class="animable"></path><path d="M386,244.37a15.92,15.92,0,0,1-18.13-.63,10.89,10.89,0,0,0,8.9,5.57C384.46,249.59,386,244.37,386,244.37Z" style="fill: rgb(38, 50, 56); transform-origin: 376.935px 246.53px;" id="elt86uymuobq" class="animable"></path><path d="M386.13,169.17a4.87,4.87,0,0,1-1.55-.21,28.2,28.2,0,0,0-6.1-1.29A22,22,0,0,0,368.16,169a19.31,19.31,0,0,0-11.46,12.8c-1.78,6.62.52,12.8,4.32,17.71,2,2.57,5.64,5.07,7.09,6.08l1.37-1.5a15.38,15.38,0,0,0,7.53,1.63c2.52-.07,5,.26,7.41-.78a10.05,10.05,0,0,0,5.67-6.32,12.51,12.51,0,0,1,.88-2.76,9.73,9.73,0,0,1,2.24-2.29,16.76,16.76,0,0,0,5.52-10.23,6.24,6.24,0,0,0-.3-3.51,2.91,2.91,0,0,0-2.81-1.81,12.61,12.61,0,0,0,1.56-4.11,4.33,4.33,0,0,0-1.38-4,6.05,6.05,0,0,0-3.63-.91h-.31c-1.28,0-2.57,0-3.85,0C387.37,169.09,386.75,169.16,386.13,169.17Z" style="fill: rgb(38, 50, 56); transform-origin: 377.472px 186.634px;" id="elule6svlr62" class="animable"></path><path d="M388.64,176.51c2.35,1.27,5.75,5.3,5.61,17.43-.12,10.05-3.33,13.26-5,14.05s-4.14.67-7.29.27l-.22,4.31c7.67,5.56,9.59,12.33,2.5,11.66-9-.85-16-8.7-16-9.5L368,201.25a4.32,4.32,0,0,1-5.06-1c-2.3-2.65-3-6.58-1.09-8.7s5.19-1.37,6.77.79c0,0,4.16-.1,10.67-4S387.28,181.29,388.64,176.51Z" style="fill: rgb(177, 102, 104); transform-origin: 377.5px 200.393px;" id="elprg0zyun4ne" class="animable"></path><path d="M368.66,192.3l-.07,4.85h0a3.45,3.45,0,0,0,3.5-3.4l.08-5.8Z" style="fill: rgb(38, 50, 56); transform-origin: 370.38px 192.55px;" id="elyklhdteyce8" class="animable"></path><path d="M393,187.21l-3-1.14a1.53,1.53,0,0,1,2-.95A1.67,1.67,0,0,1,393,187.21Z" style="fill: rgb(38, 50, 56); transform-origin: 391.542px 186.114px;" id="el2rp7ljfrk8v" class="animable"></path><path d="M381.35,200.3l4.51.9a2.21,2.21,0,0,1-2.62,1.84A2.42,2.42,0,0,1,381.35,200.3Z" style="fill: rgb(154, 74, 77); transform-origin: 383.591px 201.692px;" id="el11jc8tjoqffh" class="animable"></path><polygon points="385.25 189.42 385.87 197.84 389.97 196.57 385.25 189.42" style="fill: rgb(154, 74, 77); transform-origin: 387.61px 193.63px;" id="elnm20agpddl" class="animable"></polygon><path d="M382,208.26c-3.32-.3-10.2-2-11.36-4.62a7,7,0,0,0,2.52,3.33c2.1,1.66,8.72,3.67,8.72,3.67Z" style="fill: rgb(154, 74, 77); transform-origin: 376.32px 207.14px;" id="elcseckn2gbwn" class="animable"></path><path d="M381.81,192.38a1.38,1.38,0,1,1-1.37-1.37A1.37,1.37,0,0,1,381.81,192.38Z" style="fill: rgb(38, 50, 56); transform-origin: 380.43px 192.39px;" id="eldqbzi3uahw8" class="animable"></path><circle cx="390.88" cy="191.3" r="1.37" style="fill: rgb(38, 50, 56); transform-origin: 390.88px 191.3px;" id="elfbs1may847c" class="animable"></circle><path d="M363.52,171.67c-4.75,3.3-8,7.55-8.95,18.69-.72,8.51,1.21,14,3.28,16.24s10.89,7.74,14.9,4.41a5.86,5.86,0,0,1-3.48-3.12,18.55,18.55,0,0,1-1.21-5.77s-4.08.06-5.72-1.73-3.33-9.42-3-13.18C359.77,182.8,363.52,171.67,363.52,171.67Z" style="fill: rgb(38, 50, 56); transform-origin: 363.583px 191.862px;" id="el3c0n1ykdtre" class="animable"></path><path d="M368.66,192.3s-.9-7.6,2.46-13,9.72-10,15-10.14c0,0-3.72-2.59-10.16-1.62,0,0-12.39,4.5-9.6,23A5.85,5.85,0,0,1,368.66,192.3Z" style="fill: #407BFF; transform-origin: 376.035px 179.811px;" id="el41oru59lm5g" class="animable"></path><path d="M362.08,214.91c-5.49,1.41-9.89,2.83-11.72,8.21-1,2.8-2.58,32.31-2.77,37s-.24,29.77-.58,30.59c-.7,1.7-7.73,4.72-10.17,6.23a19.74,19.74,0,0,0-5.72,5.35c-1.09,1.68,2.7,4.38,6.15,4.15,2-.14,9.36-5.09,12-5.33,1.7-.15-1.12,2.94-1.22,5.37-.08,1.76,1.52,2.3,1.93,1.31.52-1.24,4-5.44,5-6.72,1.48-1.76,3.93-5.42,3.93-8.89,0-4.48.59-14.91,2-29.79,1.17-12.48,2.14-21.86,2.14-21.86A37,37,0,0,0,366,227,17.67,17.67,0,0,0,362.08,214.91Z" style="fill: rgb(177, 102, 104); transform-origin: 348.478px 261.596px;" id="el1dmtyc98yrh" class="animable"></path></g></g><g id="freepik--speech-bubbles--inject-4" class="animable" style="transform-origin: 436.355px 131.603px;"><g id="freepik--speech-bubble--inject-4" class="animable" style="transform-origin: 436.355px 131.603px;"><g id="freepik--speech-bubble--inject-4" class="animable" style="transform-origin: 436.355px 131.603px;"><path d="M433.88,166.3a.52.52,0,0,1-.22-.22L430.89,156v-2.64l8.14-3.18v2.63l-1,2.85,4.84-2.79.29,1.63-2.88,14.71a.62.62,0,0,1-.88.33Z" style="fill: #407BFF; transform-origin: 437.025px 159.898px;" id="elnlci96e9by9" class="animable"></path><g id="elemlswq925m"><path d="M433.88,166.3a.52.52,0,0,1-.22-.22L430.89,156v-2.64l8.14-3.18v2.63l-1,2.85,4.84-2.79.29,1.63-2.88,14.71a.62.62,0,0,1-.88.33Z" style="opacity: 0.3; transform-origin: 437.025px 159.898px;" class="animable" id="elbjihkidbkl9"></path></g><path d="M442.89,152.87l.29,1.63-2.88,14.71a.6.6,0,0,1-1.09.1l-3.13-10.71.36-2Z" style="fill: #407BFF; transform-origin: 439.63px 161.243px;" id="el74ygedal62v" class="animable"></path><path d="M460.76,98.78a5.83,5.83,0,0,0-2.63-4.56h0a5.83,5.83,0,0,0-5.27,0l-38.28,21.87a5.83,5.83,0,0,0-2.63,4.56v42.88a5.83,5.83,0,0,0,2.63,4.57h0a5.83,5.83,0,0,0,5.27,0l38.52-22c2.37-1.35,2.39-2.71,2.39-4.39Z" style="fill: #407BFF; transform-origin: 436.355px 131.16px;" id="el50eo01wugrm" class="animable"></path><g id="elbl2mwek8e18"><path d="M412,163.53a5.83,5.83,0,0,0,2.63,4.57h0a5.9,5.9,0,0,0,4.82.22c-1.24.47-2.18-.24-2.18-1.75V123.69a5.31,5.31,0,0,1,.77-2.59l-5.27-3a5.31,5.31,0,0,0-.77,2.59Z" style="opacity: 0.2; transform-origin: 415.725px 143.416px;" class="animable" id="el3fpjud6udzt"></path></g><g id="el3ugegu8ex4b"><path d="M460.68,98c-.31-1.12-1.33-1.47-2.55-.77l-38.28,21.87a5.21,5.21,0,0,0-1.86,2l-5.26-3a5.42,5.42,0,0,1,1.85-2l38.27-21.87a5.91,5.91,0,0,1,5.28,0h0A5.82,5.82,0,0,1,460.68,98Z" style="fill: rgb(255, 255, 255); opacity: 0.5; transform-origin: 436.705px 107.354px;" class="animable" id="ellccyb1ba3ed"></path></g></g><path id="freepik--Key--inject-4" d="M427.36,129.76a4.51,4.51,0,0,1,1.7-3.61c.95-.54,1.71.19,1.71,1.64a4.47,4.47,0,0,1-1.71,3.61C428.12,131.94,427.36,131.21,427.36,129.76Zm-2.56,1.56c0,2.84.86,4.87,2.21,5.72l0,0,.08,0,.15.09.17.07.17.07.21.06.16,0a3,3,0,0,0,1.12,0,2.33,2.33,0,0,0,.36-.08,3,3,0,0,0,.39-.13,5.17,5.17,0,0,0,.72-.34c1.89-1.1,3.57-3.47,4.63-6.25,0-.07.05-.14.07-.21a16.59,16.59,0,0,0,.6-2l3.18-1.83.63-2.63,1.9-1.1,1.54,1.37,1.23-.71,1.12-1.91,1.95-1.17.74.89,2.2-1.28,2.24-4.72v-2.47l-16.47,9.51a7.32,7.32,0,0,0-.58-1.8l-.15-.28c-.11-.19-.22-.36-.34-.53s-.12-.15-.19-.22l-.16-.18-.06,0a2.06,2.06,0,0,0-.4-.33c-.07-.06-.15-.1-.22-.15l-.1,0a3.38,3.38,0,0,0-3.36.27c-2.71,1.57-5,5.76-5.61,10A15.6,15.6,0,0,0,424.8,131.32Z" style="fill: rgb(250, 250, 250); transform-origin: 438.684px 125.071px;" class="animable"></path><g id="freepik--numbers--inject-4" class="animable" style="transform-origin: 438.691px 144.202px;"><path d="M420.74,160a2.9,2.9,0,0,1,.06-.4l2.37-10.81-2.41,1.39c-.12.07-.21,0-.26-.05a1.69,1.69,0,0,1-.08-.62v-.29a2.62,2.62,0,0,1,.08-.71.6.6,0,0,1,.26-.35l3.88-2.24c.06,0,.13.11.21.44a3.57,3.57,0,0,1,.13.92,1,1,0,0,1,0,.24L422.44,159a.83.83,0,0,1-.21.39,2,2,0,0,1-.44.33l-.41.24C421,160.24,420.74,160.25,420.74,160Z" style="fill: rgb(69, 90, 100); transform-origin: 422.702px 153.05px;" id="el2ge3o9381fy" class="animable"></path><path d="M426.46,156.72a2.3,2.3,0,0,1,.07-.4l2.36-10.8-2.41,1.39c-.11.07-.2.05-.25-.06a1.44,1.44,0,0,1-.08-.61v-.3a2.2,2.2,0,0,1,.08-.7.62.62,0,0,1,.25-.36l3.89-2.24q.09,0,.21.45a3.93,3.93,0,0,1,.12.91.9.9,0,0,1,0,.24l-2.52,11.49a.83.83,0,0,1-.21.39,1.92,1.92,0,0,1-.43.32l-.42.24C426.68,156.93,426.46,156.94,426.46,156.72Z" style="fill: rgb(69, 90, 100); transform-origin: 428.426px 149.758px;" id="elueczmel8sjs" class="animable"></path><path d="M432.34,153.4c-.38,0-.57-.21-.57-.56a2.56,2.56,0,0,1,.1-.55,5.35,5.35,0,0,1,.25-.74.8.8,0,0,1,.26-.42.86.86,0,0,1,.24,0,1.49,1.49,0,0,0,.48,0,1.62,1.62,0,0,0,.61-.22,1.71,1.71,0,0,0,.69-.88,3.8,3.8,0,0,0,.25-1.45,2.18,2.18,0,0,0-.26-1.29c-.17-.22-.46-.22-.86,0l-1.06.61q-.24.14-.33,0a.84.84,0,0,1-.09-.49l.22-5.26a1.42,1.42,0,0,1,.13-.61.79.79,0,0,1,.34-.36l3-1.73c.12-.07.21,0,.26.05a1.69,1.69,0,0,1,.08.62v.46a1.75,1.75,0,0,1-.08.58.57.57,0,0,1-.26.31l-2,1.13-.11,2.54.17-.09c.81-.47,1.43-.53,1.86-.19s.64,1.22.64,2.62A7.5,7.5,0,0,1,436,150a5.89,5.89,0,0,1-1,1.8,4.52,4.52,0,0,1-1.25,1.1A2.7,2.7,0,0,1,432.34,153.4Z" style="fill: rgb(69, 90, 100); transform-origin: 434.04px 146.41px;" id="elkiqii1tsizm" class="animable"></path><path d="M437.5,146.77a1.66,1.66,0,0,1-.08-.62V146a2.54,2.54,0,0,1,.08-.7.53.53,0,0,1,.25-.35l1.92-1.11c.11-.07.2-.05.25.06a1.69,1.69,0,0,1,.08.62v.12a2.54,2.54,0,0,1-.08.7.56.56,0,0,1-.25.35l-1.92,1.11C437.63,146.9,437.55,146.88,437.5,146.77Z" style="fill: rgb(69, 90, 100); transform-origin: 438.71px 145.332px;" id="elmqiw8qg0n1" class="animable"></path><path d="M441,148.09a5.07,5.07,0,0,1-.1-.92.69.69,0,0,1,0-.28l2.45-6.9a10.11,10.11,0,0,0,.34-1.14,3.84,3.84,0,0,0,.1-.85c0-.4-.08-.66-.24-.77s-.38-.08-.65.07a2,2,0,0,0-.52.45,6.48,6.48,0,0,0-.49.67,1.61,1.61,0,0,1-.29.38c-.17.1-.32,0-.45-.16a1.19,1.19,0,0,1-.2-.66,2.5,2.5,0,0,1,.69-1.56,5.64,5.64,0,0,1,1.52-1.31q1.11-.65,1.71-.12a2.55,2.55,0,0,1,.61,1.95,8.87,8.87,0,0,1-.6,3l-1.95,5.54,2.26-1.31c.13-.07.21,0,.26.06a1.44,1.44,0,0,1,.08.61v.3a2.2,2.2,0,0,1-.08.7.55.55,0,0,1-.26.36l-4,2.32C441.11,148.56,441,148.42,441,148.09Z" style="fill: rgb(69, 90, 100); transform-origin: 443.21px 141.639px;" id="ela84f6ucxmv9" class="animable"></path><path d="M447.28,143.54a11.44,11.44,0,0,1-.57-4.28,17.77,17.77,0,0,1,.57-4.92,4.17,4.17,0,0,1,1.73-2.6c.77-.45,1.35-.24,1.73.61a11.36,11.36,0,0,1,.57,4.26,17.82,17.82,0,0,1-.57,4.92,4.21,4.21,0,0,1-1.73,2.61C448.23,144.59,447.66,144.39,447.28,143.54Zm2.06-1.95a5.89,5.89,0,0,0,.19-1.34c0-.62.06-1.5.06-2.65s0-2-.06-2.58a3.49,3.49,0,0,0-.19-1.12c-.08-.17-.19-.22-.33-.13a.85.85,0,0,0-.34.52,7.34,7.34,0,0,0-.19,1.34c0,.62-.06,1.51-.06,2.65s0,2,.06,2.58a4.18,4.18,0,0,0,.19,1.12c.08.17.2.22.34.14A.9.9,0,0,0,449.34,141.59Z" style="fill: rgb(69, 90, 100); transform-origin: 449.01px 137.941px;" id="el7asi3n5o2fm" class="animable"></path><path d="M453.61,141.34a1.83,1.83,0,0,1-.91.06c-.25-.06-.37-.26-.37-.6a2.66,2.66,0,0,1,.09-.54,6.41,6.41,0,0,1,.21-.7.74.74,0,0,1,.25-.39.38.38,0,0,1,.24,0,2,2,0,0,0,.52.1,1.23,1.23,0,0,0,.57-.19,1.9,1.9,0,0,0,.76-.88,3.24,3.24,0,0,0,.28-1.4,1.67,1.67,0,0,0-.29-1.16c-.2-.18-.51-.14-.95.11l-.39.22c-.12.07-.21.05-.26-.05a1.69,1.69,0,0,1-.08-.62V135a2.54,2.54,0,0,1,.08-.7.59.59,0,0,1,.26-.36l.29-.17a2,2,0,0,0,.79-.85,2.49,2.49,0,0,0,.29-1.21,1.46,1.46,0,0,0-.21-.91c-.14-.16-.35-.17-.62,0a1.58,1.58,0,0,0-.48.39,3.9,3.9,0,0,0-.34.46,1,1,0,0,1-.22.28c-.11.07-.23,0-.36-.26a1.54,1.54,0,0,1-.2-.73,2,2,0,0,1,.59-1.27,5.5,5.5,0,0,1,1.41-1.15c.65-.37,1.16-.39,1.55-.07a2.44,2.44,0,0,1,.57,1.88,5.2,5.2,0,0,1-.28,1.71,4.29,4.29,0,0,1-.77,1.42v.07a1.08,1.08,0,0,1,1,.63,3.73,3.73,0,0,1,.33,1.72,7.08,7.08,0,0,1-.65,3.06,4.34,4.34,0,0,1-1.7,2A5.08,5.08,0,0,1,453.61,141.34Z" style="fill: rgb(69, 90, 100); transform-origin: 454.647px 134.828px;" id="el3lozgd5cqis" class="animable"></path></g></g></g><defs>     <filter id="active" height="200%">         <feMorphology in="SourceAlpha" result="DILATED" operator="dilate" radius="2"></feMorphology>                <feFlood flood-color="#32DFEC" flood-opacity="1" result="PINK"></feFlood>        <feComposite in="PINK" in2="DILATED" operator="in" result="OUTLINE"></feComposite>        <feMerge>            <feMergeNode in="OUTLINE"></feMergeNode>            <feMergeNode in="SourceGraphic"></feMergeNode>        </feMerge>    </filter>    <filter id="hover" height="200%">        <feMorphology in="SourceAlpha" result="DILATED" operator="dilate" radius="2"></feMorphology>                <feFlood flood-color="#ff0000" flood-opacity="0.5" result="PINK"></feFlood>        <feComposite in="PINK" in2="DILATED" operator="in" result="OUTLINE"></feComposite>        <feMerge>            <feMergeNode in="OUTLINE"></feMergeNode>            <feMergeNode in="SourceGraphic"></feMergeNode>        </feMerge>            <feColorMatrix type="matrix" values="0   0   0   0   0                0   1   0   0   0                0   0   0   0   0                0   0   0   1   0 "></feColorMatrix>    </filter></defs></svg>