<svg class="animated" id="freepik_stories-team-checklist" xmlns="http://www.w3.org/2000/svg" viewBox="0 0 500 500" version="1.1" xmlns:xlink="http://www.w3.org/1999/xlink" xmlns:svgjs="http://svgjs.com/svgjs"><style>svg#freepik_stories-team-checklist:not(.animated) .animable {opacity: 0;}svg#freepik_stories-team-checklist.animated #freepik--background-simple--inject-24 {animation: 1s 1 forwards cubic-bezier(.36,-0.01,.5,1.38) zoomIn;animation-delay: 0s;}svg#freepik_stories-team-checklist.animated #freepik--Clipboard--inject-24 {animation: 1s 1 forwards cubic-bezier(.36,-0.01,.5,1.38) slideDown,1.5s Infinite  linear wind;animation-delay: 0s,1s;}svg#freepik_stories-team-checklist.animated #freepik--character-3--inject-24 {animation: 1s 1 forwards cubic-bezier(.36,-0.01,.5,1.38) slideRight,1.5s Infinite  linear floating;animation-delay: 0s,1s;}svg#freepik_stories-team-checklist.animated #freepik--character-2--inject-24 {animation: 1s 1 forwards cubic-bezier(.36,-0.01,.5,1.38) slideUp,1.5s Infinite  linear heartbeat;animation-delay: 0s,1s;}svg#freepik_stories-team-checklist.animated #freepik--character-1--inject-24 {animation: 1s 1 forwards cubic-bezier(.36,-0.01,.5,1.38) slideLeft,1.5s Infinite  linear wind;animation-delay: 0s,1s;}            @keyframes zoomIn {                0% {                    opacity: 0;                    transform: scale(0.5);                }                100% {                    opacity: 1;                    transform: scale(1);                }            }                    @keyframes slideDown {                0% {                    opacity: 0;                    transform: translateY(-30px);                }                100% {                    opacity: 1;                    transform: translateY(0);                }            }                    @keyframes wind {                0% {                    transform: rotate( 0deg );                }                25% {                    transform: rotate( 1deg );                }                75% {                    transform: rotate( -1deg );                }            }                    @keyframes slideRight {                0% {                    opacity: 0;                    transform: translateX(30px);                }                100% {                    opacity: 1;                    transform: translateX(0);                }            }                    @keyframes floating {                0% {                    opacity: 1;                    transform: translateY(0px);                }                50% {                    transform: translateY(-10px);                }                100% {                    opacity: 1;                    transform: translateY(0px);                }            }                    @keyframes slideUp {                0% {                    opacity: 0;                    transform: translateY(30px);                }                100% {                    opacity: 1;                    transform: inherit;                }            }                    @keyframes heartbeat {                0% {                    transform: scale(1);                }                10% {                    transform: scale(1.1);                }                30% {                    transform: scale(1);                }                40% {                    transform: scale(1);                }                50% {                    transform: scale(1.1);                }                60% {                    transform: scale(1);                }                100% {                    transform: scale(1);                }            }                    @keyframes slideLeft {                0% {                    opacity: 0;                    transform: translateX(-30px);                }                100% {                    opacity: 1;                    transform: translateX(0);                }            }        </style><g id="freepik--background-simple--inject-24" class="animable" style="transform-origin: 253.547px 247.656px;"><path d="M467.39,328.68c-20.65,41.64-57.28,84.81-101.84,93.11-67.33,12.54-82.62,68.54-197.48,47.88A216,216,0,0,1,119.17,455,185,185,0,0,1,96.81,443.3c-63.52-39-90-109.64-83.7-179.07C21.33,172.91,84.87,137.31,125.79,117S225.05,4.42,338.13,23.76A209.37,209.37,0,0,1,388.4,38.81c36.73,16.44,72.26,46.71,90,86.4q2,4.47,3.74,9.1C504.86,194.56,495.54,271.91,467.39,328.68Z" style="fill: #407BFF; transform-origin: 253.547px 247.656px;" id="elskeiiqw810s" class="animable"></path><g id="elyodeynggirk"><path d="M467.39,328.68c-20.65,41.64-57.28,84.81-101.84,93.11-67.33,12.54-82.62,68.54-197.48,47.88A216,216,0,0,1,119.17,455,185,185,0,0,1,96.81,443.3c-63.52-39-90-109.64-83.7-179.07C21.33,172.91,84.87,137.31,125.79,117S225.05,4.42,338.13,23.76A209.37,209.37,0,0,1,388.4,38.81c36.73,16.44,72.26,46.71,90,86.4q2,4.47,3.74,9.1C504.86,194.56,495.54,271.91,467.39,328.68Z" style="fill: rgb(255, 255, 255); opacity: 0.7; transform-origin: 253.547px 247.656px;" class="animable" id="elhcycahqab47"></path></g></g><g id="freepik--Floor--inject-24" class="animable" style="transform-origin: 249.375px 456.48px;"><line x1="471.8" y1="456.48" x2="485.2" y2="456.48" style="fill: none; stroke: rgb(38, 50, 56); stroke-linecap: round; stroke-linejoin: round; transform-origin: 478.5px 456.48px;" id="eldgx0ako769b" class="animable"></line><line x1="13.55" y1="456.48" x2="461.98" y2="456.48" style="fill: none; stroke: rgb(38, 50, 56); stroke-linecap: round; stroke-linejoin: round; transform-origin: 237.765px 456.48px;" id="eluf25kgnrk1" class="animable"></line></g><g id="freepik--Plants--inject-24" class="animable" style="transform-origin: 250.73px 112.876px;"><g id="el07nt3q5anh5d"><g style="opacity: 0.2; transform-origin: 389.436px 111.896px;" class="animable" id="elb5hr5yvbwda"><path d="M330.64,55.24c3,3.15,12,6.76,12,6.76s.57-6.67.55-7.09c-.21-4.94-3.53-14.36-8.86-15.82a6.55,6.55,0,0,0-8.06,5.49C325.62,48.43,328.1,52.55,330.64,55.24Z" id="el8oti8h6fdv8" class="animable" style="transform-origin: 334.678px 50.4498px;"></path><path d="M420.2,95.72c.06.08,4.16-5.25,4.38-5.61,2.54-4.24,5-13.92,1.33-18.09a6.55,6.55,0,0,0-9.75.14c-2.67,2.85-2.87,7.66-2.24,11.3C414.66,87.73,420.2,95.71,420.2,95.72Z" id="elo2jxs8vqoqf" class="animable" style="transform-origin: 420.697px 82.8172px;"></path><path d="M460.68,74.7c-4.84-2.7-13.81,1.67-17.43,5-.31.29-4.68,5.4-4.58,5.44l.1,0c-1.42.68-2.93,1.43-4.57,2.27-3,1.59-6.42,3.42-10,5.65a116.1,116.1,0,0,0-11.14,7.75A84.87,84.87,0,0,0,402,111.24l-.12.14c.66-1.48,2.38-5.68,2.47-6,1.34-4.75,1.12-14.73-3.49-17.79a6.54,6.54,0,0,0-9.36,2.7c-1.82,3.46-.75,8.15.82,11.49,1.76,3.77,8.64,9.62,9.19,10.09a114.43,114.43,0,0,0-9.24,12.4c-1.65,2.52-3.23,5.1-4.78,7.72.53-1.3,1-2.47,1-2.64,1.34-4.75,1.12-14.73-3.49-17.79a6.54,6.54,0,0,0-9.36,2.7c-1.82,3.46-.75,8.15.82,11.5s7.35,8.49,8.89,9.82c-.58,1-1.18,2-1.76,3-2.79,4.85-5.55,9.7-8.4,14.38-1,1.65-2.05,3.23-3.1,4.83.47-1.16.86-2.13.9-2.29,1.34-4.76,1.12-14.74-3.49-17.8a6.55,6.55,0,0,0-9.36,2.71c-1.82,3.46-.75,8.15.82,11.49s6.79,8,8.62,9.59c-1.12,1.59-2.24,3.2-3.4,4.69-.81,1-1.52,2-2.4,3l-2.5,2.89c-1.66,1.78-3.37,3.62-5,5.31-1.15,1.19-2.26,2.3-3.38,3.42,1-1.63,2.94-4.86,3.07-5.15a25.44,25.44,0,0,0,1.72-12.72,8.24,8.24,0,0,0,.48-1.37A6.55,6.55,0,0,0,353,153.3c-5.48-.78-12.28,6.52-14.45,11-.12.27-1.19,3.26-1.84,5.17.21-1.18.43-2.32.63-3.53.41-2.4.75-4.8,1.12-7.39.14-1.25.28-2.52.42-3.8s.18-2.62.28-3.94c.16-3.08.17-6.2.11-9.35,2.1.35,9.57,1.51,13.16.58s7.88-3.08,9.38-6.69a6.54,6.54,0,0,0-3.88-8.94C352.6,124.76,344.77,131,342,135c-.17.25-1.87,3.39-2.76,5.14-.05-1.9-.09-3.78-.2-5.7-.32-5.52-.82-11.09-1.29-16.66-.15-1.71-.27-3.41-.4-5.11.74.14,9.6,1.7,13.62.66,3.57-.92,7.87-3.08,9.38-6.69a6.56,6.56,0,0,0-3.88-8.94c-5.3-1.6-13.13,4.59-15.94,8.65-.22.31-2.65,4.83-3.21,6-.28-3.75-.53-7.49-.63-11.18a115.15,115.15,0,0,1,.5-15c.34.06,9.57,1.73,13.69.67,3.58-.92,7.88-3.08,9.38-6.69a6.54,6.54,0,0,0-3.88-8.94c-5.29-1.61-13.12,4.59-15.94,8.65-.18.27-2,3.71-2.88,5.37l-.3-.09a83.6,83.6,0,0,1,3.2-14.7c.79-2.65,1.7-5.14,2.64-7.54,1.68.49,9.42,2.63,13.23,2.08s8.17-2.2,10.06-5.61a6.56,6.56,0,0,0-2.87-9.32c-5.09-2.18-13.55,3.12-16.8,6.85-.17.2-1.74,2.46-2.86,4.12.44-1.08.88-2.2,1.32-3.22,1.64-3.85,3.39-7.27,5-10.29.91-1.71,1.76-3.23,2.57-4.65,1.91-.39,9.57-2,12.65-4.24s6.23-5.71,6.33-9.62a6.54,6.54,0,0,0-6.84-6.94c-5.52.41-10.59,9-11.75,13.81-.1.42-.93,7.09-.82,7.07l.11,0c-.81,1.35-1.66,2.81-2.56,4.42-1.64,3-3.47,6.38-5.21,10.21a118.71,118.71,0,0,0-5,12.61A86.46,86.46,0,0,0,336,85a1.09,1.09,0,0,1,0,.18c-.27-1.6-1.16-6-1.26-6.38-1.51-4.71-7.2-12.92-12.73-12.92a6.54,6.54,0,0,0-6.32,7.42c.39,3.89,3.87,7.21,7,9.13,3.56,2.17,12.52,3.26,13.23,3.34a115.22,115.22,0,0,0-.86,15.45c0,3,.12,6,.27,9.07-.28-1.38-.53-2.61-.58-2.77-1.51-4.71-7.2-12.91-12.73-12.92A6.54,6.54,0,0,0,315.7,102c.39,3.89,3.87,7.21,7,9.13s10.82,3,12.84,3.29c.07,1.16.13,2.33.2,3.49.35,5.58.72,11.15.92,16.63.08,1.93.07,3.83.08,5.73-.24-1.22-.46-2.24-.51-2.4-1.51-4.7-7.19-12.91-12.73-12.92a6.54,6.54,0,0,0-6.31,7.43c.38,3.89,3.87,7.21,7,9.13s10.08,2.92,12.48,3.24c-.06,1.95-.11,3.9-.24,5.79-.13,1.28-.16,2.53-.35,3.82s-.34,2.53-.5,3.79c-.41,2.39-.81,4.87-1.26,7.2-.31,1.62-.63,3.16-.94,4.72-.05-1.93-.23-5.68-.28-6-.78-4.88-5.15-13.85-10.62-14.69a6.55,6.55,0,0,0-7.37,6.38c-.2,3.9,2.73,7.71,5.56,10.09,3.11,2.61,11.45,5,12.49,5.28-.53,2.57-1.07,5.06-1.62,7.4-1.87,8.05-3.73,14.7-5.11,19.35l3.45,1.47.09-.31c1.29-4.75,3-11.55,4.77-19.8.55-2.6,1.09-5.4,1.62-8.27a72.4,72.4,0,0,0,8.35-.31c1.41,3.93,6.68,10.08,7.36,10.87-1.86,1.84-3.69,3.62-5.44,5.28-6,5.68-11.22,10.19-14.93,13.32l3.78,1.61c3.56-3.16,8.2-7.4,13.43-12.58,1.9-1.87,3.89-3.9,5.91-6,.88.61,8,5.54,12,6.27,3.63.67,8.44.5,11.32-2.14a6.55,6.55,0,0,0,.22-9.75c-4.13-3.67-13.84-1.33-18.1,1.18-.25.14-2.79,2-4.38,3.29.82-.87,1.63-1.7,2.47-2.6,1.66-1.77,3.27-3.59,5-5.54l2.44-2.94c.84-1,1.6-2.09,2.41-3.14,1.83-2.48,3.57-5.08,5.26-7.73,1.55,1.45,7.15,6.54,10.65,7.75s8.27,1.77,11.52-.41a6.55,6.55,0,0,0,1.69-9.6c-3.53-4.26-13.47-3.41-18.06-1.58-.29.11-3.44,1.8-5.14,2.76,1-1.6,2-3.2,3-4.86,2.78-4.78,5.44-9.71,8.12-14.61q1.23-2.25,2.48-4.48c.55.52,7.07,6.71,11,8.07,3.48,1.2,8.26,1.77,11.51-.41a6.55,6.55,0,0,0,1.7-9.6c-3.54-4.26-13.48-3.41-18.07-1.58-.35.14-4.87,2.57-6,3.25,1.83-3.29,3.68-6.54,5.64-9.68a116.36,116.36,0,0,1,8.67-12.2c.25.25,7,6.74,11.05,8.13,3.49,1.2,8.27,1.77,11.51-.41a6.55,6.55,0,0,0,1.7-9.6c-3.53-4.26-13.48-3.41-18.07-1.58-.3.12-3.75,2-5.37,2.89l-.2-.25a84.88,84.88,0,0,1,10.78-10.49c2.13-1.77,4.26-3.35,6.36-4.83,1.14,1.33,6.41,7.39,9.89,9s8,2.67,11.49.86a6.55,6.55,0,0,0,2.74-9.35c-3-4.63-13-4.88-17.78-3.56-.26.07-2.82,1.1-4.66,1.86,1-.65,1.94-1.35,2.87-2,3.5-2.3,6.84-4.19,9.81-5.84,1.7-.92,3.26-1.73,4.72-2.46,1.8.73,9.1,3.58,12.88,3.44s8.35-1.33,10.59-4.53A6.54,6.54,0,0,0,460.68,74.7Z" id="elnqyb5o8n6fr" class="animable" style="transform-origin: 389.436px 111.896px;"></path></g></g><g id="el3w3vf23flkv"><g style="opacity: 0.2; transform-origin: 112.095px 113.872px;" class="animable" id="elaqgezk6n95t"><path d="M170.93,57.17c-3,3.16-12,6.76-12,6.77s-.57-6.67-.55-7.1c.21-4.94,3.53-14.35,8.87-15.82a6.55,6.55,0,0,1,8,5.49C175.94,50.36,173.46,54.49,170.93,57.17Z" id="elaqrljp1kjlp" class="animable" style="transform-origin: 166.873px 52.3918px;"></path><path d="M81.36,97.65c0,.09-4.15-5.24-4.37-5.61C74.44,87.8,72,78.12,75.66,74a6.55,6.55,0,0,1,9.74.14c2.67,2.86,2.88,7.66,2.25,11.3C86.91,89.66,81.37,97.65,81.36,97.65Z" id="elnw830h3e28n" class="animable" style="transform-origin: 80.8729px 84.7751px;"></path><path d="M40.89,76.63c4.83-2.7,13.8,1.67,17.42,5,.31.29,4.68,5.4,4.59,5.44l-.11,0c1.42.67,2.94,1.42,4.58,2.27,3,1.59,6.41,3.41,10,5.64a119.32,119.32,0,0,1,11.15,7.75A86.87,86.87,0,0,1,99.6,113.17l.11.15c-.66-1.48-2.37-5.69-2.47-6-1.33-4.76-1.12-14.74,3.49-17.8a6.55,6.55,0,0,1,9.37,2.71c1.82,3.45.75,8.15-.82,11.49-1.77,3.77-8.65,9.62-9.2,10.08a116,116,0,0,1,9.25,12.41c1.64,2.51,3.22,5.1,4.78,7.71-.54-1.3-1-2.46-1-2.63-1.33-4.76-1.12-14.74,3.49-17.8a6.55,6.55,0,0,1,9.37,2.71c1.82,3.46.75,8.15-.82,11.49s-7.36,8.5-8.9,9.83c.59,1,1.18,2,1.76,3,2.79,4.85,5.55,9.7,8.4,14.37,1,1.65,2.06,3.24,3.1,4.83-.47-1.15-.85-2.13-.9-2.28-1.33-4.76-1.12-14.74,3.49-17.8a6.55,6.55,0,0,1,9.37,2.71c1.82,3.45.75,8.15-.82,11.49s-6.8,8-8.62,9.58c1.12,1.6,2.24,3.2,3.39,4.7.82,1,1.53,2,2.4,3l2.51,2.88c1.66,1.78,3.36,3.62,5,5.32,1.15,1.18,2.27,2.29,3.39,3.41-1-1.63-2.95-4.86-3.08-5.15a25.32,25.32,0,0,1-1.71-12.72,8.17,8.17,0,0,1-.49-1.36,6.55,6.55,0,0,1,5.19-8.25c5.48-.79,12.28,6.52,14.45,11,.13.26,1.2,3.26,1.84,5.16-.21-1.18-.42-2.31-.62-3.53-.41-2.39-.75-4.8-1.13-7.38-.13-1.26-.27-2.52-.41-3.8s-.18-2.63-.28-4c-.16-3.08-.17-6.2-.12-9.35-2.1.36-9.57,1.51-13.16.59s-7.87-3.09-9.38-6.69a6.56,6.56,0,0,1,3.88-8.95c5.3-1.6,13.13,4.59,15.94,8.65.18.26,1.87,3.4,2.77,5.14.05-1.89.08-3.78.2-5.69.32-5.52.81-11.1,1.29-16.67.14-1.7.26-3.4.4-5.11-.75.14-9.6,1.7-13.62.67-3.58-.92-7.88-3.09-9.38-6.69a6.54,6.54,0,0,1,3.88-8.94c5.29-1.61,13.12,4.58,15.94,8.64.21.31,2.64,4.83,3.2,6,.29-3.74.54-7.48.64-11.18a115.15,115.15,0,0,0-.5-14.95c-.35.06-9.58,1.74-13.7.68-3.57-.92-7.87-3.09-9.38-6.69a6.56,6.56,0,0,1,3.88-9c5.3-1.6,13.13,4.59,15.94,8.65.19.27,2,3.72,2.89,5.37l.3-.09a84.71,84.71,0,0,0-3.21-14.7c-.79-2.65-1.7-5.14-2.63-7.54-1.69.49-9.43,2.63-13.24,2.09-3.65-.52-8.16-2.2-10.06-5.62a6.55,6.55,0,0,1,2.88-9.31c5.09-2.18,13.55,3.11,16.79,6.84.18.2,1.74,2.46,2.86,4.12-.44-1.07-.87-2.19-1.31-3.22-1.65-3.84-3.4-7.27-5-10.28-.9-1.71-1.76-3.24-2.57-4.66-1.91-.39-9.57-2-12.64-4.23S130,34.92,129.92,31a6.56,6.56,0,0,1,6.84-6.95c5.52.41,10.59,9,11.75,13.82.1.41.93,7.09.83,7.07l-.12,0c.81,1.35,1.67,2.81,2.57,4.42,1.64,3,3.46,6.39,5.2,10.21a114,114,0,0,1,5,12.62,84.73,84.73,0,0,1,3.56,14.76c0,.06,0,.12,0,.18.26-1.6,1.15-6.05,1.26-6.38C168.36,76,174,67.83,179.58,67.82a6.56,6.56,0,0,1,6.32,7.43c-.39,3.88-3.88,7.21-7,9.13-3.55,2.16-12.51,3.25-13.23,3.33a115.21,115.21,0,0,1,.87,15.45c0,3-.13,6-.27,9.07.27-1.37.53-2.6.58-2.77,1.51-4.71,7.19-12.91,12.73-12.92a6.56,6.56,0,0,1,6.32,7.43c-.39,3.88-3.88,7.21-7,9.13s-10.82,3-12.84,3.29c-.07,1.16-.12,2.32-.2,3.49-.35,5.58-.72,11.15-.92,16.62-.07,1.93-.07,3.83-.08,5.74.25-1.22.46-2.25.51-2.4,1.51-4.71,7.2-12.92,12.73-12.92a6.54,6.54,0,0,1,6.32,7.42c-.39,3.89-3.87,7.21-7,9.13s-10.08,2.92-12.48,3.24c0,1.95.1,3.9.24,5.79.12,1.29.15,2.53.35,3.82s.33,2.54.5,3.79c.4,2.4.8,4.87,1.26,7.2.3,1.63.62,3.17.94,4.72,0-1.92.22-5.68.27-6,.78-4.88,5.16-13.85,10.63-14.7a6.54,6.54,0,0,1,7.36,6.38c.21,3.9-2.73,7.71-5.55,10.09-3.11,2.62-11.46,5-12.5,5.28.53,2.57,1.08,5.06,1.63,7.4,1.87,8.06,3.73,14.7,5.11,19.36l-3.46,1.47c0-.11,0-.21-.08-.32-1.29-4.74-3.05-11.55-4.78-19.8-.55-2.6-1.09-5.4-1.61-8.27a70.2,70.2,0,0,1-8.36-.31c-1.4,3.93-6.67,10.08-7.36,10.87,1.86,1.85,3.69,3.63,5.44,5.28,6,5.68,11.22,10.2,14.94,13.32L166,203.7c-3.55-3.15-8.19-7.4-13.43-12.57-1.89-1.87-3.89-3.91-5.91-6-.87.6-8,5.54-12,6.27-3.64.66-8.45.49-11.32-2.15a6.54,6.54,0,0,1-.23-9.74c4.14-3.68,13.84-1.34,18.1,1.17.25.15,2.8,2.06,4.38,3.29-.82-.87-1.63-1.7-2.46-2.6-1.67-1.77-3.28-3.59-5-5.54l-2.44-2.94c-.84-1-1.6-2.09-2.41-3.14-1.83-2.47-3.56-5.07-5.25-7.73-1.56,1.46-7.15,6.54-10.66,7.75s-8.27,1.77-11.51-.41a6.54,6.54,0,0,1-1.7-9.59c3.53-4.27,13.48-3.42,18.07-1.59.28.12,3.43,1.81,5.14,2.77-1-1.61-2-3.21-3-4.86-2.77-4.78-5.44-9.71-8.11-14.61-.82-1.51-1.66-3-2.49-4.49-.54.53-7.07,6.71-11,8.07-3.49,1.21-8.27,1.77-11.52-.4a6.55,6.55,0,0,1-1.69-9.6c3.53-4.27,13.48-3.42,18.06-1.58.35.13,4.87,2.57,6,3.24-1.83-3.28-3.68-6.54-5.64-9.67a112.83,112.83,0,0,0-8.66-12.2c-.26.24-7,6.73-11,8.12-3.49,1.2-8.27,1.77-11.52-.41A6.54,6.54,0,0,1,75.07,113c3.53-4.27,13.47-3.42,18.06-1.59.3.12,3.75,2,5.37,2.89l.2-.24a84.32,84.32,0,0,0-10.78-10.5c-2.12-1.77-4.25-3.34-6.36-4.83-1.14,1.34-6.41,7.39-9.89,9-3.33,1.59-8,2.67-11.48.87a6.55,6.55,0,0,1-2.75-9.36c3.05-4.62,13-4.87,17.79-3.55.26.07,2.81,1.09,4.66,1.86-1-.66-1.94-1.35-2.87-2-3.5-2.3-6.84-4.19-9.82-5.85C65.5,88.82,64,88,62.48,87.28c-1.8.73-9.1,3.58-12.88,3.45S41.25,89.4,39,86.2A6.56,6.56,0,0,1,40.89,76.63Z" id="elepux7xcgeor" class="animable" style="transform-origin: 112.095px 113.872px;"></path></g></g></g><g id="freepik--Calendar--inject-24" class="animable" style="transform-origin: 440.185px 196.675px;"><path d="M475.61,170.63v4.56a2.13,2.13,0,0,1-4.25,0v-4.56H458.93v4.56a2.13,2.13,0,0,1-4.25,0v-4.56H442.26v4.56a2.13,2.13,0,0,1-4.26,0v-4.56H425.58v4.56a2.13,2.13,0,0,1-4.25,0v-4.56H408.9v4.56a2.12,2.12,0,0,1-2.12,2.12,2.12,2.12,0,0,1-2.12-2.12v-4.56H399v59h82.37v-59Zm-63.06,50.49h-6.41v-6.41h6.41Zm0-9.3h-6.41v-6.41h6.41Zm0-9.3h-6.41v-6.41h6.41Zm0-9.3h-6.41v-6.41h6.41Zm10.27,27.9H416.4v-6.41h6.42Zm0-9.3H416.4v-6.41h6.42Zm0-9.3H416.4v-6.41h6.42Zm0-9.3H416.4v-6.41h6.42Zm10.25,27.9h-6.4v-6.41h6.4Zm0-9.3h-6.4v-6.41h6.4Zm0-9.3h-6.4v-6.41h6.4Zm0-9.3h-6.4v-6.41h6.4Zm10.27,27.9h-6.42v-6.41h6.42Zm0-9.3h-6.42v-6.41h6.42Zm0-9.3h-6.42v-6.41h6.42Zm0-9.3h-6.42v-6.41h6.42Zm10.26,27.9h-6.41v-6.41h6.41Zm0-9.3h-6.41v-6.41h6.41Zm0-9.3h-6.41v-6.41h6.41Zm0-9.3h-6.41v-6.41h6.41Zm10.27,27.9h-6.42v-6.41h6.42Zm0-9.3h-6.42v-6.41h6.42Zm0-9.3h-6.42v-6.41h6.42Zm0-9.3h-6.42v-6.41h6.42Zm10.25,27.9h-6.4v-6.41h6.4Zm0-9.3h-6.4v-6.41h6.4Zm0-9.3h-6.4v-6.41h6.4Zm0-9.3h-6.4v-6.41h6.4Z" style="fill: none; stroke: rgb(38, 50, 56); stroke-linecap: round; stroke-linejoin: round; transform-origin: 440.185px 200.13px;" id="elvsjvg9kw1" class="animable"></path><path d="M475.61,165.84v9.35a2.13,2.13,0,0,1-4.25,0v-9.35a2.13,2.13,0,0,1,4.25,0Z" style="fill: none; stroke: rgb(38, 50, 56); stroke-linecap: round; stroke-linejoin: round; transform-origin: 473.485px 170.515px;" id="elnonz6ylw28" class="animable"></path><path d="M458.93,165.84v9.35a2.13,2.13,0,0,1-4.25,0v-9.35a2.13,2.13,0,0,1,4.25,0Z" style="fill: none; stroke: rgb(38, 50, 56); stroke-linecap: round; stroke-linejoin: round; transform-origin: 456.805px 170.515px;" id="elu9kk6h5vfxa" class="animable"></path><path d="M442.26,165.84v9.35a2.13,2.13,0,0,1-4.26,0v-9.35a2.12,2.12,0,0,1,2.13-2.12,2.07,2.07,0,0,1,1.5.62A2.1,2.1,0,0,1,442.26,165.84Z" style="fill: none; stroke: rgb(38, 50, 56); stroke-linecap: round; stroke-linejoin: round; transform-origin: 440.13px 170.52px;" id="el109k3rdrrzxn" class="animable"></path><path d="M425.58,165.84v9.35a2.13,2.13,0,0,1-4.25,0v-9.35a2.12,2.12,0,0,1,2.13-2.12,2.12,2.12,0,0,1,2.12,2.12Z" style="fill: none; stroke: rgb(38, 50, 56); stroke-linecap: round; stroke-linejoin: round; transform-origin: 423.455px 170.447px;" id="elq0uw441gfha" class="animable"></path><path d="M408.9,165.84v9.35a2.12,2.12,0,0,1-2.12,2.12,2.12,2.12,0,0,1-2.12-2.12v-9.35a2.12,2.12,0,0,1,2.12-2.12A2.12,2.12,0,0,1,408.9,165.84Z" style="fill: none; stroke: rgb(38, 50, 56); stroke-linecap: round; stroke-linejoin: round; transform-origin: 406.78px 170.515px;" id="elhf059ik4eif" class="animable"></path></g><g id="freepik--Clock--inject-24" class="animable" style="transform-origin: 72.32px 200.59px;"><circle cx="72.32" cy="200.59" r="33.85" style="fill: none; stroke: rgb(38, 50, 56); stroke-linecap: round; stroke-linejoin: round; transform-origin: 72.32px 200.59px;" id="elrpdj3jy3r68" class="animable"></circle><g id="elz3mj4t0g1za"><circle cx="72.32" cy="200.59" r="29.94" style="fill: none; stroke: rgb(38, 50, 56); stroke-linecap: round; stroke-linejoin: round; transform-origin: 72.32px 200.59px; transform: rotate(-13.14deg);" class="animable" id="elk9c5lwji0v"></circle></g><circle cx="72.32" cy="200.59" r="2.86" style="fill: rgb(38, 50, 56); stroke: rgb(38, 50, 56); stroke-linecap: round; stroke-linejoin: round; transform-origin: 72.32px 200.59px;" id="elidln12io08f" class="animable"></circle><polyline points="82.74 205.69 72.32 200.59 54.95 219.58" style="fill: none; stroke: rgb(38, 50, 56); stroke-linecap: round; stroke-linejoin: round; transform-origin: 68.845px 210.085px;" id="elv77gcqv65n9" class="animable"></polyline></g><g id="freepik--Clipboard--inject-24" class="animable" style="transform-origin: 256.145px 237.33px;"><rect x="129.35" y="72.85" width="253.59" height="375.49" rx="6.08" style="fill: rgb(38, 50, 56); stroke: rgb(38, 50, 56); stroke-linecap: round; stroke-linejoin: round; transform-origin: 256.145px 260.595px;" id="ell0kancj95na" class="animable"></rect><rect x="142.24" y="81.32" width="227.82" height="352.55" style="fill: rgb(255, 255, 255); stroke: rgb(38, 50, 56); stroke-linecap: round; stroke-linejoin: round; transform-origin: 256.15px 257.595px;" id="elm8pjzkdl5pn" class="animable"></rect><line x1="287.96" y1="172.78" x2="305.65" y2="172.78" style="fill: none; stroke: rgb(38, 50, 56); stroke-miterlimit: 10; transform-origin: 296.805px 172.78px;" id="elbb0rfbo5g7o" class="animable"></line><line x1="165.27" y1="172.78" x2="274.26" y2="172.78" style="fill: none; stroke: rgb(38, 50, 56); stroke-miterlimit: 10; transform-origin: 219.765px 172.78px;" id="elqc476hv37c9" class="animable"></line><line x1="261.71" y1="186.48" x2="305.65" y2="186.48" style="fill: none; stroke: rgb(38, 50, 56); stroke-miterlimit: 10; transform-origin: 283.68px 186.48px;" id="el00dd4juqpdkrm" class="animable"></line><line x1="194.37" y1="186.48" x2="249.73" y2="186.48" style="fill: none; stroke: rgb(38, 50, 56); stroke-miterlimit: 10; transform-origin: 222.05px 186.48px;" id="elyj82x1tczrd" class="animable"></line><line x1="165.27" y1="186.48" x2="184.1" y2="186.48" style="fill: none; stroke: rgb(38, 50, 56); stroke-miterlimit: 10; transform-origin: 174.685px 186.48px;" id="elyqf56euamv" class="animable"></line><line x1="220.05" y1="200.17" x2="305.65" y2="200.17" style="fill: none; stroke: rgb(38, 50, 56); stroke-miterlimit: 10; transform-origin: 262.85px 200.17px;" id="el5sdstzfpb7v" class="animable"></line><line x1="165.27" y1="200.17" x2="201.22" y2="200.17" style="fill: none; stroke: rgb(38, 50, 56); stroke-miterlimit: 10; transform-origin: 183.245px 200.17px;" id="el73i1uxrsm0d" class="animable"></line><g id="elc580k70e25w"><circle cx="341.17" cy="185.34" r="14.84" style="fill: none; stroke: rgb(38, 50, 56); stroke-miterlimit: 10; transform-origin: 341.17px 185.34px; transform: rotate(-13.37deg);" class="animable" id="elkrmywmf7dpc"></circle></g><line x1="182.96" y1="233.84" x2="165.27" y2="233.84" style="fill: none; stroke: rgb(38, 50, 56); stroke-miterlimit: 10; transform-origin: 174.115px 233.84px;" id="elk5yzra10wfe" class="animable"></line><line x1="305.65" y1="233.84" x2="196.66" y2="233.84" style="fill: none; stroke: rgb(38, 50, 56); stroke-miterlimit: 10; transform-origin: 251.155px 233.84px;" id="elhcmfctbeut" class="animable"></line><line x1="209.21" y1="247.54" x2="165.27" y2="247.54" style="fill: none; stroke: rgb(38, 50, 56); stroke-miterlimit: 10; transform-origin: 187.24px 247.54px;" id="elqoch81oan1" class="animable"></line><line x1="276.55" y1="247.54" x2="221.19" y2="247.54" style="fill: none; stroke: rgb(38, 50, 56); stroke-miterlimit: 10; transform-origin: 248.87px 247.54px;" id="elkwg4jegvvni" class="animable"></line><line x1="305.65" y1="247.54" x2="286.82" y2="247.54" style="fill: none; stroke: rgb(38, 50, 56); stroke-miterlimit: 10; transform-origin: 296.235px 247.54px;" id="elhy6pm7dmdm" class="animable"></line><line x1="250.87" y1="261.23" x2="165.27" y2="261.23" style="fill: none; stroke: rgb(38, 50, 56); stroke-miterlimit: 10; transform-origin: 208.07px 261.23px;" id="el4amnm8u7lra" class="animable"></line><line x1="305.65" y1="261.23" x2="269.7" y2="261.23" style="fill: none; stroke: rgb(38, 50, 56); stroke-miterlimit: 10; transform-origin: 287.675px 261.23px;" id="el3lv3ipofvhp" class="animable"></line><g id="elpoteki9w9z"><circle cx="341.17" cy="246.39" r="14.84" style="fill: none; stroke: rgb(38, 50, 56); stroke-miterlimit: 10; transform-origin: 341.17px 246.39px; transform: rotate(-13.37deg);" class="animable" id="elb237k3sngnt"></circle></g><line x1="287.96" y1="294.9" x2="305.65" y2="294.9" style="fill: none; stroke: rgb(38, 50, 56); stroke-miterlimit: 10; transform-origin: 296.805px 294.9px;" id="el4aq2awylifu" class="animable"></line><line x1="165.27" y1="294.9" x2="274.26" y2="294.9" style="fill: none; stroke: rgb(38, 50, 56); stroke-miterlimit: 10; transform-origin: 219.765px 294.9px;" id="elzh5kip18mmm" class="animable"></line><line x1="261.71" y1="308.6" x2="305.65" y2="308.6" style="fill: none; stroke: rgb(38, 50, 56); stroke-miterlimit: 10; transform-origin: 283.68px 308.6px;" id="el8x2iouo904i" class="animable"></line><line x1="194.37" y1="308.6" x2="249.73" y2="308.6" style="fill: none; stroke: rgb(38, 50, 56); stroke-miterlimit: 10; transform-origin: 222.05px 308.6px;" id="elc548gpduq7m" class="animable"></line><line x1="165.27" y1="308.6" x2="184.1" y2="308.6" style="fill: none; stroke: rgb(38, 50, 56); stroke-miterlimit: 10; transform-origin: 174.685px 308.6px;" id="elenomxjwc5bs" class="animable"></line><line x1="220.05" y1="322.29" x2="305.65" y2="322.29" style="fill: none; stroke: rgb(38, 50, 56); stroke-miterlimit: 10; transform-origin: 262.85px 322.29px;" id="elr4vrc2lyqr" class="animable"></line><line x1="165.27" y1="322.29" x2="201.22" y2="322.29" style="fill: none; stroke: rgb(38, 50, 56); stroke-miterlimit: 10; transform-origin: 183.245px 322.29px;" id="elng78eiv1fd" class="animable"></line><g id="elr7ilx284hvb"><circle cx="341.17" cy="307.45" r="14.84" style="fill: none; stroke: rgb(38, 50, 56); stroke-miterlimit: 10; transform-origin: 341.17px 307.45px; transform: rotate(-45deg);" class="animable" id="elu46wehl0yo"></circle></g><path d="M275.33,43.28a1.94,1.94,0,0,1-1.94-1.94V30.44a4.12,4.12,0,0,0-4.12-4.12H251.7a4.12,4.12,0,0,0-4.13,4.12v10.9a1.93,1.93,0,0,1-1.93,1.94h0a1.93,1.93,0,0,0-1.94,1.93V74.74h33.56V45.21A1.93,1.93,0,0,0,275.33,43.28Zm-14.85-1a5.41,5.41,0,1,1,5.42-5.41A5.41,5.41,0,0,1,260.48,42.26Z" style="fill: rgb(38, 50, 56); stroke: rgb(38, 50, 56); stroke-linecap: round; stroke-linejoin: round; transform-origin: 260.48px 50.53px;" id="elgmm3fa11bsf" class="animable"></path><path d="M216.73,65.35h87.51A8.65,8.65,0,0,1,312.88,74v9.95a0,0,0,0,1,0,0H208.08a0,0,0,0,1,0,0V74A8.65,8.65,0,0,1,216.73,65.35Z" style="fill: rgb(255, 255, 255); stroke: rgb(38, 50, 56); stroke-linecap: round; stroke-linejoin: round; transform-origin: 260.48px 74.65px;" id="el6xp0390zii3" class="animable"></path><path d="M210.68,68.57h99.61A9.85,9.85,0,0,0,303,65.35H218A9.83,9.83,0,0,0,210.68,68.57Z" style="fill: rgb(38, 50, 56); stroke: rgb(38, 50, 56); stroke-linecap: round; stroke-linejoin: round; transform-origin: 260.485px 66.9599px;" id="elg3gs2acdez9" class="animable"></path><rect x="208.08" y="83.86" width="104.8" height="6.11" style="fill: rgb(255, 255, 255); stroke: rgb(38, 50, 56); stroke-linecap: round; stroke-linejoin: round; transform-origin: 260.48px 86.915px;" id="elm5k6e2g75yg" class="animable"></rect><polyline points="335.51 243.94 339.54 251.1 354.78 236.32" style="fill: none; stroke: #407BFF; stroke-linecap: round; stroke-miterlimit: 10; stroke-width: 6px; transform-origin: 345.145px 243.71px;" id="elnsidfvcu75" class="animable"></polyline><polyline points="335.51 182.23 339.54 189.4 354.78 174.61" style="fill: none; stroke: #407BFF; stroke-linecap: round; stroke-miterlimit: 10; stroke-width: 6px; transform-origin: 345.145px 182.005px;" id="ell0naxtcjw6i" class="animable"></polyline><line x1="287.96" y1="112.42" x2="305.65" y2="112.42" style="fill: none; stroke: rgb(38, 50, 56); stroke-miterlimit: 10; transform-origin: 296.805px 112.42px;" id="elh6t2l0a8bcj" class="animable"></line><line x1="165.27" y1="112.42" x2="274.26" y2="112.42" style="fill: none; stroke: rgb(38, 50, 56); stroke-miterlimit: 10; transform-origin: 219.765px 112.42px;" id="elcucvdqw2ac" class="animable"></line><line x1="261.71" y1="126.11" x2="305.65" y2="126.11" style="fill: none; stroke: rgb(38, 50, 56); stroke-miterlimit: 10; transform-origin: 283.68px 126.11px;" id="el4puthfgmprr" class="animable"></line><line x1="194.37" y1="126.11" x2="249.73" y2="126.11" style="fill: none; stroke: rgb(38, 50, 56); stroke-miterlimit: 10; transform-origin: 222.05px 126.11px;" id="elpafbyadllt" class="animable"></line><line x1="165.27" y1="126.11" x2="184.1" y2="126.11" style="fill: none; stroke: rgb(38, 50, 56); stroke-miterlimit: 10; transform-origin: 174.685px 126.11px;" id="elvftvhl8a94s" class="animable"></line><line x1="220.05" y1="139.81" x2="305.65" y2="139.81" style="fill: none; stroke: rgb(38, 50, 56); stroke-miterlimit: 10; transform-origin: 262.85px 139.81px;" id="elk7o91eyucu" class="animable"></line><line x1="165.27" y1="139.81" x2="201.22" y2="139.81" style="fill: none; stroke: rgb(38, 50, 56); stroke-miterlimit: 10; transform-origin: 183.245px 139.81px;" id="ela7mweiuly7" class="animable"></line><g id="elwq9njmmg2w"><circle cx="341.17" cy="124.97" r="14.84" style="fill: none; stroke: rgb(38, 50, 56); stroke-miterlimit: 10; transform-origin: 341.17px 124.97px; transform: rotate(-45deg);" class="animable" id="elk5duj7z885"></circle></g><polyline points="335.51 121.87 339.54 129.04 354.78 114.25" style="fill: none; stroke: #407BFF; stroke-linecap: round; stroke-miterlimit: 10; stroke-width: 6px; transform-origin: 345.145px 121.645px;" id="elgbtv7o5sgo" class="animable"></polyline><polyline points="333.38 302.16 337.41 309.33 352.64 294.54" style="fill: none; stroke: #407BFF; stroke-linecap: round; stroke-miterlimit: 10; stroke-width: 6px; transform-origin: 343.01px 301.935px;" id="el5r1gkszcgwg" class="animable"></polyline></g><g id="freepik--character-3--inject-24" class="animable" style="transform-origin: 384.732px 339.646px;"><path d="M414.91,207.67s5.41,4.58,5,8.6-5.82,13.86-7.06,16.77,1.66,9.84,1.66,9.84l-18,6.1a7.74,7.74,0,0,0,0-3.19c-.41-1-1.11-3.61-1.11-3.61l-3.6,1.25c-.83.28-3.74-1.11-3.88-2.35s-.14-2.08-.28-3.89a34.67,34.67,0,0,0-.69-5.54c-.28-.55-3.05-2.36-2.91-3.33s3.32-4.71,3.6-5.95-.41-4-.14-5.55,2.91-6.79,2.91-6.79-1.66-1.39,2.91-5.13S409.37,200.05,414.91,207.67Z" style="fill: rgb(255, 255, 255); stroke: rgb(38, 50, 56); stroke-linecap: round; stroke-linejoin: round; transform-origin: 401.984px 225.491px;" id="el2gqa6i5jn4" class="animable"></path><path d="M414.91,207.67c-5.54-7.62-17-6.51-21.62-2.77s-2.91,5.13-2.91,5.13l4.16,3.19s-3.88,4.43-3.32,5,3.6,4.43,3.6,4.43l-.27,1.29-.55-2.09s-1.72,6.89-2,8.61-.33,2.37-1.08,2.59-4-1.39-4-1.39,0,4.08-.13,5.8-.22,3.13-.33,4.63,2.16,4,4.85,3.45,4.14-1.95,4.06-3.35.89-6.23.46-7.2-1.24-5.78-.46-7.9c0,0,1.8-3.88,3.75-3.88s2.21,5.26,1.66,6.51-.83,1.94-.83,1.94,0,.83,5.4,2.63c4.06,1.36,6.32.6,7.2.14a4.07,4.07,0,0,1,.29-1.38c1.24-2.91,6.65-12.75,7.06-16.77S414.91,207.67,414.91,207.67Z" style="fill: rgb(38, 50, 56); stroke: rgb(38, 50, 56); stroke-linecap: round; stroke-linejoin: round; transform-origin: 403.189px 223.81px;" id="elvspj9561khb" class="animable"></path><path d="M400,231.65s-1.25,1.94-2.36,2.36-1.8-1.11-1.8-1.11" style="fill: none; stroke: rgb(38, 50, 56); stroke-linecap: round; stroke-linejoin: round; transform-origin: 397.92px 232.866px;" id="elgvwxijt3cb" class="animable"></path><path d="M388,222.78c0,1,.25,1.8.55,1.8s.56-.8.56-1.8-.25-1.8-.56-1.8S388,221.79,388,222.78Z" style="fill: rgb(38, 50, 56); transform-origin: 388.555px 222.78px;" id="eldy62mn41yl" class="animable"></path><path d="M389.69,220.56s.28-1.8-1.94-1" style="fill: none; stroke: rgb(38, 50, 56); stroke-linecap: round; stroke-linejoin: round; transform-origin: 388.726px 219.958px;" id="elgt0ouwr0qrs" class="animable"></path><path d="M388.37,235.65a5,5,0,0,0,2.08-1.1" style="fill: none; stroke: rgb(255, 255, 255); stroke-linecap: round; stroke-linejoin: round; transform-origin: 389.41px 235.1px;" id="eldhs8cd1678q" class="animable"></path><polygon points="337.62 271.1 368.99 271.1 376.27 295.69 344.9 295.69 337.62 271.1" style="fill: rgb(255, 255, 255); stroke: rgb(38, 50, 56); stroke-linecap: round; stroke-linejoin: round; transform-origin: 356.945px 283.395px;" id="el5mwbdqji2h7" class="animable"></polygon><polygon points="339.85 272.52 367.6 272.52 374.04 294.27 346.29 294.27 339.85 272.52" style="fill: rgb(255, 255, 255); stroke: rgb(38, 50, 56); stroke-linecap: round; stroke-linejoin: round; transform-origin: 356.945px 283.395px;" id="elc45ld7qnxl7" class="animable"></polygon><g id="elyodiw599oca"><rect x="345.13" y="295.94" width="38.28" height="1.66" style="fill: rgb(255, 255, 255); stroke: rgb(38, 50, 56); stroke-linecap: round; stroke-linejoin: round; transform-origin: 364.27px 296.77px; transform: rotate(180deg);" class="animable" id="elif9qhpg2hvc"></rect></g><path d="M395.52,454.91s-3.38,4.73-5.66,6S382,463.57,382,465s.42,1.66,2.91,2.49,7,.83,9.53.83a43.15,43.15,0,0,1,6,.21,61,61,0,0,0,7.46.62c2.07,0,2-5.51,2-5.51Z" style="fill: rgb(255, 255, 255); stroke: rgb(38, 50, 56); stroke-linecap: round; stroke-linejoin: round; transform-origin: 395.95px 462.03px;" id="elpr9v8orl0l" class="animable"></path><path d="M428.87,337.46S424,376.13,419.34,389s-2.67,16.78-5.83,29.9-3.65,44-3.65,44.74-1.46,0-6.56-2.68a25.74,25.74,0,0,1-7.78-6.07,36.18,36.18,0,0,1,.73-4.62c.48-2,1.46-7.05,1.46-7.05s-1.95-16.54.24-43,3.16-57.92,3.16-57.92S418.9,339.89,428.87,337.46Z" style="fill: rgb(38, 50, 56); stroke: rgb(38, 50, 56); stroke-linecap: round; stroke-linejoin: round; transform-origin: 412.195px 400.685px;" id="elaud8mdhbg24" class="animable"></path><path d="M404.39,463.29s-3.5,3.64-5.68,4.81-9,3.64-9.18,4.66.58,3.06,1,3.2a73.77,73.77,0,0,0,11.8,1.31c5.53.15,11.94-.58,13.54-.58s5.39,1.46,5.54-2.91-2.19-10.63-2.19-10.63S411.52,465.48,404.39,463.29Z" style="fill: rgb(255, 255, 255); stroke: rgb(38, 50, 56); stroke-linecap: round; stroke-linejoin: round; transform-origin: 405.46px 470.22px;" id="eliyxr607vtbo" class="animable"></path><path d="M415.75,352s-1.77,25-2.65,32.54S414,408,416,419s2.66,33.86,2.66,33.86a1.77,1.77,0,0,1,.66,2.22,31.71,31.71,0,0,0-1.33,3.32s2.44.88,2.22,2.43-.89,4.43-.89,4.43a46.09,46.09,0,0,1-6,.22,40.65,40.65,0,0,1-8.41-.89l-1.77-.88s-.45-3.54-.45-5.54,2.22-4,2-5.09-1.32-7.3-2.21-12.39-.22-8.19-1.77-13.5-10.18-37-10.18-37-4-36.74-4.21-41.83-.22-7.31-.22-7.31,6.86-5.53,8.41-5.53S415.75,352,415.75,352Z" style="fill: rgb(38, 50, 56); stroke: rgb(38, 50, 56); stroke-linecap: round; stroke-linejoin: round; transform-origin: 403.162px 400.509px;" id="elbuixznepo6j" class="animable"></path><path d="M385.44,337.32s-.76,5.57,0,6.7,7.34,2.91,15.56,3.8,18.73,0,22.27-1.27,5.82-2.4,6.33-3.29.12-5.56.12-5.56S397,339.6,385.44,337.32Z" style="fill: #407BFF; stroke: rgb(38, 50, 56); stroke-linecap: round; stroke-linejoin: round; transform-origin: 407.482px 342.75px;" id="elzsai61eevd9" class="animable"></path><path d="M417.41,246.2s11.64,7.78,13.81,20.14c1.92,11-1.2,49.85-1.2,51.93s1.6,18.92,1.6,18.92c1.65,3.54-11.84,6.78-19.23,7.47-6.54.61-21-.85-25.13-2.9-1.31-.65-2.57-1.36-2.6-2.82-.15-6.79-.5-24.9-.05-27.6.56-3.33-.05-22.73-.05-29.38s-2.49-16.77-.27-21.07,7.9-7.2,7.9-7.2A38.14,38.14,0,0,1,417.41,246.2Z" style="fill: #407BFF; stroke: rgb(38, 50, 56); stroke-linecap: round; stroke-linejoin: round; transform-origin: 407.607px 295.462px;" id="el0ljv1enl9b2b" class="animable"></path><path d="M417.52,285.52a30.61,30.61,0,0,1-3,4.81" style="fill: none; stroke: rgb(38, 50, 56); stroke-linecap: round; stroke-linejoin: round; transform-origin: 416.02px 287.925px;" id="el2hda7tkwutm" class="animable"></path><path d="M425.44,268.94s-2.67,6.08-5.5,11.84" style="fill: none; stroke: rgb(38, 50, 56); stroke-linecap: round; stroke-linejoin: round; transform-origin: 422.69px 274.86px;" id="elwl527a4iw1" class="animable"></path><line x1="419.98" y1="288.15" x2="414.08" y2="296.01" style="fill: none; stroke: rgb(38, 50, 56); stroke-linecap: round; stroke-linejoin: round; transform-origin: 417.03px 292.08px;" id="elsowyor0qnnf" class="animable"></line><path d="M417.55,240.52l2.63,6.65s-5.54.28-10.67,1-17.32,5.55-17.32,5.55,1.24-5,2.21-6a22.59,22.59,0,0,1,11.51-6.1A42.65,42.65,0,0,1,417.55,240.52Z" style="fill: #407BFF; stroke: rgb(38, 50, 56); stroke-linecap: round; stroke-linejoin: round; transform-origin: 406.185px 247.1px;" id="el556n3n8scw" class="animable"></path><path d="M397.49,303.63s-.89,10.47-2,11-29.71-9.45-31.76-10.47a10,10,0,0,0-3.58-1c-.39-.12-3.85-.12-5.13-.77a16.17,16.17,0,0,1-2.94-2.56c-.39-.25-3.46-.38-4.35-1s-2.05-1.15-1.28-1.54a40,40,0,0,1,4.6-1.15s.13-1.79,1.67-2.05,1,.39,4.74-1.79,3.33-.38,6.53,1.92,4.73,4.87,5.12,5,12,4.49,12,4.49Z" style="fill: rgb(255, 255, 255); stroke: rgb(38, 50, 56); stroke-linecap: round; stroke-linejoin: round; transform-origin: 371.844px 302.983px;" id="ellqybjyh5m5a" class="animable"></path><line x1="351.01" y1="296.07" x2="357.29" y2="295.3" style="fill: rgb(255, 255, 255); stroke: rgb(38, 50, 56); stroke-linecap: round; stroke-linejoin: round; transform-origin: 354.15px 295.685px;" id="eloxml3kz2qz" class="animable"></line><path d="M372,300.16s-1.76-1.52-2.95-1-2.92,2.75-3.09,5.51,4.32,3.11,4.32,3.11Z" style="fill: #407BFF; stroke: rgb(38, 50, 56); stroke-linecap: round; stroke-linejoin: round; transform-origin: 368.978px 303.416px;" id="elqqouwq6x9q8" class="animable"></path><path d="M395.61,254.94c-2.31,0-8.39,1.68-10.28,3.78s-2.1,8.18-1.47,16.36,3.84,23.5,3.85,23.58c0-.18-.39.81-.49,1-.42.75.65.87-.35,1a19.4,19.4,0,0,1-2.63.2l-4.4-.75a67.84,67.84,0,0,0-8.89-.94c-.93,0-3.39,7.52-2,9.16s29.2,12.43,31.07,12,5.44-25,5.39-25.15c.54-6.74,1.19-14.64,1.31-15.47" style="fill: #407BFF; stroke: rgb(38, 50, 56); stroke-linecap: round; stroke-linejoin: round; transform-origin: 387.627px 287.641px;" id="eldhozeyp3gke" class="animable"></path><path d="M386.87,300.68a57.22,57.22,0,0,0,5.87,5.35" style="fill: none; stroke: rgb(38, 50, 56); stroke-linecap: round; stroke-linejoin: round; transform-origin: 389.805px 303.355px;" id="el0pk8cd4tsjl" class="animable"></path><path d="M389.46,305.52a18.6,18.6,0,0,0,4.14,2.93" style="fill: none; stroke: rgb(38, 50, 56); stroke-linecap: round; stroke-linejoin: round; transform-origin: 391.53px 306.985px;" id="el6hbzk6syrpe" class="animable"></path></g><g id="freepik--character-2--inject-24" class="animable" style="transform-origin: 264.229px 342.502px;"><path d="M285.76,237.59c-.57-3.43-2.86-5.72-3.44-7.82a26.39,26.39,0,0,0-1.9-4.58,60.6,60.6,0,0,0-4.48,12.5l-.5-1.19L266,243.94l-.56,16.55,15.38.72s-.63-2.74-.85-4.77a21.37,21.37,0,0,1,.35-6s4.35.1,4.73-1.43S286.33,241,285.76,237.59Z" style="fill: rgb(255, 255, 255); stroke: rgb(38, 50, 56); stroke-linecap: round; stroke-linejoin: round; transform-origin: 275.692px 243.2px;" id="el2cm7c014901" class="animable"></path><path d="M283.29,231.5a7.94,7.94,0,0,0,1.79.45c.56,0,1.56.11,1.23,1.46a2.87,2.87,0,0,1-1.12,1.79Z" style="fill: rgb(255, 255, 255); stroke: rgb(38, 50, 56); stroke-linecap: round; stroke-linejoin: round; transform-origin: 284.833px 233.35px;" id="elrbpkbbr916a" class="animable"></path><path d="M278.72,422.72s-2.1,35.74-2.1,36.31-2.65,9.44-2.27,10.76,3.4,1.7,5.48,1.89,6.41.75,8.11.75a63.62,63.62,0,0,0,8.88-.75c1.13-.38,2.64-1.51,1.32-2.46s-4.53-1.32-8.31-5.66a37.09,37.09,0,0,1-4.72-6.23l8-34.23Z" style="fill: rgb(255, 255, 255); stroke: rgb(38, 50, 56); stroke-linecap: round; stroke-linejoin: round; transform-origin: 286.483px 447.575px;" id="el31nougfixgn" class="animable"></path><path d="M225.67,416.12s-14.71,36.59-15.84,38.1-8.77,11.16-9,13,9.58,2.06,11.28.93,3.72-11,4.85-13,26.22-36.4,26.22-36.4Z" style="fill: rgb(255, 255, 255); stroke: rgb(38, 50, 56); stroke-linecap: round; stroke-linejoin: round; transform-origin: 222.003px 442.48px;" id="eln5l6yxm6ihp" class="animable"></path><path d="M250.44,309.72l-.28,6.14s-7.66,16.52-15.11,37c-8.12,22.33-18.68,61-18.68,61s7,6.42,26,9.49,30.8,4.37,41.12,4.06c12.49-.38,28.4-3.78,28.4-3.78s-8.93-54.72-16.19-79.57-9-27.32-9-27.32l-2.47-13.85Z" style="fill: rgb(143, 143, 143); stroke: rgb(38, 50, 56); stroke-linecap: round; stroke-linejoin: round; transform-origin: 264.13px 365.172px;" id="el74lrzmi8xtu" class="animable"></path><line x1="262.29" y1="352" x2="260.21" y2="425.31" style="fill: none; stroke: rgb(38, 50, 56); stroke-linecap: round; stroke-linejoin: round; transform-origin: 261.25px 388.655px;" id="elh8vty5v30l7" class="animable"></line><line x1="262.44" y1="346.57" x2="262.36" y2="349.45" style="fill: none; stroke: rgb(38, 50, 56); stroke-linecap: round; stroke-linejoin: round; transform-origin: 262.4px 348.01px;" id="elj94fwpu99c" class="animable"></line><path d="M278.29,317.29q1.75-.36,3.42-.87" style="fill: none; stroke: rgb(38, 50, 56); stroke-linecap: round; stroke-linejoin: round; transform-origin: 280px 316.855px;" id="eld3yztye6j5h" class="animable"></path><path d="M253.51,317.81A92.06,92.06,0,0,0,274,318" style="fill: none; stroke: rgb(38, 50, 56); stroke-linecap: round; stroke-linejoin: round; transform-origin: 263.755px 318.145px;" id="elfo6z8s7nm4n" class="animable"></path><path d="M320,237.5a49,49,0,0,1-1-6.15c-.14-2.46-2.46-5.74-2.19-7.11s1.64-1.23,2.33-.82a6.7,6.7,0,0,1,1.5,1.78s1.92-5.88,1.92-8.48,1.64-2.32,2.32-.55-.27,8.62-.27,8.62a34.37,34.37,0,0,1,3.82,1.23c1.24.55,3.56,1.64,3.15,5.06s-.82,5.33-1.64,5.33-1.51-1.09-1.51-1.09,0,3.69-1.23,4.78a7.19,7.19,0,0,1-3.69,1.23S323.84,238.6,320,237.5Z" style="fill: rgb(255, 255, 255); stroke: rgb(38, 50, 56); stroke-linecap: round; stroke-linejoin: round; transform-origin: 324.208px 228.067px;" id="el0163cjpjz1w9" class="animable"></path><path d="M328.48,235.32s.83-3.15.83-3.56" style="fill: none; stroke: rgb(38, 50, 56); stroke-linecap: round; stroke-linejoin: round; transform-origin: 328.895px 233.54px;" id="elilazxd6007b" class="animable"></path><line x1="320.69" y1="225.2" x2="319.87" y2="229.03" style="fill: none; stroke: rgb(38, 50, 56); stroke-linecap: round; stroke-linejoin: round; transform-origin: 320.28px 227.115px;" id="el8crrsn84zkj" class="animable"></line><path d="M316.61,241.33l2.57-4.36s1-1.39,3.37-.59l.07,0a4.34,4.34,0,0,1,2.77,5.24l-.66,2.46S319.58,241.13,316.61,241.33Z" style="fill: #407BFF; stroke: rgb(38, 50, 56); stroke-linecap: round; stroke-linejoin: round; transform-origin: 321.076px 240.106px;" id="elya8vlcokcs" class="animable"></path><path d="M209.1,328.72s.63,3.27.94,5.6,1.86,7,3,7.62,2.49,1.4.94,1.87-2.49.62-3.89-.47A13.8,13.8,0,0,1,207.7,341s-1.08,4.82-1.86,7.16a38.9,38.9,0,0,1-3.11,6.06,2.2,2.2,0,0,1-1,1.71c-.93.47-1.6-1.39-1.6-1.39s-1.25,2.92-2.06-.16a77.94,77.94,0,0,1-1.24-10.89c.15-1.56,6.44-16,6.44-16Z" style="fill: rgb(255, 255, 255); stroke: rgb(38, 50, 56); stroke-linecap: round; stroke-linejoin: round; transform-origin: 205.755px 341.748px;" id="elqyn0pcr38uc" class="animable"></path><path d="M200.27,345.83a7.8,7.8,0,0,0-1,2.49c0,.62.81,6.23.81,6.23" style="fill: none; stroke: rgb(38, 50, 56); stroke-linecap: round; stroke-linejoin: round; transform-origin: 199.77px 350.19px;" id="elbp2yj5vbxs8" class="animable"></path><polyline points="202.73 354.23 201.93 348.79 203.35 345.21" style="fill: none; stroke: rgb(38, 50, 56); stroke-linecap: round; stroke-linejoin: round; transform-origin: 202.64px 349.72px;" id="el86mq8ld9wnp" class="animable"></polyline><path d="M203.82,352.37s.06-2.94.26-4.28.54-1.1,1-2.72" style="fill: none; stroke: rgb(38, 50, 56); stroke-linecap: round; stroke-linejoin: round; transform-origin: 204.45px 348.87px;" id="el7kpni5fdq2x" class="animable"></path><path d="M205.37,338.06a4.53,4.53,0,0,1-1.24,2.48,34.07,34.07,0,0,1-3.27,2.65" style="fill: none; stroke: rgb(38, 50, 56); stroke-linecap: round; stroke-linejoin: round; transform-origin: 203.115px 340.625px;" id="elrz21lmasno" class="animable"></path><path d="M247.06,262.53s-12.69,6.15-13.48,7.73-16.64,29.92-18.82,32.7-8.92,6.34-9.71,9.11-.2,10.31-.2,10.31l-1.59,5.15s.2,1.78,3,2.38l2.78.59,4.76-4.56s10.3-2.57,14.46-7.53,14.27-28.14,14.27-28.14l-1.59,15.66a108.78,108.78,0,0,0,22.59.59c12.29-1,25.76-3,25.76-3l-1.78-18.23s29.33-4.75,30.91-6.14,3-5.15,3.17-6.54,5.15-27.94,5.15-27.94a9.16,9.16,0,0,0-5.94-3.77c-4.16-.79-8.32,1.39-8.52,2.58s-8.72,18.43-8.72,18.43-.6-.4-2.77.59-6-.56-6-.56-7.66-2.21-12-1.81-8.52,1-8.52,1-7.73-3.57-13.47-2S247.06,262.53,247.06,262.53Z" style="fill: #407BFF; stroke: rgb(38, 50, 56); stroke-linecap: round; stroke-linejoin: round; transform-origin: 265px 285.616px;" id="el9iwf5yf7xut" class="animable"></path><polyline points="274.4 287.1 287.48 285.32 278.76 289.88" style="fill: none; stroke: rgb(38, 50, 56); stroke-linecap: round; stroke-linejoin: round; transform-origin: 280.94px 287.6px;" id="eltxjoy0gl13m" class="animable"></polyline><polyline points="242.7 281.36 242.5 290.27 239.53 286.51" style="fill: none; stroke: rgb(38, 50, 56); stroke-linecap: round; stroke-linejoin: round; transform-origin: 241.115px 285.815px;" id="elbib5ypjs4zc" class="animable"></polyline><path d="M206.63,323.17s.6,2,5.35,2" style="fill: none; stroke: rgb(38, 50, 56); stroke-linecap: round; stroke-linejoin: round; transform-origin: 209.305px 324.17px;" id="elt4hvvikn0i8" class="animable"></path><path d="M257.8,246.62c6.51,5,12,2,14.33-.36,2.85-2.86,2.83-6.6,4.69-10.17.24-1.3,4.55-5.86,4.88-6.94.77-2.48-.71-6.83-.71-6.83s4.2.58,2.29-3.62-3.63-5.73-7.64-6.11a7.31,7.31,0,0,0-6.29,2.86s-4.77-2.29-8-.57-7.95,0-11.78,11.63a17.86,17.86,0,0,0-1.17,4.11c-.17,3.37,1.76,5.77,3.67,8.55C255,243.44,253.71,243.46,257.8,246.62Z" style="fill: rgb(38, 50, 56); stroke: rgb(38, 50, 56); stroke-linecap: round; stroke-linejoin: round; transform-origin: 266.084px 230.954px;" id="elqjl61bjtmym" class="animable"></path><path d="M265.58,241.15a4.83,4.83,0,1,1-4.83-4.83A4.84,4.84,0,0,1,265.58,241.15Z" style="fill: rgb(255, 255, 255); stroke: rgb(38, 50, 56); stroke-linecap: round; stroke-linejoin: round; transform-origin: 260.75px 241.15px;" id="el5mqutxevj67" class="animable"></path><path d="M251.93,250.07c0,3,0,5.95-2.68,8-3,2.23-14.5,10.79-8.18,19.53s7.22,6.32,6.67,9.3-12.83,11.15-10.6,18.4,11.34,11.34,10,14.13,2.79,16.55,18.59,9.3,14.71-19.74,8.37-33.84c-1.47-3.26-.78-7.42,5.17-14.12s1.47-19.55-4.8-26c-3.7-3.83-5.21-6.88-5-7.62s-5.76-9.48-10.78-6.88c-3.12,1.62-6,4.71-6.67,8.34A8.26,8.26,0,0,0,251.93,250.07Z" style="fill: rgb(38, 50, 56); stroke: rgb(38, 50, 56); stroke-linecap: round; stroke-linejoin: round; transform-origin: 259.467px 285.302px;" id="eltnr47x6ppr" class="animable"></path><path d="M276.82,236.09s-2-2.73-3.33.2a6,6,0,0,0,1.67,6.94c1.36,1.07,2.34-2.84,2.34-2.84" style="fill: rgb(255, 255, 255); stroke: rgb(38, 50, 56); stroke-linecap: round; stroke-linejoin: round; transform-origin: 275.257px 239.175px;" id="elqgdcyohz4lq" class="animable"></path><path d="M296.82,471.68c1.13-.38,2.64-1.51,1.32-2.46s-4.53-1.32-8.31-5.66l-.2,3.38a96.15,96.15,0,0,1-14.55-1.76,16.46,16.46,0,0,0-.73,4.61c.38,1.32,3.4,1.7,5.48,1.89s6.41.75,8.11.75A63.62,63.62,0,0,0,296.82,471.68Z" style="fill: #407BFF; stroke: rgb(38, 50, 56); stroke-linecap: round; stroke-linejoin: round; transform-origin: 286.502px 467.995px;" id="el8xcw02f8yw6" class="animable"></path><path d="M212.15,468.2c.71-.47,1.46-2.43,2.19-4.7a32.35,32.35,0,0,1-10.49-1.3c-1.6,2.26-2.9,4.3-3,5.07C200.69,469.15,210.45,469.33,212.15,468.2Z" style="fill: #407BFF; stroke: rgb(38, 50, 56); stroke-linecap: round; stroke-linejoin: round; transform-origin: 207.594px 465.551px;" id="elbgd6bx8ierq" class="animable"></path></g><g id="freepik--character-1--inject-24" class="animable" style="transform-origin: 124.566px 361.786px;"><rect x="72.58" y="375.79" width="8.39" height="14.89" style="fill: rgb(38, 50, 56); stroke: rgb(38, 50, 56); stroke-linecap: round; stroke-linejoin: round; transform-origin: 76.775px 383.235px;" id="eloudbasfid3" class="animable"></rect><rect x="55.24" y="316.39" width="41.79" height="63.93" rx="15.63" style="fill: rgb(148, 148, 148); stroke: rgb(38, 50, 56); stroke-linecap: round; stroke-linejoin: round; transform-origin: 76.135px 348.355px;" id="elgoy4qolfzi" class="animable"></rect><path d="M63.61,468.72a3.55,3.55,0,1,0-3.55,3.55A3.54,3.54,0,0,0,63.61,468.72Z" style="fill: rgb(38, 50, 56); stroke: rgb(38, 50, 56); stroke-linecap: round; stroke-linejoin: round; transform-origin: 60.06px 468.72px;" id="elymbw8fjq4tq" class="animable"></path><path d="M132.94,468.72a3.55,3.55,0,1,0-3.55,3.55A3.54,3.54,0,0,0,132.94,468.72Z" style="fill: rgb(38, 50, 56); stroke: rgb(38, 50, 56); stroke-linecap: round; stroke-linejoin: round; transform-origin: 129.39px 468.72px;" id="el8y2rqkvrwg" class="animable"></path><path d="M96.45,468.72c0-2-.74-3.54-1.65-3.54s-1.65,1.58-1.65,3.54.74,3.55,1.65,3.55S96.45,470.68,96.45,468.72Z" style="fill: rgb(38, 50, 56); stroke: rgb(38, 50, 56); stroke-linecap: round; stroke-linejoin: round; transform-origin: 94.8px 468.725px;" id="el7e8kkd13sh6" class="animable"></path><polygon points="98.03 449.46 98.03 398.59 91.06 398.59 91.06 449.67 56.69 463.27 56.69 466.69 61.68 466.69 61.68 463.8 94.81 456.96 127.94 463.8 127.94 466.69 132.93 466.69 132.93 463.27 98.03 449.46" style="fill: rgb(38, 50, 56); stroke: rgb(38, 50, 56); stroke-linecap: round; stroke-linejoin: round; transform-origin: 94.81px 432.64px;" id="ellny0s4euny" class="animable"></polygon><polygon points="93.06 466.68 96.54 466.68 97.29 450.16 92.31 450.16 93.06 466.68" style="fill: rgb(38, 50, 56); stroke: rgb(38, 50, 56); stroke-linecap: round; stroke-linejoin: round; transform-origin: 94.8px 458.42px;" id="el57xdlvd460u" class="animable"></polygon><rect x="85.68" y="396.65" width="17.71" height="10.52" style="fill: rgb(38, 50, 56); stroke: rgb(38, 50, 56); stroke-linecap: round; stroke-linejoin: round; transform-origin: 94.535px 401.91px;" id="el27kvgmyi8bn" class="animable"></rect><rect x="61.88" y="386.96" width="63.66" height="13.56" rx="5.91" style="fill: rgb(148, 148, 148); stroke: rgb(38, 50, 56); stroke-linecap: round; stroke-linejoin: round; transform-origin: 93.71px 393.74px;" id="elp75jbyvsvgr" class="animable"></rect><path d="M169.87,418.41l5.28,7.83,6.27-.39s9.18.12,10.75-.28,2.15,1,1.37,2.55-7.6,6.45-11.13,8.61a85.68,85.68,0,0,1-12.15,5.76c-1,.2-2.16-1.76-4.31-7.83a68.09,68.09,0,0,0-6.07-12.14Z" style="fill: rgb(255, 255, 255); stroke: rgb(38, 50, 56); stroke-linecap: round; stroke-linejoin: round; transform-origin: 176.882px 430.457px;" id="elb16md4uj2l" class="animable"></path><path d="M193.54,428.12c.78-1.57.2-2.94-1.37-2.55s-10.75.28-10.75.28l-6.27.39a16.58,16.58,0,0,0,1,5.29s-8.81,2.15-10.18,3.13c2.15,6.07,3.33,8,4.31,7.83a85.68,85.68,0,0,0,12.15-5.76C185.94,434.57,192.76,429.69,193.54,428.12Z" style="fill: rgb(255, 255, 255); stroke: rgb(38, 50, 56); stroke-linecap: round; stroke-linejoin: round; transform-origin: 179.927px 434.002px;" id="elurtld64tni" class="animable"></path><path d="M193.27,425.66a40.2,40.2,0,0,1-7.13,5.68,117.39,117.39,0,0,1-17.89,9c.83,1.65,1.45,2.24,2,2.13a85.68,85.68,0,0,0,12.15-5.76c3.53-2.16,10.35-7,11.13-8.61C194.09,427,194,426,193.27,425.66Z" style="fill: #407BFF; stroke: rgb(38, 50, 56); stroke-linecap: round; stroke-linejoin: round; transform-origin: 181.071px 434.071px;" id="eld8w8aw62av" class="animable"></path><path d="M156.16,356.27c.73-1.63,6.58,19.77,11.27,40.18,3.17,13.78,5.94,22,5.94,22a50.29,50.29,0,0,1-7.22,5.21c-2.74,1.37-7.44,3.13-7.44,3.13s-7-15.22-10.92-22.86-5-12.74-8.14-18.42-3.93-15.9-3.93-15.9-2-9.79,5.48-12.34S154,353.53,156.16,356.27Z" style="fill: #407BFF; stroke: rgb(38, 50, 56); stroke-linecap: round; stroke-linejoin: round; transform-origin: 154.424px 390.747px;" id="eljirtc9uoms" class="animable"></path><path d="M135.46,438.64s-1.36,8.39-2.27,11.45-3.43,8.63-2.64,10,5,2.8,7.1,3,4.86,3.66,8.83,5.1,9.2,1.05,9.08,0-11.74-13.85-12.31-16.95,1.47-12.84,1.47-12.84Z" style="fill: rgb(255, 255, 255); stroke: rgb(38, 50, 56); stroke-linecap: round; stroke-linejoin: round; transform-origin: 142.98px 453.765px;" id="eliba7k7lvgm" class="animable"></path><path d="M141.8,453.32l-.32.88a53.68,53.68,0,0,1-9.06-1.82c-1.08,3-2.49,6.64-1.87,7.73.79,1.39,5,2.8,7.1,3s4.86,3.66,8.83,5.1,9.2,1.05,9.08,0-11.74-13.85-12.31-16.95A8.19,8.19,0,0,0,141.8,453.32Z" style="fill: rgb(255, 255, 255); stroke: rgb(38, 50, 56); stroke-linecap: round; stroke-linejoin: round; transform-origin: 142.98px 460.205px;" id="eljkf0631fk8b" class="animable"></path><path d="M146.24,466.11c-3.14-1.54-6-4.17-10.15-5.58-2.72-.93-4.61-1.68-5.6-2.09a2.69,2.69,0,0,0,.06,1.67c.79,1.39,5,2.8,7.1,3s4.86,3.66,8.83,5.1c3.78,1.38,8.7,1.08,9.05.15C152.92,468,148.39,467.17,146.24,466.11Z" style="fill: #407BFF; stroke: rgb(38, 50, 56); stroke-linecap: round; stroke-linejoin: round; transform-origin: 142.958px 463.796px;" id="elxom73gqplkl" class="animable"></path><path d="M133.38,375.57s15.47,1.76,16.64,9.59-1.56,56.58-1.56,56.58a33.82,33.82,0,0,1-6.86-.39c-3.13-.59-8.41-1.76-8.41-1.76s-.79-16.64-1.77-23.3-1.76-26-1.76-26-25.84-2.15-28.19-3.72S133.38,375.57,133.38,375.57Z" style="fill: #407BFF; stroke: rgb(38, 50, 56); stroke-linecap: round; stroke-linejoin: round; transform-origin: 125.833px 408.672px;" id="el9u0mawq105l" class="animable"></path><path d="M153.73,370s-38.17,15.12-47,18.06a41.63,41.63,0,0,1-24.47.19c-6.07-2-9-9.75-9-9.75s-1.52-1.8-.74-3.56,13.31-12.92,21-14.88,21.45-1.1,21.45-1.1,33.36-8.54,37.47-7.95,7.38,15.22,8,17.18" style="fill: #407BFF; stroke: rgb(38, 50, 56); stroke-linecap: round; stroke-linejoin: round; transform-origin: 116.369px 370.488px;" id="el3j3wjdiiwop" class="animable"></path><path d="M82.08,380.07s2.74-10.77,10-15.27" style="fill: none; stroke: rgb(38, 50, 56); stroke-linecap: round; stroke-linejoin: round; transform-origin: 87.08px 372.435px;" id="ely8i5bn372o" class="animable"></path><path d="M80.52,372.83s2.93-4.51,6.85-5.49" style="fill: none; stroke: rgb(38, 50, 56); stroke-linecap: round; stroke-linejoin: round; transform-origin: 83.945px 370.085px;" id="elj72dttmmc1" class="animable"></path><path d="M111.1,300.56s2.7,2.94,5.86,10.6S125.24,342,125.24,342a14.85,14.85,0,0,1-4.62,1.08c-2,0-4.73.28-5.86-1.08s-4.34-11.93-4.34-11.93-1.58-12.86-2-19.4-2.48-7.89-.45-9.92S111.1,300.56,111.1,300.56Z" style="fill: rgb(255, 255, 255); stroke: rgb(38, 50, 56); stroke-linecap: round; stroke-linejoin: round; transform-origin: 116.165px 321.45px;" id="elqkqrnkisms" class="animable"></path><path d="M103.36,296s5.81,1.41,7.74,4.61,1.06,10.54,1.06,10.54,5.13,14.89,4.17,18.42-4.81,8.65-4.81,8.65.32,11.54,1.28,13.78a57.75,57.75,0,0,1,2.09,7.05s-2.73,1.92-11.7,3.2-16.34,1.92-19.38,4.33-9.78,11.53-10.58,12-1.44-1.31-2.09-2.59-.48-5.14,1-10.91,2.2-22.51.19-33.1c-2.17-11.48-3.38-13.14-2.1-20.67s19.07-19,21.63-19.49S103.36,296,103.36,296Z" style="fill: rgb(255, 255, 255); stroke: rgb(38, 50, 56); stroke-linecap: round; stroke-linejoin: round; transform-origin: 93.0783px 335.221px;" id="elyumphd1lfv" class="animable"></path><path d="M75,368.91s4.89-5.68,7.24-6.66,18.8-1,18.8-1" style="fill: none; stroke: rgb(255, 255, 255); stroke-linecap: round; stroke-linejoin: round; transform-origin: 88.02px 365.08px;" id="elpuk80xwolss" class="animable"></path><path d="M78.56,361.67a19.26,19.26,0,0,1,4.89-2,50.37,50.37,0,0,1,7.84,0" style="fill: none; stroke: rgb(255, 255, 255); stroke-linecap: round; stroke-linejoin: round; transform-origin: 84.925px 360.594px;" id="elu1peh5ve7bp" class="animable"></path><path d="M87.17,342.09a42.93,42.93,0,0,0,14.3-9.21" style="fill: none; stroke: rgb(38, 50, 56); stroke-linecap: round; stroke-linejoin: round; transform-origin: 94.32px 337.485px;" id="el0vrib495eawn" class="animable"></path><path d="M103.62,255.76s2.16,4.62,2.88,6.06.43,3.89,1,5.91,3.89,3.32,3.89,4.47a10.7,10.7,0,0,1-1.3,3.46s-.72,8.94-1.87,9.95-5.91,1.3-5.91,1.3l-.4,8.56,2.72,1.6s.48,9.45,0,12.82-2,4.07-6.25,1.53c-4.75-2.83-10.89-10.35-11.53-11.95s1.33-7.23-1.56-16.45,3.47-17.59,7.65-21.49S99.15,255,103.62,255.76Z" style="fill: rgb(255, 255, 255); stroke: rgb(38, 50, 56); stroke-linecap: round; stroke-linejoin: round; transform-origin: 97.9757px 284.289px;" id="eljo57l0y3aoc" class="animable"></path><path d="M103.62,255.76c-.15-2.59-.44-3.6-5.77-4.18s-16.73-1-21.2,6.92-4.47,25.24-4.47,25.24-11.6,7.24-12.4,13,3,11.21,9.13,13.14l.36.09a18.15,18.15,0,0,1,3.33-7.39c3.46-4.15,6.46-3.69,10.85-4.85s7.18-1.45,7.83-6.46a52.24,52.24,0,0,0,.08-12.73c-.14-1.73,1.73-4.33,1.73-4.33s4.47,1.15,7.35-6.63S103.76,258.36,103.62,255.76Z" style="fill: rgb(38, 50, 56); stroke: rgb(38, 50, 56); stroke-linecap: round; stroke-linejoin: round; transform-origin: 81.6584px 280.636px;" id="elhe65a7tnmc" class="animable"></path><path d="M95,276.38s-1.45-6.63-5.2-4,1.88,9.95,2.74,10.09a4.76,4.76,0,0,0,2.31-.72" style="fill: rgb(255, 255, 255); stroke: rgb(38, 50, 56); stroke-linecap: round; stroke-linejoin: round; transform-origin: 91.7624px 277.117px;" id="eltr9944rcspn" class="animable"></path><polygon points="102.32 286.91 97.85 286.33 102.06 287.07 102.32 286.91" style="fill: rgb(38, 50, 56); stroke: rgb(38, 50, 56); stroke-linecap: round; stroke-linejoin: round; transform-origin: 100.085px 286.7px;" id="elkk6ddsjhpd" class="animable"></polygon><path d="M107.06,269.38c.19,1,0,1.84-.44,1.92s-.93-.64-1.11-1.62,0-1.83.43-1.92S106.87,268.41,107.06,269.38Z" style="fill: rgb(38, 50, 56); transform-origin: 106.287px 269.529px;" id="eletk65h52e44" class="animable"></path><line x1="84.1" y1="315.29" x2="82.6" y2="313.42" style="fill: rgb(255, 255, 255); stroke: rgb(38, 50, 56); stroke-linecap: round; stroke-linejoin: round; transform-origin: 83.35px 314.355px;" id="el3idxbk3eie" class="animable"></line><path d="M78.74,297.53s-5.59-.19-9.83,5.78-2.7,13.49-1.54,16.58,10.41,21.2,11.76,23.51,6.16,5.59,7.32,6,5-20.82,4.63-22.75-9.26-15.42-9.26-15.42" style="fill: rgb(255, 255, 255); stroke: rgb(38, 50, 56); stroke-linecap: round; stroke-linejoin: round; transform-origin: 78.61px 323.468px;" id="eldd9g408nxmh" class="animable"></path><path d="M82.6,348.37a31.51,31.51,0,0,0-5-.21c-1.42.19-1.09.43-.33,1.2s2.42.44,2.42.44Z" style="fill: none; stroke: rgb(38, 50, 56); stroke-linecap: round; stroke-linejoin: round; transform-origin: 79.6087px 349.004px;" id="elyacbtb72s3" class="animable"></path><path d="M123.2,337.07c1.52,1.41,4.89,10.65-1.63,11.95s-23.69-.43-24.35.22-6.08,4.89-7.28,5.76A21.12,21.12,0,0,1,86,356.85s-2.5,1.95-3.15,1.52.65-1.52.65-1.52a17.84,17.84,0,0,1-3.48,1.63c-.87.11-.76-1.2-.76-1.2a2.17,2.17,0,0,1-1.3.22,2,2,0,0,1,.43-1.85c.76-.87,4.46-4.45,4.46-4.45a11.91,11.91,0,0,0-2.5,1.08c-.22.33-1.52,1.2-2.28,1.85s-1.42.54-1.63,0,1-2.38,2.21-3.63,7.74-3.76,9-3.76,11.92-3.35,11.92-3.35,19.59-6.76,20.13-7" style="fill: rgb(255, 255, 255); stroke: rgb(38, 50, 56); stroke-linecap: round; stroke-linejoin: round; transform-origin: 100.925px 347.438px;" id="elpmhw275pjlb" class="animable"></path><path d="M106.28,341.12s2.31,3.39-.61,7.86" style="fill: none; stroke: rgb(38, 50, 56); stroke-linecap: round; stroke-linejoin: round; transform-origin: 106.409px 345.05px;" id="elsodxs3o4k6" class="animable"></path><polyline points="79.29 357.28 83.37 353.87 85.57 352.11" style="fill: none; stroke: rgb(38, 50, 56); stroke-linecap: round; stroke-linejoin: round; transform-origin: 82.43px 354.695px;" id="el553qn372er3" class="animable"></polyline><path d="M83.53,356.85s3.25-2.66,3.58-2.77" style="fill: none; stroke: rgb(38, 50, 56); stroke-linecap: round; stroke-linejoin: round; transform-origin: 85.32px 355.465px;" id="el5vp476uobji" class="animable"></path><path d="M79.13,334.73c.18,3.95-1,9.66,4.79,13.31,2.78,1.75,6.91,3.41,9-1.17s3.59-45.62,3.59-45.62l2.43-.66c2.43-.67,3.78-4.68,3.78-4.68a1.87,1.87,0,0,0,0,2.46c1.11,1.11,5.54-3.54,5.76-4.87s-2.88-5.53-2.88-5.53a2.33,2.33,0,0,0,1.11-2.43c-.22-1.77-6.35,0-6.35,0l-3.61,4.68S91.46,297,91,298.81c-.36,1.47-5.42,17.43-8.33,24.51" style="fill: rgb(255, 255, 255); stroke: rgb(38, 50, 56); stroke-linecap: round; stroke-linejoin: round; transform-origin: 93.8106px 317.293px;" id="elpepbzrqxv2" class="animable"></path><line x1="87.32" y1="310.75" x2="95.34" y2="313.84" style="fill: none; stroke: rgb(38, 50, 56); stroke-linecap: round; stroke-linejoin: round; transform-origin: 91.33px 312.295px;" id="elt7hxgw4rpwc" class="animable"></line></g><defs>     <filter id="active" height="200%">         <feMorphology in="SourceAlpha" result="DILATED" operator="dilate" radius="2"></feMorphology>                <feFlood flood-color="#32DFEC" flood-opacity="1" result="PINK"></feFlood>        <feComposite in="PINK" in2="DILATED" operator="in" result="OUTLINE"></feComposite>        <feMerge>            <feMergeNode in="OUTLINE"></feMergeNode>            <feMergeNode in="SourceGraphic"></feMergeNode>        </feMerge>    </filter>    <filter id="hover" height="200%">        <feMorphology in="SourceAlpha" result="DILATED" operator="dilate" radius="2"></feMorphology>                <feFlood flood-color="#ff0000" flood-opacity="0.5" result="PINK"></feFlood>        <feComposite in="PINK" in2="DILATED" operator="in" result="OUTLINE"></feComposite>        <feMerge>            <feMergeNode in="OUTLINE"></feMergeNode>            <feMergeNode in="SourceGraphic"></feMergeNode>        </feMerge>            <feColorMatrix type="matrix" values="0   0   0   0   0                0   1   0   0   0                0   0   0   0   0                0   0   0   1   0 "></feColorMatrix>    </filter></defs></svg>